<svg xmlns="http://www.w3.org/2000/svg" width="115" height="70" viewBox="0 0 330 141" version="1.1"><path d="M 98 29.750 L 98 40 99 40 L 100 40 100 31 L 100 22 132.500 22 L 165 22 165 21.026 L 165 20.052 131.500 19.776 L 97.999 19.500 98 29.750 M 177.998 64.250 L 178 109 179 109 L 180 109 180 65.500 L 180 22 191 22 L 202 22 202 21.059 L 202 20.118 189.998 19.809 L 177.996 19.500 177.998 64.250 M 20 64.500 L 20 109 20.989 109 L 21.979 109 22.239 65.750 L 22.500 22.500 44 22.519 L 65.500 22.538 70.748 23.868 L 75.995 25.198 75.343 26.254 L 74.691 27.309 75.957 26.526 L 77.224 25.744 77.987 26.979 L 78.750 28.214 79.366 27.217 L 79.982 26.220 76.471 24.553 C 74.540 23.637, 69.931 22.245, 66.230 21.461 L 59.500 20.035 39.750 20.017 L 20 20 20 64.500 M 24.459 67.500 L 24.460 111.500 24.749 89.182 C 24.908 76.907, 24.908 57.107, 24.749 45.182 L 24.459 23.500 24.459 67.500 M 268 45.458 L 268 57 256.500 57 L 245 57 245 65 L 245 73 246 73 L 247 73 247 66 L 247 59 258.500 59 L 270 59 270 48.046 L 270 37.091 276.750 36.796 L 283.500 36.500 283.500 35.500 L 283.500 34.500 275.750 34.208 L 268 33.916 268 45.458 M 60.710 50.522 L 58.920 52.982 56.460 53.599 C 55.107 53.939, 54 54.618, 54 55.108 L 54 56 56.066 56 C 60.222 56, 63.956 53.053, 63.985 49.750 C 64.006 47.333, 62.829 47.611, 60.710 50.522 M 119.779 79.001 L 119.500 109.001 120.750 109.001 L 122 109 122 79 L 122 49 121.029 49 L 120.057 49 119.779 79.001 M 294 58 L 294 59 300.500 59 L 307 59 307 58 L 307 57 300.500 57 L 294 57 294 58 M 254.189 72.750 L 254 79 253.083 79 C 252.579 79, 251.940 78.438, 251.662 77.750 L 251.158 76.500 251.079 77.691 C 251.036 78.346, 251.489 79.184, 252.087 79.554 L 253.174 80.226 254.141 79.259 L 255.109 78.291 254.743 72.396 L 254.378 66.500 254.189 72.750 M 63.594 84.482 L 62.971 86.964 60.035 88.482 C 58.420 89.317, 56.402 90, 55.550 90 L 54 90 54 91.132 L 54 92.263 58.240 91.695 L 62.480 91.126 64.240 88.952 L 66 86.778 66 84.389 L 66 82 65.108 82 C 64.618 82, 63.937 83.117, 63.594 84.482 M 268 89 L 268 95 269 95 L 270 95 270 89 L 270 83 269 83 L 268 83 268 89 M 211.500 90 L 210.882 91 223.441 91 L 236 91 236 90 L 236 89 224.059 89 L 212.118 89 211.500 90 M 217.206 93.741 C 220.895 93.932, 227.195 93.934, 231.206 93.743 L 238.500 93.397 224.500 93.395 L 210.500 93.392 217.206 93.741" stroke="none" fill="#a360ad" fill-rule="evenodd"/><path d="M 22.750 22.562 L 22 23.333 22.015 65.917 L 22.031 108.500 23 110 L 23.969 111.500 23.985 67.750 L 24 24 44.250 24.021 L 64.500 24.042 71 25.415 C 79.075 27.120, 79.914 26.679, 72.849 24.443 L 67.500 22.750 45.500 22.271 L 23.500 21.791 22.750 22.562 M 100 32 L 100 42 101 42 L 102 42 102 33 L 102 24 134.500 24 L 167 24 167 23 L 167 22 133.500 22 L 100 22 100 32 M 180 66.500 L 180 111 181 111 L 182 111 182 67.500 L 182 24 193.059 24 L 204.118 24 203.500 23 L 202.882 22 191.441 22 L 180 22 180 66.500 M 39.302 29.746 C 44.693 29.926, 53.243 29.925, 58.302 29.744 L 67.500 29.415 48.500 29.417 L 29.500 29.419 39.302 29.746 M 123.813 29.749 C 132.785 29.914, 147.185 29.914, 155.813 29.748 L 171.500 29.445 139.500 29.446 L 107.500 29.447 123.813 29.749 M 191.750 29.737 C 194.637 29.939, 199.363 29.939, 202.250 29.737 L 207.500 29.370 197 29.370 L 186.500 29.370 191.750 29.737 M 276.750 36.742 L 270 37.091 270 48.046 L 270 59 258.500 59 L 247 59 247 67 L 247 75 248 75 L 249 75 249 68.033 L 249 61.066 260.250 60.783 L 271.500 60.500 271.783 49.250 L 272.066 38 279.092 38 L 286.118 38 285.500 37 C 285.160 36.450, 284.571 36.088, 284.191 36.196 C 283.811 36.304, 280.462 36.549, 276.750 36.742 M 63.688 50.811 L 63.126 53.622 60.516 54.811 C 59.080 55.465, 57.027 56, 55.953 56 L 54 56 54 57.132 L 54 58.263 58.078 57.716 L 62.155 57.169 64.078 55.430 L 66 53.690 66 50.845 L 66 48 65.125 48 L 64.250 48 63.688 50.811 M 122 80 L 122 111 123 111 L 124 111 124 80 L 124 49 123 49 L 122 49 122 80 M 293.664 58.832 C 293.849 59.564, 294 60.352, 294 60.582 C 294 60.812, 297.375 61, 301.500 61 L 309 61 309 60 L 309 59 301.583 59 L 294.167 59 293.747 58.250 C 293.517 57.837, 293.479 58.099, 293.664 58.832 M 64.750 81.662 L 66 82.167 66 84.473 L 66 86.778 64.240 88.952 L 62.480 91.126 58.240 91.695 L 54 92.263 54 93.132 L 54 94 57.550 94 L 61.099 94 63.928 92.537 L 66.758 91.074 67.379 89.455 C 67.720 88.565, 68 86.571, 68 85.025 L 68 82.214 66.418 81.607 C 65.548 81.273, 64.536 81.036, 64.168 81.079 C 63.801 81.122, 64.063 81.385, 64.750 81.662 M 268.750 82.662 L 270 83.167 270 90.083 L 270 97 271 97 L 272 97 272 90.107 L 272 83.214 270.418 82.607 C 269.548 82.273, 268.536 82.036, 268.168 82.079 C 267.801 82.122, 268.063 82.385, 268.750 82.662 M 211 92 L 211 93 224.750 92.985 L 238.500 92.969 237 92 L 235.500 91.031 223.250 91.015 L 211 91 211 92" stroke="none" fill="#f76d63" fill-rule="evenodd"/><path d="M 21.098 18.844 L 19.696 19.806 42.598 20.255 L 65.500 20.704 71.398 22.533 L 77.297 24.363 82.898 29.641 L 88.500 34.919 83 32.742 L 77.500 30.566 53.750 30.203 L 30 29.841 30 72.421 L 30 115 28.367 115 L 26.735 115 24.867 112.847 C 23.840 111.663, 23 110.313, 23 109.847 C 23 109.381, 22.270 109, 21.378 109 L 19.755 109 21.128 110.666 C 21.882 111.582, 24.678 114.057, 27.340 116.166 L 32.180 120 50.075 120 L 67.971 120 72.736 118.878 C 75.356 118.261, 79.499 117.065, 81.941 116.222 L 86.383 114.688 90.842 110.594 L 95.302 106.500 97.129 102.500 L 98.956 98.500 98.978 92.151 L 99 85.802 97.444 82.523 C 95.770 78.995, 91.726 74.740, 89.728 74.405 C 89.053 74.291, 87.189 73.687, 85.587 73.062 L 82.674 71.926 83.795 70.805 L 84.915 69.685 86.482 70.985 C 87.343 71.700, 88.150 72.108, 88.274 71.893 C 88.824 70.937, 90.738 67.997, 93.750 63.481 L 97 58.608 97 51.869 L 97 45.130 95.986 42.464 L 94.973 39.799 88.789 33.359 C 81.441 25.706, 78.458 23.744, 69.925 20.949 L 63.500 18.844 43 18.363 L 22.500 17.882 21.098 18.844 M 99.524 18.961 L 98.882 20 131.486 20 L 164.091 20 166.536 22.445 C 167.881 23.790, 169.730 25.309, 170.645 25.821 L 172.309 26.752 171.686 28.376 L 171.063 30 139.031 30 L 107 30 107 38 L 107 46 105.901 46 C 105.297 46, 103.484 44.588, 101.872 42.863 C 100.260 41.137, 98.708 39.959, 98.423 40.244 C 98.138 40.529, 100.281 42.840, 103.185 45.381 L 108.466 50 113.233 50 L 118 50 118 78.441 L 118 106.882 119 107.500 L 120 108.118 120 78.559 L 120 49 124.500 49 L 129 49 129 82 L 129 115 127.901 115 C 127.297 115, 125.484 113.588, 123.872 111.863 C 122.260 110.137, 120.720 108.947, 120.449 109.217 C 120.179 109.488, 122.508 112.025, 125.626 114.855 L 131.295 120 141.076 120 L 150.857 120 152.429 118.429 L 154 116.857 154 83.429 L 154 50 163.418 50 C 168.598 50, 173.548 49.727, 174.418 49.393 L 176 48.786 176 39.394 L 176 30.003 170.562 24.251 L 165.124 18.500 132.645 18.211 L 100.166 17.922 99.524 18.961 M 179.554 18.912 L 178.882 20 189.855 20 L 200.828 20 204.497 23.563 L 208.166 27.126 207.614 28.563 L 207.063 30 197.031 30 L 187 30 187 72.500 L 187 115 185.901 115 C 185.297 115, 183.541 113.650, 182 112 C 180.459 110.350, 178.816 109.021, 178.349 109.046 C 177.882 109.071, 180.200 111.545, 183.500 114.544 L 189.500 119.996 215.816 119.998 L 242.131 120 244.066 118.965 L 246 117.930 246 108.655 L 246 99.381 241.045 93.940 L 236.091 88.500 236.045 90.250 L 236 92 236.847 92 C 237.313 92, 238.663 92.840, 239.847 93.867 L 242 95.735 242 97.367 L 242 99 226.445 99 L 210.890 99 211.195 94.250 L 211.500 89.500 223.500 88.951 L 235.500 88.402 223.750 88.201 L 212 88 212 59.162 L 212 30.324 206.629 24.412 L 201.259 18.500 190.743 18.162 L 180.227 17.824 179.554 18.912 M 97.365 29.500 L 97.370 39.500 97.738 34.216 C 97.941 31.311, 97.939 26.811, 97.734 24.216 L 97.360 19.500 97.365 29.500 M 177.460 64 L 177.460 108.500 177.749 86.250 C 177.908 74.013, 177.908 53.988, 177.749 41.750 L 177.460 19.500 177.460 64 M 19.459 64.500 L 19.460 108.500 19.749 86.182 C 19.908 73.907, 19.908 54.107, 19.749 42.182 L 19.459 20.500 19.459 64.500 M 275.581 33.739 L 282.663 34.081 287.005 38.505 L 291.347 42.930 289.924 43.437 C 289.141 43.717, 286.025 44.070, 283 44.223 L 277.500 44.500 277.216 55.250 L 276.932 66 265.966 66 L 255 66 255 72.441 L 255 78.882 253.890 79.568 L 252.779 80.255 248.934 76.173 L 245.089 72.091 244.743 64.795 L 244.397 57.500 244.199 65.463 L 244 73.426 249.591 78.713 L 255.182 84 261.091 84 L 267 84 267 89.713 L 267 95.426 272.591 100.713 L 278.182 106 285.391 106 L 292.600 106 293.800 104.800 L 295 103.600 295 93.800 L 295 84 304.800 84 L 314.600 84 315.800 82.800 L 317 81.600 317 74.533 L 317 67.466 312.381 62.185 C 309.840 59.281, 307.529 57.138, 307.244 57.423 C 306.959 57.708, 308.137 59.260, 309.863 60.872 C 311.588 62.484, 313 64.297, 313 64.901 L 313 66 303.154 66 L 293.308 66 293.404 61.500 L 293.500 57.001 300 56.811 L 306.500 56.622 300.750 56.261 L 295 55.900 295 50.644 L 295 45.389 292.750 42.366 C 291.512 40.704, 288.866 37.916, 286.868 36.172 L 283.236 33 275.868 33.199 L 268.500 33.397 275.581 33.739 M 267 45.466 L 267 55.932 256.250 56.254 L 245.500 56.575 256.750 56.788 L 268 57 268 46 C 268 39.950, 267.775 35, 267.500 35 C 267.225 35, 267 39.710, 267 45.466 M 60.710 50.469 L 58.920 52.982 56.460 53.599 L 54 54.217 54 57.027 C 54 58.572, 53.734 60.529, 53.409 61.376 L 52.818 62.916 55.422 63.570 L 58.026 64.223 62.638 63.532 L 67.251 62.840 69.626 60.465 L 72 58.091 72 55.200 L 72 52.310 70.184 50.667 C 69.186 49.763, 67.048 48.783, 65.434 48.490 L 62.500 47.956 60.710 50.469 M 63.659 83.957 L 63.067 86.914 60.083 88.457 C 58.442 89.306, 56.449 90, 55.655 90 L 54.210 90 53.761 94.250 C 53.514 96.588, 53.493 98.838, 53.715 99.250 L 54.118 100 60.109 100 L 66.099 100 69.003 98.498 L 71.907 96.997 72.885 93.453 L 73.864 89.908 72.797 86.847 L 71.729 83.785 68.397 82.392 C 64.106 80.600, 64.346 80.520, 63.659 83.957 M 268 88.295 L 268 94.091 270.445 96.536 C 271.790 97.881, 273.305 99.723, 273.813 100.631 L 274.737 102.281 275.868 101.581 L 277 100.882 277 91.595 L 277 82.308 272.500 82.404 L 268.001 82.500 268 88.295" stroke="none" fill="#fac03c" fill-rule="evenodd"/><path d="M 25 66.918 L 25 109.836 24.393 111.418 L 23.786 113 25.393 113 L 27 113 27 69.363 L 27 25.725 49.250 26.232 L 71.500 26.739 77.491 28.795 C 84.841 31.319, 85.754 31.001, 79.224 28.192 L 74.387 26.111 65.970 25.055 L 57.552 24 41.276 24 L 25 24 25 66.918 M 102 34 L 102 44 103 44 L 104 44 104 35 L 104 26 137.059 26 L 170.118 26 169.500 25 L 168.882 24 135.441 24 L 102 24 102 34 M 182 68.500 L 182 113 183 113 L 184 113 184 69.500 L 184 26 195 26 L 206 26 206 25 L 206 24 194 24 L 182 24 182 68.500 M 279.250 38.794 L 272 39.088 272 50.044 L 272 61 260.500 61 L 249 61 249 68.941 L 249 76.882 249.956 77.473 L 250.911 78.063 251.206 70.782 L 251.500 63.500 262.750 63.217 L 274 62.934 274 51.967 L 274 41 281 41 L 288 41 288 40.059 C 288 38.614, 287.058 38.477, 279.250 38.794 M 66.518 51.919 L 65.833 55.035 62.966 56.517 L 60.099 58 57.050 58 L 54 58 54 59 L 54 60 58.050 60 L 62.099 60 64.966 58.517 L 67.833 57.035 68.518 53.919 L 69.202 50.802 68.202 49.802 L 67.202 48.802 66.518 51.919 M 124 81 L 124 113 125 113 L 126 113 126 81 L 126 49 125 49 L 124 49 124 81 M 294 62 L 294 63 302.500 63 L 311 63 311 62 L 311 61 302.500 61 L 294 61 294 62 M 68 85.868 L 68 89.855 65.365 91.927 L 62.730 94 60.615 94.014 C 57.707 94.032, 54 95.092, 54 95.903 L 54 96.574 59.928 96.007 L 65.856 95.440 67.928 93.565 L 70 91.690 70 87.404 L 70 83.118 69 82.500 L 68 81.882 68 85.868 M 272 90.941 L 272 98.882 273 99.500 L 274 100.118 274 91.559 L 274 83 273 83 L 272 83 272 90.941 M 224.750 93.748 L 211 94.056 211 95.028 L 211 96 225.500 96 L 240 96 240 94.500 C 240 93.675, 239.662 93.099, 239.250 93.219 C 238.838 93.340, 232.313 93.578, 224.750 93.748" stroke="none" fill="#29ae7b" fill-rule="evenodd"/><path d="M 27 70.363 L 27 115 27.883 115 C 28.369 115, 29.038 113.987, 29.370 112.750 L 29.973 110.500 29.986 69.632 L 30 28.764 52.750 29.217 L 75.500 29.670 81.464 31.835 L 87.427 33.999 85.964 32.573 C 85.159 31.789, 81.575 30.156, 78 28.944 L 71.500 26.740 49.250 26.233 L 27 25.725 27 70.363 M 104.214 35.492 L 104.500 45.010 105.500 45.012 L 106.500 45.013 106.790 37.007 L 107.081 29 139.124 29 L 171.167 29 170.750 27.750 L 170.334 26.500 137.131 26.236 L 103.927 25.973 104.214 35.492 M 184 70.500 L 184 115 185.500 115 L 187 115 187 72 L 187 29 197.500 29 L 208 29 208 28.107 C 208 26.475, 204.935 26, 194.418 26 L 184 26 184 70.500 M 274 51.967 L 274 62.934 262.750 63.217 L 251.500 63.500 251.191 68.947 C 251.021 71.942, 251.142 75.430, 251.460 76.697 L 252.038 79 252.971 79 L 253.905 79 254.202 72.750 L 254.500 66.500 265.750 66.217 L 277 65.934 277 54.967 L 277 44 283.500 44 L 290 44 290 42.500 L 290 41 282 41 L 274 41 274 51.967 M 126 82 L 126 115 127.500 115 L 129 115 129 82 L 129 49 127.500 49 L 126 49 126 82 M 68.566 53.498 L 67.910 56.995 65.005 58.498 L 62.099 60 58.050 60 L 54 60 54 61.500 L 54 63 59.453 63 L 64.906 63 67.385 61.870 L 69.865 60.741 70.978 58.054 L 72.090 55.368 71.070 52.684 C 69.735 49.172, 69.355 49.295, 68.566 53.498 M 294 64.500 L 294 66.075 303.250 65.788 L 312.500 65.500 312.500 64.500 L 312.500 63.500 303.250 63.212 L 294 62.925 294 64.500 M 274.211 91.669 L 274.500 100.339 275.750 100.753 L 277 101.167 277 92.083 L 277 83 275.461 83 L 273.922 83 274.211 91.669 M 70 87.723 L 70 91.690 67.899 93.591 L 65.798 95.493 60.228 95.996 L 54.657 96.500 54.245 97.750 L 53.833 99 60.962 99 L 68.091 99 70.545 96.545 L 73 94.091 73 90.168 L 73 86.245 71.500 85 L 70 83.755 70 87.723 M 211.249 97.250 L 211.664 98.500 226.832 98.776 L 242 99.052 242 97.526 L 242 96 226.417 96 L 210.833 96 211.249 97.250" stroke="none" fill="#6b4139" fill-rule="evenodd"/></svg>