<svg xmlns="http://www.w3.org/2000/svg" width="200" height="200" viewBox="0 0 200 200" version="1.1"><path d="M 22 45.500 L 22 68 44 68 L 66 68 66 45.500 L 66 23 44 23 L 22 23 22 45.500 M 72.187 26.250 L 72.500 29.500 78.750 29.798 L 85 30.095 85 33.048 L 85 36 88 36 L 91 36 91 39 L 91 42 97.500 42 L 104 42 104 51.500 L 104 61 101.063 61 L 98.127 61 97.813 64.250 L 97.500 67.500 94.500 67.500 L 91.500 67.500 91.187 64.250 L 90.873 61 87.937 61 L 85 61 85 51.500 L 85 42 82 42 L 79 42 79 39 L 79 36 75.500 36 L 72 36 72 45.500 L 72 55 75.500 55 L 79 55 79 58 L 79 61 75.437 61 L 71.873 61 72.187 64.250 L 72.500 67.500 75.750 67.813 L 79 68.127 79 71.063 L 79 74 75.500 74 L 72 74 72 76.937 L 72 79.873 75.250 80.187 L 78.500 80.500 78.816 83.250 L 79.133 86 71.148 86 C 66.757 86, 62.452 86.273, 61.582 86.607 L 60 87.214 60 90.107 L 60 93 66 93 L 72 93 72 95.937 L 72 98.873 75.250 99.187 L 78.500 99.500 78.816 102.250 L 79.133 105 77.816 105.114 C 77.092 105.177, 75.150 105.402, 73.500 105.615 C 71.850 105.828, 69.487 105.768, 68.250 105.482 L 66 104.962 66 101.981 L 66 99 62.937 99 L 59.873 99 60.187 102.250 L 60.500 105.500 63.250 105.816 L 66 106.133 66 109.066 L 66 112 63 112 L 60 112 60 108.669 L 60 105.339 50.750 105.419 L 41.500 105.500 41.187 102.250 L 40.873 99 46.937 99 L 53 99 53 93.067 L 53 87.135 51.009 86.503 L 49.018 85.871 48.009 86.494 L 47 87.118 47 90.059 L 47 93 44.063 93 L 41.127 93 40.813 89.750 L 40.500 86.500 31.250 86.212 L 22 85.925 22 95.962 L 22 106 25 106 L 28 106 28 99.500 L 28 93 31 93 L 34 93 34 99 L 34 105 35.750 105.137 C 36.712 105.212, 38.288 105.271, 39.250 105.267 L 41 105.261 41 108.630 L 41 112 47 112 L 53 112 53 115 L 53 118 50 118 L 47 118 47 120.952 L 47 123.905 40.750 124.202 L 34.500 124.500 34.187 127.750 L 33.873 131 40.437 131 L 47 131 47 127.500 L 47 124 49.937 124 L 52.873 124 53.187 127.250 L 53.500 130.500 59.750 130.798 L 66 131.095 66 127.548 L 66 124 69 124 L 72 124 72 130.500 L 72 137 75.500 137 L 79 137 79 139.883 L 79 142.767 80.750 143.221 C 81.713 143.470, 83.063 143.485, 83.750 143.254 L 85 142.833 85 139.917 L 85 137 91.500 137 L 98 137 98 134 L 98 131 104 131 L 110 131 110 134 L 110 137 116.500 137 L 123 137 123 139.952 L 123 142.905 116.750 143.202 L 110.500 143.500 110.187 146.750 L 109.873 150 116.437 150 L 123 150 123 153 L 123 156 116.500 156 L 110 156 110 159 L 110 162 107 162 L 104 162 104 156 L 104 150 101.063 150 L 98.127 150 97.813 146.750 L 97.500 143.500 94.500 143.500 L 91.500 143.500 91.187 146.750 L 90.873 150 84.937 150 L 79 150 79 153 L 79 156 75.500 156 L 72 156 72 168.500 L 72 181 75.500 181 L 79 181 79 178 L 79 175 82 175 L 85 175 85 178 L 85 181 91.500 181 L 98 181 98 178 L 98 175 91.500 175 L 85 175 85 172 L 85 169 94.500 169 L 104 169 104 175 L 104 181 107 181 L 110 181 110 175 L 110 169 119.500 169 L 129 169 129 175 L 129 181 132.500 181 L 136 181 136 178 L 136 175 139 175 L 142 175 142 178 L 142 181 161 181 L 180 181 180 178 L 180 175 173.500 175 L 167 175 167 172.063 L 167 169.127 170.250 168.813 L 173.500 168.500 173.813 165.250 L 174.127 162 177.063 162 L 180 162 180 146.500 L 180 131 173.500 131 L 167 131 167 127.500 L 167 124 161 124 L 155 124 155 121 L 155 118 164.500 118 L 174 118 174 115 L 174 112 177 112 L 180 112 180 108.505 L 180 105.011 176.453 105.575 L 172.906 106.138 169.953 105.490 L 167 104.841 167 101.921 L 167 99 170.500 99 L 174 99 174 96 L 174 93 170.500 93 L 167 93 167 89.500 L 167 86 164 86 L 161 86 161 83 L 161 80 164 80 L 167 80 167 77 L 167 74 157.500 74 L 148 74 148 77 L 148 80 145 80 L 142 80 142 89.500 L 142 99 135.563 99 L 129.127 99 128.813 102.250 L 128.500 105.500 122.750 105.800 L 117 106.100 117 109.050 L 117 112 123 112 L 129 112 129 115 L 129 118 119.500 118 L 110 118 110 108.500 L 110 99 113.500 99 L 117 99 117 96 L 117 93 113.500 93 L 110 93 110 89.436 L 110 85.872 113.250 86.186 L 116.500 86.500 116.500 83.500 L 116.500 80.500 113.250 80.187 L 110 79.873 110 82.937 L 110 86 107 86 L 104 86 104 73.500 L 104 61 106.937 61 L 109.873 61 110.187 64.250 L 110.500 67.500 113.750 67.813 L 117 68.127 117 71.063 L 117 74 120 74 L 123 74 123 83.500 L 123 93 126 93 L 129 93 129 86.500 L 129 80 132.500 80 L 136 80 136 77 L 136 74 129.500 74 L 123 74 123 71 L 123 68 126 68 L 129 68 129 58.500 L 129 49 126 49 L 123 49 123 45.500 L 123 42 120 42 L 117 42 117 48.500 L 117 55 113.500 55 L 110 55 110 45.500 L 110 36 113.548 36 L 117.095 36 116.798 29.750 L 116.500 23.500 113.500 23.500 L 110.500 23.500 110.187 26.750 L 109.873 30 106.937 30 L 104 30 104 26.500 L 104 23 87.937 23 L 71.873 23 72.187 26.250 M 123 29.500 L 123 36 126 36 L 129 36 129 29.500 L 129 23 126 23 L 123 23 123 29.500 M 136 45.500 L 136 68 158 68 L 180 68 180 45.500 L 180 23 158 23 L 136 23 136 45.500 M 28 45.500 L 28 61 44 61 L 60 61 60 45.500 L 60 30 44 30 L 28 30 28 45.500 M 98 33 L 98 36 101 36 L 104 36 104 33 L 104 30 101 30 L 98 30 98 33 M 142 45.500 L 142 61 158 61 L 174 61 174 45.500 L 174 30 158 30 L 142 30 142 45.500 M 34 45.500 L 34 55 43.500 55 L 53 55 53 45.500 L 53 36 43.500 36 L 34 36 34 45.500 M 148 45.500 L 148 55 157.500 55 L 167 55 167 45.500 L 167 36 157.500 36 L 148 36 148 45.500 M 117 61.500 L 117 68 120 68 L 123 68 123 61.500 L 123 55 120 55 L 117 55 117 61.500 M 79 64.500 L 79 68 82 68 L 85 68 85 71 L 85 74 82 74 L 79 74 79 77 L 79 80 82 80 L 85 80 85 83.358 L 85 86.716 82.250 86.608 L 79.500 86.500 79.202 92.750 L 78.905 99 81.952 99 L 85 99 85 102.500 L 85 106 85.750 105.882 C 86.162 105.816, 87.513 105.816, 88.750 105.882 L 91 106 91 112 L 91 118 94.500 118 L 98 118 98 121 L 98 124 104 124 L 110 124 110 121 L 110 118 107 118 L 104 118 104 108.500 L 104 99 97.500 99 L 91 99 91 89.500 L 91 80 94.500 80 L 98 80 98 77 L 98 74 94.500 74 L 91 74 91 71 L 91 68 88 68 L 85 68 85 64.500 L 85 61 82 61 L 79 61 79 64.500 M 22 77 L 22 80 34.500 80 L 47 80 47 77 L 47 74 34.500 74 L 22 74 22 77 M 60 77 L 60 80 56.500 80 L 53 80 53 83 L 53 86 54.250 86.014 C 54.938 86.021, 56.513 86.299, 57.750 86.630 L 60 87.233 60 83.617 L 60 80 63 80 L 66 80 66 77 L 66 74 63 74 L 60 74 60 77 M 174 77 L 174 80 177 80 L 180 80 180 77 L 180 74 177 74 L 174 74 174 77 M 148 82.937 L 148 86 151.566 86 L 155.133 86 154.816 83.250 L 154.500 80.500 151.250 80.187 L 148 79.873 148 82.937 M 156.750 86.696 L 155 87.147 155 90.073 L 155 93 151.500 93 L 148 93 148 96 L 148 99 145 99 L 142 99 142 102.287 L 142 105.575 145 105.803 L 148 106.032 148 102.516 L 148 99 151.500 99 L 155 99 155 96 L 155 93 158.063 93 L 161.127 93 160.813 89.827 L 160.500 86.654 159.500 86.449 C 158.950 86.337, 157.713 86.447, 156.750 86.696 M 161 109 L 161 112 164 112 L 167 112 167 109 L 167 106 164 106 L 161 106 161 109 M 28 115 L 28 118 25 118 L 22 118 22 121 L 22 124 25 124 L 28 124 28 121 L 28 118 31 118 L 34 118 34 115 L 34 112 31 112 L 28 112 28 115 M 66 115 L 66 118 63 118 L 60 118 60 121 L 60 124 63 124 L 66 124 66 121 L 66 118 69 118 L 72 118 72 121 L 72 124 75.500 124 L 79 124 79 127.500 L 79 131 85 131 L 91 131 91 127.500 L 91 124 85 124 L 79 124 79 121 L 79 118 75.500 118 L 72 118 72 115 L 72 112 69 112 L 66 112 66 115 M 136 115 L 136 118 132.500 118 L 129 118 129 121 L 129 124 132.500 124 L 136 124 136 121 L 136 118 142 118 L 148 118 148 115 L 148 112 142 112 L 136 112 136 115 M 117 127.500 L 117 131 120 131 L 123 131 123 127.500 L 123 124 120 124 L 117 124 117 127.500 M 129.212 140.250 L 129.500 149.500 138.750 149.788 L 148 150.075 148 140.538 L 148 131 138.462 131 L 128.925 131 129.212 140.250 M 155 134 L 155 137 158 137 L 161 137 161 134 L 161 131 158 131 L 155 131 155 134 M 22 159 L 22 181 44 181 L 66 181 66 159 L 66 137 44 137 L 22 137 22 159 M 136 140 L 136 143 139 143 L 142 143 142 140 L 142 137 139 137 L 136 137 136 140 M 28 158.975 L 28 175 44.025 175 L 60.051 175 59.775 159.250 L 59.500 143.500 43.750 143.225 L 28 142.949 28 158.975 M 155 146.500 L 155 150 158 150 L 161 150 161 153 L 161 156 164 156 L 167 156 167 149.500 L 167 143 161 143 L 155 143 155 146.500 M 34.212 159.250 L 34.500 168.500 43.750 168.788 L 53 169.075 53 159.538 L 53 150 43.462 150 L 33.925 150 34.212 159.250 M 91 153 L 91 156 94.500 156 L 98 156 98 153 L 98 150 94.500 150 L 91 150 91 153 M 129.202 162.250 L 129.500 168.500 132.500 168.500 L 135.500 168.500 135.798 162.250 L 136.095 156 132.500 156 L 128.905 156 129.202 162.250 M 142 165.500 L 142 175 145 175 L 148 175 148 165.500 L 148 156 145 156 L 142 156 142 165.500 M 79 165.500 L 79 169 82 169 L 85 169 85 165.500 L 85 162 82 162 L 79 162 79 165.500 M 155 168.500 L 155 175 158 175 L 161 175 161 168.500 L 161 162 158 162 L 155 162 155 168.500" stroke="none" fill="#474dc4" fill-rule="evenodd"/><path d="M -0 100.005 L -0 200.010 100.250 199.755 L 200.500 199.500 200.755 99.750 L 201.010 0 100.505 0 L 0 0 -0 100.005 M 0.481 100.500 C 0.481 155.500, 0.602 178.147, 0.750 150.826 C 0.898 123.506, 0.898 78.506, 0.750 50.826 C 0.602 23.147, 0.481 45.500, 0.481 100.500 M 22 45.500 L 22 68 44 68 L 66 68 66 45.500 L 66 23 44 23 L 22 23 22 45.500 M 72.187 26.250 L 72.500 29.500 78.750 29.798 L 85 30.095 85 33.048 L 85 36 88 36 L 91 36 91 39 L 91 42 97.500 42 L 104 42 104 51.500 L 104 61 101.063 61 L 98.127 61 97.813 64.250 L 97.500 67.500 94.500 67.500 L 91.500 67.500 91.187 64.250 L 90.873 61 87.937 61 L 85 61 85 51.500 L 85 42 82 42 L 79 42 79 39 L 79 36 75.500 36 L 72 36 72 45.500 L 72 55 75.500 55 L 79 55 79 58 L 79 61 75.437 61 L 71.873 61 72.187 64.250 L 72.500 67.500 75.750 67.813 L 79 68.127 79 71.063 L 79 74 75.500 74 L 72 74 72 76.937 L 72 79.873 75.250 80.187 L 78.500 80.500 78.816 83.250 L 79.133 86 71.148 86 C 66.757 86, 62.452 86.273, 61.582 86.607 L 60 87.214 60 90.107 L 60 93 66 93 L 72 93 72 95.937 L 72 98.873 75.250 99.187 L 78.500 99.500 78.816 102.250 L 79.133 105 77.816 105.114 C 77.092 105.177, 75.150 105.402, 73.500 105.615 C 71.850 105.828, 69.487 105.768, 68.250 105.482 L 66 104.962 66 101.981 L 66 99 62.937 99 L 59.873 99 60.187 102.250 L 60.500 105.500 63.250 105.816 L 66 106.133 66 109.066 L 66 112 63 112 L 60 112 60 108.669 L 60 105.339 50.750 105.419 L 41.500 105.500 41.187 102.250 L 40.873 99 46.937 99 L 53 99 53 93.067 L 53 87.135 51.009 86.503 L 49.018 85.871 48.009 86.494 L 47 87.118 47 90.059 L 47 93 44.063 93 L 41.127 93 40.813 89.750 L 40.500 86.500 31.250 86.212 L 22 85.925 22 95.962 L 22 106 25 106 L 28 106 28 99.500 L 28 93 31 93 L 34 93 34 99 L 34 105 35.750 105.137 C 36.712 105.212, 38.288 105.271, 39.250 105.267 L 41 105.261 41 108.630 L 41 112 47 112 L 53 112 53 115 L 53 118 50 118 L 47 118 47 120.952 L 47 123.905 40.750 124.202 L 34.500 124.500 34.187 127.750 L 33.873 131 40.437 131 L 47 131 47 127.500 L 47 124 49.937 124 L 52.873 124 53.187 127.250 L 53.500 130.500 59.750 130.798 L 66 131.095 66 127.548 L 66 124 69 124 L 72 124 72 130.500 L 72 137 75.500 137 L 79 137 79 139.883 L 79 142.767 80.750 143.221 C 81.713 143.470, 83.063 143.485, 83.750 143.254 L 85 142.833 85 139.917 L 85 137 91.500 137 L 98 137 98 134 L 98 131 104 131 L 110 131 110 134 L 110 137 116.500 137 L 123 137 123 139.952 L 123 142.905 116.750 143.202 L 110.500 143.500 110.187 146.750 L 109.873 150 116.437 150 L 123 150 123 153 L 123 156 116.500 156 L 110 156 110 159 L 110 162 107 162 L 104 162 104 156 L 104 150 101.063 150 L 98.127 150 97.813 146.750 L 97.500 143.500 94.500 143.500 L 91.500 143.500 91.187 146.750 L 90.873 150 84.937 150 L 79 150 79 153 L 79 156 75.500 156 L 72 156 72 168.500 L 72 181 75.500 181 L 79 181 79 178 L 79 175 82 175 L 85 175 85 178 L 85 181 91.500 181 L 98 181 98 178 L 98 175 91.500 175 L 85 175 85 172 L 85 169 94.500 169 L 104 169 104 175 L 104 181 107 181 L 110 181 110 175 L 110 169 119.500 169 L 129 169 129 175 L 129 181 132.500 181 L 136 181 136 178 L 136 175 139 175 L 142 175 142 178 L 142 181 161 181 L 180 181 180 178 L 180 175 173.500 175 L 167 175 167 172.063 L 167 169.127 170.250 168.813 L 173.500 168.500 173.813 165.250 L 174.127 162 177.063 162 L 180 162 180 146.500 L 180 131 173.500 131 L 167 131 167 127.500 L 167 124 161 124 L 155 124 155 121 L 155 118 164.500 118 L 174 118 174 115 L 174 112 177 112 L 180 112 180 108.505 L 180 105.011 176.453 105.575 L 172.906 106.138 169.953 105.490 L 167 104.841 167 101.921 L 167 99 170.500 99 L 174 99 174 96 L 174 93 170.500 93 L 167 93 167 89.500 L 167 86 164 86 L 161 86 161 83 L 161 80 164 80 L 167 80 167 77 L 167 74 157.500 74 L 148 74 148 77 L 148 80 145 80 L 142 80 142 89.500 L 142 99 135.563 99 L 129.127 99 128.813 102.250 L 128.500 105.500 122.750 105.800 L 117 106.100 117 109.050 L 117 112 123 112 L 129 112 129 115 L 129 118 119.500 118 L 110 118 110 108.500 L 110 99 113.500 99 L 117 99 117 96 L 117 93 113.500 93 L 110 93 110 89.436 L 110 85.872 113.250 86.186 L 116.500 86.500 116.500 83.500 L 116.500 80.500 113.250 80.187 L 110 79.873 110 82.937 L 110 86 107 86 L 104 86 104 73.500 L 104 61 106.937 61 L 109.873 61 110.187 64.250 L 110.500 67.500 113.750 67.813 L 117 68.127 117 71.063 L 117 74 120 74 L 123 74 123 83.500 L 123 93 126 93 L 129 93 129 86.500 L 129 80 132.500 80 L 136 80 136 77 L 136 74 129.500 74 L 123 74 123 71 L 123 68 126 68 L 129 68 129 58.500 L 129 49 126 49 L 123 49 123 45.500 L 123 42 120 42 L 117 42 117 48.500 L 117 55 113.500 55 L 110 55 110 45.500 L 110 36 113.548 36 L 117.095 36 116.798 29.750 L 116.500 23.500 113.500 23.500 L 110.500 23.500 110.187 26.750 L 109.873 30 106.937 30 L 104 30 104 26.500 L 104 23 87.937 23 L 71.873 23 72.187 26.250 M 123 29.500 L 123 36 126 36 L 129 36 129 29.500 L 129 23 126 23 L 123 23 123 29.500 M 136 45.500 L 136 68 158 68 L 180 68 180 45.500 L 180 23 158 23 L 136 23 136 45.500 M 28 45.500 L 28 61 44 61 L 60 61 60 45.500 L 60 30 44 30 L 28 30 28 45.500 M 98 33 L 98 36 101 36 L 104 36 104 33 L 104 30 101 30 L 98 30 98 33 M 142 45.500 L 142 61 158 61 L 174 61 174 45.500 L 174 30 158 30 L 142 30 142 45.500 M 34 45.500 L 34 55 43.500 55 L 53 55 53 45.500 L 53 36 43.500 36 L 34 36 34 45.500 M 148 45.500 L 148 55 157.500 55 L 167 55 167 45.500 L 167 36 157.500 36 L 148 36 148 45.500 M 117 61.500 L 117 68 120 68 L 123 68 123 61.500 L 123 55 120 55 L 117 55 117 61.500 M 79 64.500 L 79 68 82 68 L 85 68 85 71 L 85 74 82 74 L 79 74 79 77 L 79 80 82 80 L 85 80 85 83.358 L 85 86.716 82.250 86.608 L 79.500 86.500 79.202 92.750 L 78.905 99 81.952 99 L 85 99 85 102.500 L 85 106 85.750 105.882 C 86.162 105.816, 87.513 105.816, 88.750 105.882 L 91 106 91 112 L 91 118 94.500 118 L 98 118 98 121 L 98 124 104 124 L 110 124 110 121 L 110 118 107 118 L 104 118 104 108.500 L 104 99 97.500 99 L 91 99 91 89.500 L 91 80 94.500 80 L 98 80 98 77 L 98 74 94.500 74 L 91 74 91 71 L 91 68 88 68 L 85 68 85 64.500 L 85 61 82 61 L 79 61 79 64.500 M 22 77 L 22 80 34.500 80 L 47 80 47 77 L 47 74 34.500 74 L 22 74 22 77 M 60 77 L 60 80 56.500 80 L 53 80 53 83 L 53 86 54.250 86.014 C 54.938 86.021, 56.513 86.299, 57.750 86.630 L 60 87.233 60 83.617 L 60 80 63 80 L 66 80 66 77 L 66 74 63 74 L 60 74 60 77 M 174 77 L 174 80 177 80 L 180 80 180 77 L 180 74 177 74 L 174 74 174 77 M 148 82.937 L 148 86 151.566 86 L 155.133 86 154.816 83.250 L 154.500 80.500 151.250 80.187 L 148 79.873 148 82.937 M 156.750 86.696 L 155 87.147 155 90.073 L 155 93 151.500 93 L 148 93 148 96 L 148 99 145 99 L 142 99 142 102.287 L 142 105.575 145 105.803 L 148 106.032 148 102.516 L 148 99 151.500 99 L 155 99 155 96 L 155 93 158.063 93 L 161.127 93 160.813 89.827 L 160.500 86.654 159.500 86.449 C 158.950 86.337, 157.713 86.447, 156.750 86.696 M 161 109 L 161 112 164 112 L 167 112 167 109 L 167 106 164 106 L 161 106 161 109 M 28 115 L 28 118 25 118 L 22 118 22 121 L 22 124 25 124 L 28 124 28 121 L 28 118 31 118 L 34 118 34 115 L 34 112 31 112 L 28 112 28 115 M 66 115 L 66 118 63 118 L 60 118 60 121 L 60 124 63 124 L 66 124 66 121 L 66 118 69 118 L 72 118 72 121 L 72 124 75.500 124 L 79 124 79 127.500 L 79 131 85 131 L 91 131 91 127.500 L 91 124 85 124 L 79 124 79 121 L 79 118 75.500 118 L 72 118 72 115 L 72 112 69 112 L 66 112 66 115 M 136 115 L 136 118 132.500 118 L 129 118 129 121 L 129 124 132.500 124 L 136 124 136 121 L 136 118 142 118 L 148 118 148 115 L 148 112 142 112 L 136 112 136 115 M 117 127.500 L 117 131 120 131 L 123 131 123 127.500 L 123 124 120 124 L 117 124 117 127.500 M 129.212 140.250 L 129.500 149.500 138.750 149.788 L 148 150.075 148 140.538 L 148 131 138.462 131 L 128.925 131 129.212 140.250 M 155 134 L 155 137 158 137 L 161 137 161 134 L 161 131 158 131 L 155 131 155 134 M 22 159 L 22 181 44 181 L 66 181 66 159 L 66 137 44 137 L 22 137 22 159 M 136 140 L 136 143 139 143 L 142 143 142 140 L 142 137 139 137 L 136 137 136 140 M 28 158.975 L 28 175 44.025 175 L 60.051 175 59.775 159.250 L 59.500 143.500 43.750 143.225 L 28 142.949 28 158.975 M 155 146.500 L 155 150 158 150 L 161 150 161 153 L 161 156 164 156 L 167 156 167 149.500 L 167 143 161 143 L 155 143 155 146.500 M 34.212 159.250 L 34.500 168.500 43.750 168.788 L 53 169.075 53 159.538 L 53 150 43.462 150 L 33.925 150 34.212 159.250 M 91 153 L 91 156 94.500 156 L 98 156 98 153 L 98 150 94.500 150 L 91 150 91 153 M 129.202 162.250 L 129.500 168.500 132.500 168.500 L 135.500 168.500 135.798 162.250 L 136.095 156 132.500 156 L 128.905 156 129.202 162.250 M 142 165.500 L 142 175 145 175 L 148 175 148 165.500 L 148 156 145 156 L 142 156 142 165.500 M 79 165.500 L 79 169 82 169 L 85 169 85 165.500 L 85 162 82 162 L 79 162 79 165.500 M 155 168.500 L 155 175 158 175 L 161 175 161 168.500 L 161 162 158 162 L 155 162 155 168.500" stroke="none" fill="#f8f8fb" fill-rule="evenodd"/></svg>