<svg xmlns="http://www.w3.org/2000/svg" width="300" height="56" viewBox="0 0 300 56" version="1.1"><path d="M 10.984 5.857 L 7.500 7.713 6.232 10.107 L 4.965 12.500 5.232 31.334 L 5.500 50.168 8.766 53.084 L 12.032 56 17.266 55.999 L 22.500 55.998 29.820 54.471 C 33.846 53.631, 39.882 52.304, 43.234 51.523 L 49.328 50.101 50.914 48.515 L 52.500 46.929 52.500 30.569 L 52.500 14.210 50.679 12.197 L 48.857 10.185 41.679 8.491 C 34.603 6.821, 18.939 4.105, 15.984 4.035 C 15.151 4.016, 12.901 4.835, 10.984 5.857 M 18.727 17.749 L 17 19.657 17 30.638 L 17 41.618 18.388 43.516 L 19.776 45.414 29.099 44.095 C 39.280 42.654, 41 42.202, 41 40.965 L 41 40.145 35.250 40.682 C 32.087 40.977, 27.715 41.594, 25.533 42.052 L 21.566 42.885 20.251 41.793 L 18.935 40.701 19.218 30.101 L 19.500 19.500 23 19.549 C 24.925 19.575, 29.762 19.958, 33.750 20.400 L 41 21.203 41 20.223 L 41 19.243 33.750 18.156 C 29.762 17.558, 25.140 16.792, 23.477 16.455 L 20.454 15.841 18.727 17.749 M 76.200 18.843 L 72.901 20.603 70.957 23.551 L 69.013 26.500 69.007 31.368 L 69 36.235 72.882 40.118 L 76.765 44 82.277 44 L 87.788 44 90.894 41.099 L 94 38.198 94 36.599 L 94 35 91.122 35 L 88.245 35 87 36.500 L 85.755 38 82.533 38 L 79.310 38 77.655 36.171 L 76 34.343 76 30.743 L 76 27.143 77.571 25.571 L 79.143 24 82.164 24 L 85.185 24 87.727 26 C 89.126 27.100, 90.898 28, 91.666 28 L 93.063 28 93.641 26.492 L 94.220 24.985 92.532 22.409 L 90.844 19.833 87.454 18.416 C 83.049 16.576, 80.254 16.682, 76.200 18.843 M 98 31 L 98 44 100.861 44 L 103.723 44 109.611 36.301 L 115.500 28.601 116 36.051 L 116.500 43.500 119.500 43.500 L 122.500 43.500 122.781 31.230 L 123.062 18.961 121.529 18.373 L 119.996 17.784 117.657 18.371 L 115.319 18.958 111.212 24.813 C 108.954 28.033, 106.407 31.248, 105.553 31.956 L 104 33.245 104 25.622 L 104 18 101 18 L 98 18 98 31 M 125 21 L 125 24 129.464 24 L 133.928 24 134.214 33.750 L 134.500 43.500 137.500 43.500 L 140.500 43.500 140.786 33.750 L 141.072 24 145.536 24 L 150 24 150 21 L 150 18 137.500 18 L 125 18 125 21 M 152.511 28.835 L 151.796 39.781 152.465 41.890 L 153.135 44 155.849 44 L 158.563 44 164.531 36.250 L 170.500 28.500 170.793 36.310 L 171.086 44.120 174.293 43.810 L 177.500 43.500 177.500 31 L 177.500 18.500 174.500 18.206 L 171.500 17.913 165.500 25.706 L 159.500 33.500 159 26 L 158.500 18.500 155.863 18.194 L 153.226 17.889 152.511 28.835 M 186 19.923 C 186 21.020, 185.487 25.370, 184.859 29.590 L 183.718 37.261 181.892 37.738 L 180.066 38.216 179.434 40.209 L 178.801 42.201 179.779 43.179 L 180.756 44.156 183.529 43.828 L 186.302 43.500 188.318 40.788 L 190.334 38.076 190.917 31.288 L 191.500 24.500 195.213 24.192 L 198.926 23.884 199.213 33.692 L 199.500 43.500 202.500 43.500 L 205.500 43.500 205.500 31 L 205.500 18.500 195.750 18.214 L 186 17.928 186 19.923 M 211 31 L 211 44 213.944 44 L 216.888 44 222.694 36.274 L 228.500 28.548 229 36.024 L 229.500 43.500 232.500 43.500 L 235.500 43.500 235.500 31 L 235.500 18.500 232.475 18.203 L 229.449 17.907 223.475 25.875 L 217.500 33.842 217.210 25.921 L 216.919 18 213.960 18 L 211 18 211 31 M 240.477 20.250 C 240.169 21.488, 240.048 27.225, 240.208 33 L 240.500 43.500 243.750 43.813 L 247 44.127 247 39.013 L 247 33.900 252.750 34.200 L 258.500 34.500 258.805 39.250 L 259.110 44 262.055 44 L 265 44 265 31 L 265 18 262.055 18 L 259.110 18 258.805 22.750 L 258.500 27.500 253 27.500 L 247.500 27.500 247.195 22.750 L 246.890 18 243.964 18 L 241.038 18 240.477 20.250 M 270 31 L 270 44 273 44 L 276 44 276.015 40.750 C 276.024 38.962, 276.368 36.969, 276.781 36.321 L 277.531 35.141 282.865 39.571 L 288.198 44 291.599 44 L 295 44 295 42.500 C 295 41.675, 294.663 40.982, 294.250 40.961 C 293.837 40.940, 290.877 38.563, 287.671 35.680 L 281.842 30.439 287.921 25.563 L 294 20.688 294 19.344 L 294 18 291.100 18 L 288.201 18 282.877 22 C 279.949 24.200, 277.204 26, 276.777 26 L 276 26 276 22 L 276 18 273 18 L 270 18 270 31" stroke="none" fill="#FFBF66" fill-rule="evenodd"/></svg>