<svg xmlns="http://www.w3.org/2000/svg" width="2560" height="402" viewBox="0 0 2560 402" version="1.1"><path d="M 168.500 1.535 C 80.288 15.715, 14.771 82.395, 1.501 171.500 L 0.012 181.500 0.024 199 L 0.037 216.500 1.529 226.999 C 6.604 262.712, 19.970 294.307, 42.206 323.151 L 49.413 332.500 59.024 342 L 68.634 351.501 78.067 358.621 C 89.914 367.563, 99.926 373.656, 113.146 379.966 L 123.500 384.908 135.500 388.897 L 147.500 392.885 157.500 394.858 C 163 395.943, 172.900 397.382, 179.500 398.057 L 191.500 399.283 204.500 398.647 C 220.009 397.889, 232.537 395.967, 247.698 392.020 L 258.895 389.104 271.572 383.892 L 284.248 378.680 294.549 372.494 C 300.214 369.091, 308.580 363.651, 313.140 360.404 L 321.431 354.500 334.542 341.500 L 347.653 328.500 355.181 318 C 368.248 299.774, 375.835 285.157, 382.975 264.450 L 386.930 252.980 389.470 240.951 L 392.010 228.923 393.206 214.461 L 394.403 199.999 393.184 184.749 C 392.514 176.362, 391.633 168.001, 391.227 166.170 L 390.487 162.840 369.994 178.031 C 358.722 186.386, 349.170 193.525, 348.766 193.895 L 348.031 194.569 347.065 208.086 L 346.099 221.604 344.482 229.552 C 333.502 283.499, 294.995 327.005, 242.755 344.483 L 232.500 347.915 223 349.672 L 213.500 351.430 196 351.395 L 178.500 351.360 168.435 349.199 C 154.663 346.242, 144.362 342.771, 132.281 337.019 L 122.062 332.153 112.802 325.826 L 103.541 319.500 93.292 309.644 L 83.044 299.788 76.653 291.144 C 68.611 280.264, 62.207 269.045, 57.450 257.500 L 53.741 248.500 50.953 237.471 L 48.165 226.441 46.946 215.971 L 45.726 205.500 46.281 192.500 L 46.835 179.500 48.916 169.352 C 50.060 163.771, 52.609 154.546, 54.579 148.852 L 58.162 138.500 63.519 128.198 C 66.466 122.532, 71.492 114.212, 74.688 109.709 L 80.500 101.523 91.012 91.012 L 101.523 80.500 109.640 74.739 C 129.167 60.877, 153.063 51.257, 176.094 47.985 L 183.500 46.933 197.352 46.937 L 211.205 46.942 220.852 48.581 C 239.946 51.824, 257.290 58.187, 273.296 67.820 C 278.030 70.669, 282.073 73, 282.282 73 C 282.490 73, 291.318 66.509, 301.899 58.576 L 321.137 44.151 313.604 38.481 C 309.461 35.362, 301.217 29.923, 295.285 26.394 L 284.500 19.978 274 15.557 C 261.007 10.087, 243.530 4.769, 231 2.473 L 221.500 0.732 199.500 0.410 L 177.500 0.088 168.500 1.535 M 609.204 70.173 C 585.861 73.101, 562.627 82.583, 544.189 96.705 L 536.800 102.365 530.716 109.160 C 515.917 125.690, 506.163 144.956, 501.432 167 L 499.823 174.500 499.288 187.500 L 498.752 200.500 500.434 212 L 502.115 223.500 505.503 233.671 C 509.603 245.979, 513.412 253.763, 520.832 265 L 526.444 273.500 535.477 282.500 L 544.511 291.500 551.676 296.260 C 555.617 298.878, 562.364 302.830, 566.670 305.043 L 574.500 309.066 585.500 312.517 L 596.500 315.967 606 317.480 L 615.500 318.992 628.678 318.996 L 641.855 319 649.633 317.918 C 653.910 317.323, 661.566 315.757, 666.646 314.437 L 675.881 312.037 684.714 308.229 L 693.547 304.421 702.024 298.850 C 706.686 295.786, 713.200 290.782, 716.500 287.730 L 722.500 282.181 721.500 281.146 C 720.950 280.577, 713.300 274.712, 704.500 268.112 L 688.500 256.112 679.328 261.049 L 670.156 265.986 661.328 268.932 L 652.500 271.879 643.500 273.069 L 634.500 274.259 625.551 273.626 L 616.602 272.994 610.051 271.387 L 603.500 269.779 595.387 266.019 C 584.962 261.187, 580.939 258.421, 573.174 250.750 L 566.848 244.500 562.286 237.194 L 557.723 229.888 554.930 221.694 L 552.137 213.500 550.998 203.722 L 549.859 193.944 550.977 184.722 C 552.762 170.010, 555.919 160.866, 563.210 149.298 L 567.118 143.096 575.193 135.501 L 583.267 127.905 593.383 123.037 L 603.500 118.168 610.225 116.544 L 616.949 114.919 626.725 114.343 L 636.500 113.767 645.868 115.404 L 655.237 117.041 662.477 120.055 C 666.459 121.712, 671.821 124.403, 674.393 126.035 L 679.070 129 697.532 115.410 C 707.686 107.935, 716.190 101.502, 716.429 101.115 L 716.864 100.411 711.149 95.785 C 694.985 82.700, 674.259 74.051, 650.683 70.550 L 640.243 69 628.372 69.129 C 621.842 69.200, 613.217 69.670, 609.204 70.173 M 2297.682 71.651 L 2297 72.333 2297 197.182 L 2297 322.032 2324.750 321.766 L 2352.500 321.500 2352.760 272.750 L 2353.019 224 2369.271 224 L 2385.522 224 2426 273 L 2466.478 322 2502.739 322 L 2539 322 2538.961 321.250 C 2538.939 320.837, 2514.254 291.278, 2484.105 255.563 L 2429.287 190.626 2476.568 131.563 L 2523.849 72.500 2523.109 71.735 L 2522.370 70.970 2491.977 71.235 L 2461.584 71.500 2421.657 123.750 L 2381.729 176 2367.374 176 L 2353.018 176 2352.759 123.750 L 2352.500 71.500 2325.432 71.234 L 2298.365 70.969 2297.682 71.651 M 757 197 L 757 322 819.750 321.997 L 882.500 321.994 891.500 320.891 C 902.573 319.535, 912.096 317.147, 922.531 313.113 L 930.500 310.031 937 305.798 C 945.169 300.477, 952.760 292.978, 957.541 285.504 L 961.244 279.715 964.038 272.060 L 966.831 264.404 968.056 256.028 L 969.281 247.652 968.675 238.076 L 968.069 228.500 966.503 222.500 C 965.642 219.200, 963.444 213.350, 961.619 209.500 L 958.300 202.500 954.091 197.204 L 949.881 191.908 943.690 187.308 L 937.500 182.707 930.119 179.263 L 922.738 175.818 913.619 173.517 L 904.500 171.216 894.211 170.108 L 883.922 169 847.461 169 L 811 169 811 141.500 L 811 114 863.564 114 L 916.129 114 942.758 94.250 C 957.404 83.388, 970.087 73.952, 970.943 73.282 L 972.500 72.064 864.750 72.032 L 757 72 757 197 M 1003 197 L 1003 322 1097.500 322 L 1192 322 1192 301 L 1192 280 1124.500 280 L 1057 280 1057 248.500 L 1057 217 1114.500 217 L 1172 217 1172 196 L 1172 175 1114.500 175 L 1057 175 1057 144.500 L 1057 114 1096.505 114 L 1136.011 114 1162.755 94.362 C 1177.465 83.562, 1190.159 74.112, 1190.964 73.362 L 1192.429 72 1097.714 72 L 1003 72 1003 197 M 1227 197 L 1227 322 1254.500 322 L 1282 322 1282 287.125 L 1282 252.249 1314.750 251.735 L 1347.500 251.222 1357 249.525 C 1397.307 242.327, 1424.202 220.160, 1433.469 186.500 L 1435.121 180.500 1435.700 166.764 L 1436.279 153.027 1435.055 145.440 C 1428.493 104.761, 1397.758 78.888, 1349.026 73.020 L 1340.552 72 1283.776 72 L 1227 72 1227 197 M 1530 197 L 1530 322 1593.250 321.994 L 1656.500 321.988 1666.500 320.484 C 1672 319.656, 1679.875 318.065, 1684 316.949 L 1691.500 314.919 1701.533 310.048 L 1711.566 305.177 1718.641 298.626 L 1725.715 292.076 1729.810 285.788 L 1733.905 279.500 1736.333 273 C 1737.668 269.425, 1739.325 263.300, 1740.015 259.390 L 1741.270 252.279 1740.782 238.890 L 1740.294 225.500 1737.573 217.510 L 1734.853 209.519 1731.487 204.010 L 1728.120 198.500 1722.310 192.848 C 1711.078 181.922, 1697.280 175.324, 1677.432 171.387 L 1669.500 169.813 1626.750 169.309 L 1584 168.804 1584 141.402 L 1584 114 1654.500 114 L 1725 114 1725 93 L 1725 72 1627.500 72 L 1530 72 1530 197 M 1853.616 74.250 C 1852.142 76.568, 1746 321.316, 1746 322.396 L 1746 323 1775.275 323 L 1804.550 323 1814.388 298.500 L 1824.227 274 1881.426 274 L 1938.625 274 1948.409 298.500 L 1958.193 323 1988.596 323 C 2005.318 323, 2019 322.794, 2019 322.541 C 2019 321.873, 1915.036 78.009, 1913.361 74.750 L 1911.949 72 1883.497 72 L 1855.046 72 1853.616 74.250 M 2035.667 72.667 L 2035 73.333 2035 198.167 L 2035 323 2063.500 323 L 2092 323 2092 274 L 2092 225 2148 225 L 2204 225 2204 274 L 2204 323 2232.500 323 L 2261 323 2261 197.484 L 2261 71.969 2232.750 72.234 L 2204.500 72.500 2204.241 124.750 L 2203.982 177 2147.991 177 L 2092 177 2092 124.500 L 2092 72 2064.167 72 L 2036.333 72 2035.667 72.667 M 274.139 135.085 L 196.778 192.981 195.642 192.278 C 195.016 191.892, 178.368 181.321, 158.645 168.788 C 138.922 156.255, 122.383 146, 121.892 146 L 121 146 121.031 174.750 L 121.062 203.500 158.754 227.351 L 196.447 251.202 198.474 249.947 C 201.257 248.224, 373.131 120.056, 375 118.310 L 376.500 116.908 370.732 105.704 C 364.784 94.151, 354.265 77.836, 352.500 77.423 C 351.950 77.295, 316.688 103.243, 274.139 135.085 M 1282 161.375 L 1282 209 1310.250 208.983 L 1338.500 208.965 1345.500 207.489 L 1352.500 206.013 1358.925 202.858 L 1365.351 199.702 1369.614 195.439 L 1373.878 191.175 1376.516 185.969 L 1379.154 180.762 1380.560 174.131 L 1381.965 167.500 1381.965 162 L 1381.965 156.500 1380.573 149.931 C 1379.807 146.317, 1378.184 141.241, 1376.966 138.651 L 1374.752 133.940 1370.272 128.958 L 1365.793 123.975 1358.646 120.583 C 1354.716 118.718, 1349.250 116.666, 1346.500 116.024 L 1341.500 114.856 1311.750 114.303 L 1282 113.751 1282 161.375 M 1862.344 180.728 L 1843.331 227.500 1881.320 227.762 C 1902.214 227.906, 1919.439 227.894, 1919.598 227.735 C 1919.970 227.363, 1882.997 135.752, 1882.062 134.728 L 1881.357 133.957 1862.344 180.728 M 811 246.095 L 811 280.190 846.750 279.729 L 882.500 279.267 888.769 277.640 C 892.217 276.746, 897.252 274.893, 899.957 273.522 L 904.875 271.030 908.357 267.444 C 912.772 262.898, 914.878 258.450, 916.045 251.202 L 916.970 245.459 916.052 239.822 L 915.135 234.185 913.140 230.274 L 911.145 226.364 906.945 222.569 L 902.745 218.775 898.349 216.830 C 895.931 215.761, 890.926 214.244, 887.227 213.460 L 880.500 212.035 845.750 212.017 L 811 212 811 246.095 M 1584 246.095 L 1584 280.190 1619.750 279.709 L 1655.500 279.229 1660.500 278.010 C 1663.250 277.340, 1668.281 275.481, 1671.681 273.878 L 1677.862 270.964 1681.856 266.426 L 1685.850 261.889 1687.425 257.266 L 1689 252.644 1689 246.003 L 1689 239.363 1687.505 234.328 L 1686.009 229.292 1681.969 224.702 L 1677.929 220.112 1672.697 217.553 L 1667.465 214.993 1660.483 213.514 L 1653.500 212.035 1618.750 212.017 L 1584 212 1584 246.095" stroke="none" fill="#8b9ba3" fill-rule="evenodd"/></svg>