<svg xmlns="http://www.w3.org/2000/svg" width="2826" height="1166" viewBox="0 0 2826 1166" version="1.1"><path d="M 787 270.057 C 754.829 272.047, 738.962 274.832, 708.500 283.834 C 680.472 292.116, 650.893 306.241, 624.327 324.028 C 585.654 349.923, 550.407 387.209, 527.452 426.510 C 510.101 456.217, 500.463 479.852, 491.163 515.500 C 480.586 556.048, 479.934 616.910, 489.622 659.500 C 493.843 678.059, 501.687 702.666, 507.632 716 C 525.645 756.405, 546.513 787.394, 575 816.043 C 582.425 823.511, 590.075 830.947, 592 832.569 C 601.227 840.342, 611.350 848.219, 617.127 852.120 C 620.632 854.487, 623.725 856.665, 624 856.961 C 626.653 859.819, 654.083 875.665, 665.500 880.936 C 693.209 893.729, 720.665 902.499, 748.500 907.448 C 760.377 909.559, 789.714 911.973, 803.500 911.973 C 818.608 911.973, 847.145 909.496, 860.945 906.987 C 895.200 900.758, 932.951 887.078, 962.500 870.188 C 965.250 868.616, 968.625 866.693, 970 865.915 C 971.375 865.137, 972.725 864.275, 973 864 C 973.275 863.725, 977.550 860.841, 982.500 857.592 C 1000.061 846.065, 1011.347 836.797, 1029.250 819.200 C 1035.713 812.848, 1041 808.042, 1041 808.521 C 1041 809, 1042.293 807.391, 1043.872 804.946 C 1045.452 802.501, 1047.609 799.600, 1048.665 798.500 C 1052.221 794.796, 1064.575 778.573, 1071.131 769 C 1081.292 754.161, 1088.915 740.023, 1100.514 714.500 C 1106.869 700.515, 1117.143 665.364, 1120.444 646.308 C 1122.432 634.835, 1125.002 604.179, 1124.994 592.039 C 1124.985 579.486, 1122.377 547.832, 1120.423 536.562 C 1117.402 519.139, 1109.871 491.452, 1104.222 477 C 1091.550 444.582, 1073.767 413.480, 1054.500 390.041 C 1051.200 386.027, 1046.147 378.075, 1043.271 372.371 C 1040.395 366.667, 1037.803 362, 1037.510 362 C 1037.217 362, 1038.843 365.712, 1041.123 370.250 L 1045.268 378.500 1035.957 368.666 C 1023.436 355.442, 1000.888 336.067, 987.500 327.028 C 973.196 317.370, 970.014 315.345, 963.540 311.780 C 917.348 286.346, 873.486 273.139, 826.500 270.518 C 804.810 269.307, 800.015 269.252, 787 270.057 M 2642.384 344.382 C 2631.997 346.963, 2623.942 353.634, 2619.378 363.435 C 2616.481 369.657, 2616.132 381.098, 2618.618 388.392 C 2620.843 394.921, 2629.489 404.086, 2636.240 407.070 C 2643.996 410.498, 2655.452 410.393, 2663.148 406.824 C 2681.477 398.322, 2688.263 375.843, 2677.547 359.131 C 2670.024 347.400, 2655.224 341.192, 2642.384 344.382 M 1761.500 431.639 C 1734.735 433.936, 1723.799 435.968, 1705.800 441.986 C 1651.602 460.107, 1613.066 499.825, 1601.524 549.461 C 1597.845 565.281, 1596.538 582.093, 1597.955 595.364 C 1602.849 641.193, 1626.302 680.297, 1664 705.486 C 1726.473 747.230, 1814.866 747.403, 1876.426 705.902 C 1899.030 690.663, 1913.370 675.117, 1925.454 652.750 L 1930.181 644 1903.676 644 L 1877.170 644 1873.597 648.867 C 1868.635 655.628, 1857.481 665.940, 1848.782 671.809 C 1822.114 689.805, 1788.733 698.819, 1759.173 696.007 C 1726.873 692.934, 1701.590 682.009, 1680.603 662.057 C 1668.877 650.908, 1657.265 633.505, 1652.454 619.871 L 1651.154 616.184 1663.362 612.124 C 1682.364 605.805, 1694.441 603.158, 1716.500 600.476 C 1736.509 598.044, 1752.812 598.625, 1785 602.917 C 1830.209 608.947, 1836.274 609.445, 1864.500 609.455 C 1892.905 609.465, 1901.814 608.574, 1919.405 603.963 C 1936.100 599.587, 1942.920 593.337, 1942.978 582.358 C 1943.043 570.116, 1934.517 540.803, 1925.568 522.500 C 1902.785 475.904, 1864.961 446.541, 1814.260 436.091 C 1799.671 433.084, 1771.932 430.743, 1761.500 431.639 M 1376.500 432.584 C 1317.336 436.837, 1268.732 465.730, 1242.087 512.488 C 1233.394 527.743, 1227.042 545.840, 1222.799 567.437 C 1220.931 576.945, 1220.767 584.376, 1219.816 702.281 C 1219.262 770.910, 1219.063 827.723, 1219.373 828.531 C 1219.848 829.767, 1223.753 830, 1243.969 830 L 1268 830 1268 758.130 L 1268 686.261 1274.991 693.127 C 1297.186 714.930, 1326.445 729.189, 1361 735.041 C 1377.436 737.825, 1404.708 737.761, 1421.875 734.899 C 1468.069 727.195, 1508.017 703.799, 1533.951 669.258 C 1576.633 612.413, 1571.957 537.476, 1522.525 486.124 C 1495.780 458.340, 1461.762 441.124, 1420.637 434.559 C 1411.366 433.079, 1385.630 431.927, 1376.500 432.584 M 2130 433.069 C 2101.088 435.471, 2071.975 445.594, 2047.500 461.756 C 2034.508 470.335, 2015.835 488.915, 2007.167 501.888 C 1996.738 517.497, 1987.841 538.269, 1983.560 557 C 1978.600 578.707, 1978.715 575.439, 1978.271 706.768 L 1977.855 830.036 2002.177 829.768 L 2026.500 829.500 2026.757 758.147 L 2027.013 686.795 2035.329 694.667 C 2058.185 716.302, 2088.224 730.427, 2122.243 735.537 C 2135.214 737.485, 2164.010 737.451, 2177.185 735.472 C 2234.032 726.934, 2282.159 694.322, 2305.779 648.335 C 2312.490 635.267, 2315.348 627.431, 2318.560 613.285 C 2320.872 603.103, 2321.238 599.256, 2321.249 585 C 2321.269 560.316, 2317.557 544.067, 2306.973 522.500 C 2277.379 462.202, 2207.060 426.667, 2130 433.069 M 2457 432.986 C 2409.462 437.749, 2372.751 463.121, 2364.088 497.200 C 2361.147 508.772, 2360.739 515.543, 2362.416 525 C 2364.565 537.117, 2370.271 548.174, 2379.261 557.638 C 2395.628 574.868, 2413.203 584.609, 2451.397 597.620 C 2495.178 612.533, 2510.652 622.020, 2518.206 638.580 C 2520.025 642.566, 2520.454 645.303, 2520.465 653 C 2520.477 661.225, 2520.120 663.270, 2517.802 668.236 C 2510.080 684.775, 2490.090 694.759, 2460.165 697.023 C 2433.542 699.037, 2406.921 693.755, 2379.052 680.930 L 2368.604 676.122 2366.991 678.811 C 2364.309 683.282, 2349 712.773, 2349 713.468 C 2349 714.444, 2366.897 722.552, 2376.790 726.059 C 2387.239 729.763, 2406.126 734.321, 2418.500 736.125 C 2431.632 738.040, 2466.953 737.730, 2479 735.595 C 2514.096 729.373, 2538.583 716.878, 2554.685 696.974 C 2565.598 683.485, 2570.958 668.006, 2570.985 649.910 C 2571.031 617.635, 2554.074 594.297, 2517.357 576.105 C 2507.607 571.274, 2496.650 567.083, 2467.500 557.033 C 2459.250 554.188, 2446.940 549.142, 2440.145 545.819 C 2418.692 535.328, 2411.067 525.286, 2412.228 509.055 C 2413.377 493.002, 2425.425 480.530, 2445.267 474.855 C 2452.618 472.752, 2455.481 472.505, 2472 472.548 C 2485.801 472.584, 2492.607 473.047, 2498.796 474.373 C 2512.819 477.377, 2525.124 482.103, 2535.290 488.387 C 2539.409 490.934, 2540.268 491.149, 2541.425 489.924 C 2542.165 489.141, 2547.356 480.897, 2552.960 471.605 C 2560.804 458.602, 2562.845 454.504, 2561.825 453.814 C 2554.279 448.705, 2531.677 439.754, 2519.118 436.900 C 2502.279 433.074, 2473.941 431.288, 2457 432.986 M 2627.247 584.750 L 2627.500 730.500 2633 730.836 C 2636.025 731.021, 2646.713 730.860, 2656.750 730.478 L 2675 729.783 2675 584.392 L 2675 439 2650.997 439 L 2626.993 439 2627.247 584.750 M 1755 472.955 C 1725.871 476.091, 1696.724 489.567, 1677.507 508.783 C 1662.167 524.124, 1651.359 545.532, 1648.417 566.410 C 1647.777 570.948, 1647.868 571.264, 1649.612 570.591 C 1653.398 569.129, 1672.111 564.080, 1677.729 563.004 C 1691.728 560.323, 1701.226 559.035, 1715.685 557.858 C 1729.179 556.759, 1734.263 556.825, 1755.332 558.377 C 1781.708 560.319, 1788.773 561.057, 1818.500 564.975 C 1850.076 569.137, 1873.288 570.048, 1884.804 567.578 C 1888.271 566.834, 1891.366 565.967, 1891.682 565.651 C 1892.579 564.754, 1890.216 556.364, 1886.288 546.500 C 1875.946 520.533, 1855.663 497.885, 1832.171 486.074 C 1823.245 481.586, 1807.081 476.385, 1796.500 474.597 C 1785.257 472.696, 1764.888 471.891, 1755 472.955 M 1372 473.615 C 1356.520 476.461, 1351.275 477.704, 1344 480.252 C 1300.538 495.472, 1271.392 531.176, 1266.007 575.794 C 1260.843 618.572, 1288.073 664.004, 1331 684.237 C 1358.946 697.408, 1394.735 700.473, 1427.108 692.468 C 1450.430 686.701, 1468.765 676.351, 1484.095 660.298 C 1497.443 646.323, 1505.509 632.114, 1510.736 613.370 C 1513.278 604.254, 1513.486 602.124, 1513.464 585.500 C 1513.441 569.034, 1513.208 566.662, 1510.720 557.662 C 1500.625 521.141, 1473.217 493.044, 1435.008 480.044 C 1421.215 475.351, 1411.365 473.832, 1392.500 473.485 C 1382.600 473.304, 1373.375 473.362, 1372 473.615 M 2124.908 474.525 C 2098.906 478.915, 2076.965 489.540, 2059.348 506.274 C 2042.702 522.087, 2031.789 541.225, 2026.296 564.239 C 2023.690 575.158, 2023.958 597.795, 2026.825 608.869 C 2041.129 664.132, 2092.673 699.493, 2154.872 696.713 C 2177.289 695.711, 2194.189 691.673, 2211.500 683.183 C 2267.324 655.802, 2289.084 589.517, 2260.237 534.722 C 2243.346 502.637, 2211.266 481.195, 2170.036 474.435 C 2159.590 472.722, 2135.303 472.771, 2124.908 474.525 M 252 919.892 C 252 920.243, 257.625 926.142, 264.500 933 C 271.375 939.858, 277 945.197, 277 944.862 C 277 944.528, 271.375 938.630, 264.500 931.755 C 257.625 924.880, 252 919.542, 252 919.892" stroke="none" fill="#7c8897" fill-rule="evenodd"/></svg>