<svg xmlns="http://www.w3.org/2000/svg" width="3071" height="856" viewBox="0 0 3071 856" version="1.1"><path d="M 191 291.290 C 191 365.291, 190.941 364.481, 197.180 376.186 C 202.897 386.912, 217.150 400.340, 233.145 410.067 L 238.789 413.500 229.619 423 C 208.786 444.582, 197.099 459.774, 193.092 470.484 C 191.045 475.954, 191 477.535, 191 543.538 L 191 611 253.750 610.980 C 289.372 610.969, 319.433 610.536, 323.284 609.980 C 332.386 608.663, 341.234 605.586, 348.500 601.211 C 353.839 597.995, 359.419 592.980, 384.064 569.245 L 390.627 562.923 396.064 572.212 C 403.950 585.685, 416.637 598.255, 428 603.850 C 442.288 610.887, 443.666 611, 515.088 611 L 578 611 578 543.684 C 578 500.249, 577.621 474.262, 576.930 470.434 C 575.015 459.811, 569.655 450.575, 559.539 440.472 C 554.568 435.506, 546.815 428.981, 542.310 425.972 L 534.121 420.500 548.452 406.500 C 563.721 391.584, 570.028 383.147, 574.790 371.263 L 577.500 364.500 577.782 294.223 L 578.064 223.946 509.782 224.223 L 441.500 224.500 436.061 226.955 C 426.934 231.073, 407.440 246.725, 388.391 265.229 L 382.281 271.164 376.788 263.325 C 363.050 243.719, 354.717 235.336, 343.269 229.605 C 332.276 224.101, 331.210 224.031, 258.250 224.015 L 191 224 191 291.290 M 1360.667 226.667 C 1359.803 227.531, 1359.797 514.784, 1360.660 569.681 L 1361.321 611.690 1389.692 612.374 C 1405.297 612.751, 1425.250 612.751, 1434.032 612.376 L 1450 611.693 1450.005 513.597 C 1450.008 459.643, 1450.300 411.125, 1450.654 405.777 L 1451.298 396.054 1500.399 444.378 C 1602.043 544.412, 1669.599 610.244, 1672.500 612.087 C 1674.861 613.586, 1677.365 613.993, 1684.250 613.996 L 1693 614 1693 421 L 1693 228 1648.505 228 L 1604.009 228 1603.755 330.941 L 1603.500 433.883 1590.500 421.778 C 1583.350 415.120, 1534.159 368.909, 1481.186 319.087 C 1428.213 269.264, 1383.663 227.958, 1382.186 227.295 C 1379.366 226.030, 1361.816 225.518, 1360.667 226.667 M 2479 419 L 2479 612 2523.500 612 L 2568 612 2568 503.255 L 2568 394.509 2607.250 433.567 C 2628.838 455.049, 2666.075 491.694, 2690 515.001 C 2713.925 538.308, 2745.875 569.646, 2761 584.641 C 2776.125 599.637, 2789.767 612.377, 2791.315 612.953 C 2792.863 613.529, 2797.632 614, 2801.911 614 L 2809.693 614 2810.346 601.843 C 2810.706 595.157, 2811 508.307, 2811 408.843 L 2811 228 2766.505 228 L 2722.009 228 2721.755 331.367 L 2721.500 434.733 2694 408.685 C 2655.298 372.026, 2507.431 233.170, 2502.921 229.250 C 2499.234 226.045, 2499.042 226, 2489.091 226 L 2479 226 2479 419 M 687 265.500 L 687 303 763.500 303 C 805.575 303, 840 303.194, 840 303.431 C 840 303.668, 829.715 322.456, 817.144 345.181 C 804.573 367.906, 769.758 431.050, 739.776 485.500 C 709.795 539.950, 682.055 590.306, 678.132 597.403 C 674.210 604.500, 671 610.687, 671 611.153 C 671 611.619, 674.487 612.016, 678.750 612.035 C 683.013 612.054, 728.800 612.270, 780.500 612.514 C 832.200 612.759, 897.112 612.675, 924.750 612.327 L 975 611.694 975 573.847 L 975 536 954.750 535.785 C 943.612 535.667, 905.851 535.555, 870.835 535.535 C 835.819 535.516, 806.899 535.230, 806.568 534.900 C 806.237 534.569, 812.932 521.883, 821.446 506.709 C 850.187 455.483, 965.698 246.567, 969.866 238.272 C 972.139 233.747, 974 229.584, 974 229.022 C 974 228.331, 927.577 228, 830.500 228 L 687 228 687 265.500 M 1042 420.250 L 1042 612.500 1150.750 612.427 C 1210.563 612.386, 1264.563 612.274, 1270.750 612.177 L 1282 612 1282 572.500 L 1282 533 1206.500 533 L 1131 533 1131 492.500 L 1131 452 1198 452 L 1265 452 1265 414.500 L 1265 377 1198 377 L 1131 377 1131 340 L 1131 303 1204 303 L 1277 303 1277 265.500 L 1277 228 1159.500 228 L 1042 228 1042 420.250 M 2163 420.500 L 2163 613 2255.250 612.998 C 2305.988 612.997, 2359.988 612.700, 2375.250 612.337 L 2403 611.678 2403 572.339 L 2403 533 2327.500 533 L 2252 533 2252 492.500 L 2252 452 2319 452 L 2386 452 2386 414.500 L 2386 377 2319 377 L 2252 377 2252 340 L 2252 303 2325 303 L 2398 303 2398 265.500 L 2398 228 2280.500 228 L 2163 228 2163 420.500 M 1772 420.345 L 1772 611.689 1815.438 612.402 C 1871.983 613.330, 1935.878 612.374, 1950.500 610.381 C 1985.279 605.642, 2017.186 591.868, 2043 570.450 C 2077.511 541.815, 2100.523 497.469, 2107.062 447 C 2108.818 433.448, 2108.572 406.855, 2106.558 392.550 C 2093.999 303.344, 2033.299 241.826, 1946.699 230.538 C 1936.916 229.263, 1920.965 229, 1853.449 229 L 1772 229 1772 420.345 M 1875.750 306.678 L 1861 307.053 1861.001 420.777 L 1861.002 534.500 1886.933 534.823 C 1932.096 535.386, 1951.713 531.786, 1970.571 519.474 C 1978.448 514.331, 1993.586 499.097, 1998.865 491 C 2012.282 470.421, 2019 446.913, 2019 420.545 C 2019 385.499, 2007.787 356.631, 1985.562 334.460 C 1970.988 319.922, 1955.929 311.977, 1936.222 308.431 C 1926.963 306.765, 1901.418 306.024, 1875.750 306.678" stroke="none" fill="#8b9ba3" fill-rule="evenodd"/></svg>