<svg xmlns="http://www.w3.org/2000/svg" width="3300" height="570" viewBox="0 0 3300 570" version="1.1"><path d="M 1033 114.465 L 1033 148.952 1016.250 149.226 L 999.500 149.500 999.500 183 L 999.500 216.500 1016.250 216.774 L 1033 217.048 1033.026 285.774 C 1033.040 323.573, 1033.474 358.775, 1033.989 364 C 1037.715 401.753, 1055.042 422.536, 1088.592 429.494 C 1115.621 435.099, 1148.457 430.858, 1171.217 418.822 L 1177.500 415.500 1177.763 382.250 C 1177.943 359.593, 1177.693 349, 1176.980 349 C 1176.405 349, 1173.772 350.095, 1171.130 351.434 C 1159.046 357.558, 1140.949 360.958, 1131.183 358.939 C 1124.008 357.457, 1120.232 354.788, 1117.954 349.592 C 1115.683 344.409, 1115.789 348.162, 1115.903 277.250 L 1116 217 1147.393 217 C 1175.097 217, 1178.857 216.814, 1179.393 215.418 C 1180.185 213.353, 1180.185 152.647, 1179.393 150.582 C 1178.857 149.186, 1175.097 149, 1147.393 149 L 1116 149 1115.875 116 C 1115.806 97.850, 1115.694 82.438, 1115.625 81.750 C 1115.528 80.777, 1106.363 80.442, 1074.250 80.239 L 1033 79.978 1033 114.465 M 302 145.476 C 282.360 148.089, 262.100 154.800, 246.500 163.859 C 175.666 204.994, 154.553 300.017, 200.734 369.844 C 207.740 380.438, 221.623 394.987, 232.811 403.462 C 241.695 410.191, 260.754 420.257, 271.500 423.895 C 286.718 429.047, 306.734 432.206, 322.372 431.924 C 355.697 431.323, 382.385 423.380, 405.488 407.187 C 413.373 401.659, 435 381.562, 435 379.761 C 435 378.426, 387.747 330, 386.444 330 C 385.841 330, 384.258 331.188, 382.924 332.641 C 378.725 337.214, 366.544 346.524, 359.894 350.241 C 347.067 357.411, 330.187 360.856, 316.934 359.009 C 289.110 355.131, 271.214 339.701, 261.829 311.500 C 259.767 305.303, 259.500 302.608, 259.500 288 C 259.500 273.367, 259.765 270.708, 261.838 264.500 C 267.229 248.361, 275.415 236.349, 286.261 228.665 C 299.605 219.209, 309.266 216.423, 325.772 217.269 C 345.852 218.299, 357.698 223.873, 376.383 241.082 L 383.267 247.422 389.383 240.922 C 392.748 237.347, 404.198 225.109, 414.829 213.726 L 434.159 193.031 430.629 188.723 C 421.439 177.508, 400.034 162.145, 384.593 155.681 C 375.237 151.764, 359.441 147.566, 348.177 146.003 C 335.355 144.223, 313.306 143.972, 302 145.476 M 552 145.551 C 501.081 152.762, 457.895 192.957, 442.476 247.490 C 438.311 262.221, 437.515 268.792, 437.507 288.500 C 437.500 307.648, 438.196 313.729, 442.108 328.716 C 452.419 368.215, 481.249 403.733, 516.111 419.887 C 549.724 435.461, 582.053 435.916, 611.500 421.228 C 621.435 416.273, 626.308 412.719, 636.093 403.295 C 640.818 398.743, 644.981 395.314, 645.343 395.676 C 645.704 396.037, 646 403.013, 646 411.178 L 646 426.022 686.750 425.761 L 727.500 425.500 727.500 287.500 L 727.500 149.500 687 149.500 L 646.500 149.500 646.240 164 C 646.096 171.975, 645.775 179.057, 645.526 179.738 C 645.259 180.465, 642.067 177.971, 637.786 173.692 C 627.485 163.396, 616.928 156.522, 602.770 150.891 C 594.869 147.749, 588.540 146.276, 577.789 145.080 C 566.141 143.784, 564.231 143.819, 552 145.551 M 853.500 145.488 C 808.135 151.920, 772.989 176.325, 763.621 207.899 C 758.012 226.805, 760.157 248.958, 769.296 266.500 C 773.434 274.443, 787.265 288.258, 797.250 294.423 C 810.543 302.629, 828.673 309.603, 862.500 319.524 C 894.396 328.878, 904 334.923, 904 345.646 C 904 353.451, 898.260 357.320, 884.133 359.037 C 860.168 361.951, 826.181 352.375, 799.308 335.137 C 794.904 332.312, 790.999 330, 790.631 330 C 789.500 330, 751.925 387.274, 752.303 388.422 C 752.916 390.285, 774.860 404.743, 784.895 409.895 C 823.591 429.762, 868.380 436.648, 904.892 428.344 C 943.834 419.487, 974.273 394.546, 984.031 363.500 C 986.636 355.211, 987.095 339.103, 985 329.500 C 979.334 303.537, 959.367 284.262, 923.258 269.900 C 914.325 266.347, 914.764 266.495, 885 256.983 C 851.994 246.434, 842.982 241.011, 843.015 231.715 C 843.035 225.884, 844.805 222.929, 850.027 220.004 C 854.279 217.624, 855.265 217.503, 870 217.554 C 883.789 217.603, 886.595 217.915, 895.418 220.381 C 908.326 223.990, 918.088 227.892, 930.918 234.573 C 936.648 237.556, 941.473 239.860, 941.641 239.693 C 942.454 238.879, 975 178.908, 975 178.222 C 975 176.785, 963.685 169.985, 951.140 163.883 C 930.154 153.675, 907.813 147.363, 884.576 145.075 C 871.203 143.759, 865.129 143.840, 853.500 145.488 M 1322.500 145.530 C 1310.886 147.017, 1305.008 148.191, 1296 150.824 C 1245.792 165.500, 1207.533 205.218, 1195.649 255 C 1190.112 278.195, 1190.813 306.030, 1197.524 329.500 C 1200.890 341.275, 1210.230 360.298, 1217.988 371.181 C 1230.813 389.173, 1253.012 407.569, 1273.197 416.932 C 1310.704 434.330, 1353.260 436.655, 1392.782 423.465 C 1416.629 415.507, 1437.501 402.124, 1454.026 384.196 C 1494.458 340.332, 1503.219 276.556, 1476.236 222.532 C 1449.362 168.727, 1386.650 137.316, 1322.500 145.530 M 1660.160 145.557 C 1642.503 148.780, 1629.553 155.398, 1617.447 167.381 C 1612.936 171.846, 1607.052 178.875, 1604.372 183 L 1599.500 190.500 1599 170 L 1598.500 149.500 1557.500 149.500 L 1516.500 149.500 1516.500 287.500 L 1516.500 425.500 1557.500 425.500 L 1598.500 425.500 1599.096 360.500 C 1599.724 292.017, 1599.748 291.651, 1604.565 277.460 C 1611.464 257.129, 1622.731 243.532, 1639.266 235.581 C 1649.839 230.497, 1656.935 228.859, 1671.500 228.141 L 1684.500 227.500 1684.761 185.750 L 1685.022 144 1676.261 144.108 C 1671.442 144.168, 1664.197 144.819, 1660.160 145.557 M 1809.500 145.488 C 1756.953 153.755, 1712.291 196.872, 1699.173 252 C 1698.584 254.475, 1697.519 258.975, 1696.806 262 C 1695.951 265.628, 1695.525 274.646, 1695.554 288.500 C 1695.592 306.299, 1695.935 311.053, 1697.806 319.688 C 1709.834 375.215, 1750.077 418.091, 1800.500 429.100 C 1837.119 437.095, 1870.799 427.277, 1896.422 401.136 C 1899.679 397.813, 1902.717 395.325, 1903.172 395.606 C 1903.627 395.888, 1904 402.847, 1904 411.070 L 1904 426.022 1944.750 425.761 L 1985.500 425.500 1985.500 287.500 L 1985.500 149.500 1945 149.500 L 1904.500 149.500 1904 165 C 1903.725 173.525, 1903.131 180.415, 1902.680 180.311 C 1902.229 180.208, 1900.066 178.084, 1897.873 175.593 C 1892.577 169.577, 1879.374 159.717, 1870.898 155.448 C 1851.356 145.607, 1830.375 142.204, 1809.500 145.488 M 2166 145.478 C 2145.464 148.520, 2127.103 158.112, 2111.531 173.935 C 2108.249 177.271, 2105.223 180, 2104.807 180 C 2104.392 180, 2103.928 173.137, 2103.776 164.750 L 2103.500 149.500 2063 149.500 L 2022.500 149.500 2022.500 287.500 L 2022.500 425.500 2063 425.500 L 2103.500 425.500 2104 339.500 L 2104.500 253.500 2107.282 245.634 C 2111.997 232.301, 2119.215 224.061, 2129.921 219.790 C 2134.644 217.905, 2137.418 217.563, 2148 217.561 C 2159.738 217.558, 2160.862 217.734, 2166.438 220.441 C 2176.925 225.532, 2183.710 234.226, 2187.735 247.733 C 2189.282 252.926, 2189.506 262.065, 2189.977 339.500 L 2190.500 425.500 2231 425.500 L 2271.500 425.500 2272.067 340.500 C 2272.665 250.827, 2272.668 250.773, 2277.484 240.255 C 2285.048 223.732, 2298.636 216.234, 2319.216 217.225 C 2327.573 217.627, 2329.840 218.139, 2335.414 220.883 C 2345.561 225.879, 2351.580 233.839, 2355.754 247.786 C 2357.291 252.921, 2357.517 262.207, 2357.982 339.500 L 2358.500 425.500 2399 425.500 L 2439.500 425.500 2439.806 331 C 2440.018 265.657, 2439.767 233.723, 2438.995 227.500 C 2437.230 213.289, 2434.203 202.299, 2429.079 191.500 C 2415.651 163.204, 2392.801 148.376, 2357.133 144.810 C 2347.604 143.857, 2342.965 143.884, 2333.866 144.944 C 2307.143 148.058, 2286.246 157.753, 2266.560 176.172 L 2258.085 184.101 2254.983 179.800 C 2240.407 159.599, 2220.131 148.212, 2193.026 145.003 C 2182.558 143.764, 2176.903 143.863, 2166 145.478 M 2576.500 145.560 C 2537.159 151.362, 2501.115 177.681, 2480.294 215.810 C 2459.416 254.043, 2456.198 303.721, 2472.018 343.546 C 2480.045 363.753, 2490.068 379.092, 2504.989 394.005 C 2529.114 418.117, 2557.385 430.683, 2589.500 431.568 C 2617.874 432.350, 2642.126 422.644, 2661.975 402.563 C 2666.086 398.403, 2669.799 395, 2670.225 395 C 2670.651 395, 2671 401.975, 2671 410.500 L 2671 426 2712.004 426 L 2753.007 426 2752.754 287.750 L 2752.500 149.500 2711.750 149.239 L 2671 148.978 2671 164.989 C 2671 173.795, 2670.826 181, 2670.613 181 C 2670.400 181, 2666.912 177.705, 2662.863 173.678 C 2647.192 158.092, 2628.448 148.659, 2606.687 145.405 C 2595.619 143.750, 2588.526 143.787, 2576.500 145.560 M 568 218.495 C 544.617 223.768, 526.609 243.089, 520.926 269 C 518.684 279.220, 519.148 299.704, 521.839 309.309 C 529.583 336.955, 549.507 355.020, 576.523 358.893 C 596.081 361.697, 614.994 355.294, 629.044 341.114 C 637.649 332.430, 642.659 323.746, 646.158 311.455 C 649.405 300.048, 649.425 278.018, 646.198 266.691 C 639.519 243.243, 625.166 227.647, 603.022 219.772 C 595.591 217.129, 577.055 216.454, 568 218.495 M 1328.500 217.581 C 1319.611 219.731, 1316.577 220.770, 1310 223.914 C 1298.860 229.240, 1287.662 240.585, 1282.056 252.223 C 1267.247 282.971, 1273.748 321.439, 1297.308 342.471 C 1323.329 365.699, 1364.947 365.009, 1389.095 340.950 C 1396.595 333.477, 1402.110 324.312, 1405.812 313.167 C 1408.099 306.285, 1408.367 303.861, 1408.430 289.500 C 1408.509 271.407, 1407.067 264.763, 1400.183 251.500 C 1395.516 242.509, 1382.980 229.779, 1374.275 225.191 C 1362.795 219.139, 1357.698 217.859, 1343.500 217.462 C 1336.350 217.261, 1329.600 217.315, 1328.500 217.581 M 1826.225 218.457 C 1802.570 223.838, 1784.625 243.014, 1778.926 269 C 1776.685 279.214, 1777.148 299.704, 1779.836 309.299 C 1791.708 351.680, 1834.517 371.426, 1872.719 352.142 C 1888.348 344.252, 1900.720 326.996, 1905.082 307 C 1906.965 298.368, 1906.740 276.367, 1904.694 269 C 1897.581 243.397, 1882.401 226.496, 1860.086 219.334 C 1853.443 217.202, 1833.961 216.697, 1826.225 218.457 M 2595 217.946 C 2582.781 220.222, 2567.769 229.315, 2559.916 239.197 C 2540.132 264.093, 2538.946 305.126, 2557.241 331.831 C 2570.644 351.397, 2595.089 362.252, 2618.250 358.924 C 2632.880 356.822, 2642.575 352.205, 2652.926 342.414 C 2666.817 329.274, 2673.999 310.835, 2674 288.315 C 2674 255.682, 2655.532 228.437, 2627.280 219.392 C 2621.722 217.613, 2601.622 216.712, 2595 217.946 M 2886 220.031 C 2884.625 220.487, 2881.475 221.439, 2879 222.146 C 2869.291 224.920, 2858.229 231.913, 2850.220 240.340 C 2844.888 245.949, 2837 257.849, 2837 260.282 C 2837 261.007, 2836.628 262.028, 2836.174 262.550 C 2835.329 263.521, 2834.056 267.808, 2832.101 276.264 C 2829.758 286.400, 2831.465 302.801, 2835.975 313.500 C 2836.439 314.600, 2837.074 316.175, 2837.387 317 C 2840.206 324.448, 2852.030 338.860, 2859.583 344.057 C 2865.912 348.412, 2874.870 353, 2877.043 353 C 2878.054 353, 2879.129 353.400, 2879.432 353.890 C 2879.734 354.379, 2881.673 355.124, 2883.741 355.546 C 2890.186 356.860, 3076.906 357.251, 3081.500 355.960 C 3083.700 355.341, 3087.300 354.325, 3089.500 353.702 C 3099.229 350.945, 3108.224 345.077, 3117.691 335.310 C 3125.002 327.767, 3131.317 316.833, 3133.753 307.500 C 3138.364 289.835, 3138.218 283.437, 3132.804 266 C 3128.850 253.268, 3122.137 243.485, 3111.087 234.352 C 3104.860 229.206, 3093.672 223, 3090.622 223 C 3089.795 223, 3088.871 222.600, 3088.568 222.110 C 3088.266 221.621, 3086.327 220.876, 3084.259 220.454 C 3079.105 219.403, 2889.118 218.997, 2886 220.031" stroke="none" fill="#8c94a4" fill-rule="evenodd"/></svg>