<svg xmlns="http://www.w3.org/2000/svg" width="682" height="151" viewBox="0 0 682 151" version="1.1"><path d="M 165.200 7.200 C 163.491 8.909, 163.716 13.573, 165.598 15.455 L 167.195 17.052 181.811 16.776 L 196.426 16.500 197.904 13.865 L 199.381 11.230 197.667 8.615 L 195.954 6 181.177 6 L 166.400 6 165.200 7.200 M 85.250 24.928 C 84.287 25.989, 82.886 27.600, 82.136 28.508 L 80.772 30.160 56.486 29.874 L 32.201 29.588 30.600 30.917 C 26.137 34.621, 29.914 40.677, 37.002 41.180 L 41.500 41.500 41.796 84 L 42.091 126.500 40.987 130.312 L 39.883 134.124 38.226 133.805 C 37.316 133.630, 35.583 131.914, 34.377 129.993 C 33.170 128.072, 31.258 125.487, 30.127 124.250 L 28.071 122 23.459 122 L 18.846 122 15.923 124.923 L 13 127.846 13 130.973 C 13 139.980, 22.887 145.747, 33.736 143.068 L 38.500 141.891 52.500 132.747 C 68.787 122.109, 71.751 119.658, 73.623 115.282 L 75 112.064 75 78.114 C 75 59.441, 75.273 43.452, 75.607 42.582 L 76.214 41 79.640 41 L 83.067 41 86.567 37.500 L 90.067 34 95.599 34 C 98.642 34, 102.002 34.466, 103.066 35.035 L 105 36.070 105 78.464 L 105 120.857 106.571 122.429 C 107.436 123.293, 108.726 124, 109.440 124 C 111.141 124, 134.132 109.363, 135.750 107.250 L 137 105.618 137 72 L 137 38.382 138.250 36.713 L 139.500 35.044 150.500 34.772 L 161.500 34.500 161.800 28.750 L 162.100 23 124.550 23 L 87 23 85.250 24.928 M 165 62.929 L 165 102.857 166.571 104.429 C 168.977 106.834, 169.654 106.568, 182.972 97.978 C 198.551 87.930, 196.967 92.760, 196.985 55.250 L 197 23 181 23 L 165 23 165 62.929 M 260.038 69.204 L 253.792 84.500 250.896 87.073 C 246.847 90.670, 247.149 91, 254.500 91 C 259.334 91, 264.818 89.078, 260.250 88.985 C 259.837 88.976, 258.901 88.589, 258.168 88.125 L 256.836 87.280 258.076 83.140 L 259.317 79 265.500 79 L 271.683 79 272.924 83.140 L 274.164 87.280 272.832 88.125 C 272.099 88.589, 271.163 88.976, 270.750 88.985 C 270.337 88.993, 270 89.450, 270 90 L 270 91 286.500 91 L 303 91 303 89.975 C 303 89.412, 301.875 88.523, 300.500 88 L 298 87.050 298 81.025 L 298 75 302.750 74.996 L 307.500 74.993 310.655 73.069 L 313.809 71.145 314.484 68.073 C 314.855 66.383, 314.860 63.640, 314.495 61.977 L 313.831 58.954 309.955 56.977 L 306.080 55 296.040 55 L 286 55 286 56.500 C 286 57.325, 286.852 58, 287.893 58 C 290.819 58, 292.837 82.664, 290.235 86.615 C 286.358 92.499, 282.836 88.626, 275.577 70.500 C 271.901 61.319, 268.555 54.374, 267.727 54.204 L 266.284 53.908 260.038 69.204 M 321.502 70.069 L 314.719 86.138 312.360 87.684 C 308.555 90.177, 309.582 91, 316.500 91 C 322.832 91, 325.030 89.779, 321 88.500 C 318.678 87.763, 318.561 86.856, 320.201 82.321 L 321.402 79 327.252 79 L 333.102 79 334.551 82.468 C 336.451 87.016, 336.385 87.743, 334 88.500 C 328.816 90.145, 333.088 91, 346.500 91 L 361 91 361 89.975 C 361 89.412, 359.875 88.523, 358.500 88 L 356 87.050 356 76.025 C 356 69.961, 356.176 65, 356.391 65 C 356.606 65, 361.663 71.075, 367.629 78.500 L 378.476 92 380.238 92 L 382 92 382 75.406 L 382 58.813 384 58.290 C 385.100 58.002, 386 57.144, 386 56.383 L 386 55 380 55 L 374 55 374 56.383 C 374 57.144, 374.900 58.002, 376 58.290 L 378 58.813 377.967 69.156 L 377.933 79.500 376.217 77.473 C 375.273 76.358, 370.765 70.846, 366.201 65.223 L 357.902 55 352.451 55 L 347 55 347 56.430 C 347 57.217, 348.012 58.005, 349.250 58.180 L 351.500 58.500 351.776 73.127 L 352.052 87.753 349.798 88.342 C 346.624 89.173, 343.734 86.935, 342.110 82.390 C 330.644 50.291, 330.010 49.912, 321.502 70.069 M 451.500 55.890 C 430.919 65.389, 439.336 93.789, 462.121 91.723 L 467.950 91.194 471.592 88.943 L 475.235 86.692 477.608 81.596 C 485.474 64.703, 468.537 48.027, 451.500 55.890 M 525.957 69.605 L 519.536 85.283 516.768 87.330 C 512.666 90.362, 513.314 91, 520.500 91 C 526.832 91, 529.030 89.779, 525 88.500 C 522.615 87.743, 522.549 87.016, 524.449 82.468 L 525.898 79 531.748 79 L 537.598 79 538.799 82.321 C 540.439 86.856, 540.322 87.763, 538 88.500 C 533.591 89.899, 536.453 91, 544.500 91 L 553 91 553 89.968 C 553 89.400, 551.987 88.566, 550.750 88.114 L 548.500 87.292 541.897 70.896 C 538.042 61.323, 534.687 54.381, 533.836 54.213 L 532.378 53.926 525.957 69.605 M 563.030 55.529 C 558.427 57.598, 556.177 59.735, 553.894 64.210 L 552 67.920 552 73.492 C 552 80.687, 553.882 85.045, 558.514 88.578 L 562.240 91.421 568.406 91.813 L 574.572 92.206 578.264 90.663 C 580.438 89.755, 582.195 89.507, 582.537 90.060 C 584.058 92.521, 585 90.417, 585 84.559 C 585 76.816, 583.611 75.432, 581.396 80.967 C 575.720 95.155, 560 89.481, 560 73.244 L 560 68.424 562.250 63.962 C 566.927 54.687, 577.331 54.849, 580.906 64.252 C 583.031 69.841, 585.468 67.037, 584.514 60.101 L 583.853 55.294 581.176 55.205 C 579.704 55.155, 575.800 54.857, 572.500 54.542 L 566.500 53.968 563.030 55.529 M 600 55.594 C 594.654 57.910, 591.107 61.901, 589.454 67.460 L 587.956 72.500 588.595 76.777 C 589.324 81.650, 592.206 86.359, 596.327 89.408 L 599.154 91.500 606.924 91.500 L 614.694 91.500 616.347 90.128 L 618 88.755 619.342 89.869 C 621.392 91.570, 622 90.203, 622 83.892 C 622 76.932, 620.512 75.531, 618.425 80.526 C 612.368 95.022, 597 90.099, 597 73.664 C 597 57.962, 610.753 50.754, 617.073 63.143 C 619.845 68.577, 621 67.947, 621 61 L 621 55 619.500 55 C 618.675 55, 618 55.427, 618 55.949 C 618 56.471, 616.439 56.246, 614.532 55.449 C 610.114 53.603, 604.467 53.659, 600 55.594 M 636.459 55.880 C 622.166 62.372, 621.426 83.187, 635.250 89.879 L 639.631 92 645 92 L 650.369 92 654.677 89.914 C 659.794 87.437, 662.483 83.963, 664.173 77.645 L 665.415 73 664.148 68.250 C 661.090 56.780, 647.673 50.786, 636.459 55.880 M 231 56.025 C 231 56.588, 232.125 57.477, 233.500 58 L 236 58.950 236 79.940 L 236 100.930 234.072 101.961 C 231.831 103.161, 229 102.354, 229 100.515 C 229 98.587, 226.458 96.887, 224.627 97.590 C 223.732 97.933, 223 99.236, 223 100.485 C 223 106.950, 238.558 107.146, 242.227 100.727 L 243.500 98.500 244 78.500 L 244.500 58.500 246.750 58.180 C 247.988 58.005, 249 57.217, 249 56.430 L 249 55 240 55 L 231 55 231 56.025 M 401 59.500 L 401 64 402.481 64 C 403.295 64, 404.234 62.918, 404.566 61.594 C 405.225 58.967, 407.487 58.035, 413.250 58.014 L 417 58 417 72.525 L 417 87.050 414.500 88 C 413.125 88.523, 412 89.412, 412 89.975 L 412 91 420.500 91 L 429 91 429 89.975 C 429 89.412, 427.875 88.523, 426.500 88 L 424 87.050 424 72.525 L 424 58 427.750 58.014 C 433.549 58.035, 435.966 59.018, 436.619 61.619 C 436.948 62.929, 437.843 64, 438.608 64 L 440 64 440 59.500 L 440 55 420.500 55 L 401 55 401 59.500 M 482.499 56.002 C 482.158 56.553, 482.970 57.418, 484.303 57.925 C 489.568 59.927, 489.952 87.421, 484.726 88.194 C 483.588 88.362, 482.471 89.063, 482.245 89.750 L 481.833 91 494.694 91 L 507.555 91 510.027 89.308 C 513.541 86.903, 513.967 86.031, 513.985 81.205 L 514 76.909 511.545 74.455 C 510.195 73.105, 508.416 72, 507.591 72 L 506.091 72 508.545 69.545 C 512.664 65.427, 511.484 59.336, 506.020 56.510 L 503.099 55 493.109 55 C 487.514 55, 482.846 55.441, 482.499 56.002 M 456.500 57.916 C 447.277 61.906, 445.244 78.398, 453.017 86.171 L 455.846 89 459.846 89 L 463.846 89 466.839 86.008 L 469.831 83.015 470.897 78.042 C 473.582 65.523, 465.390 54.071, 456.500 57.916 M 641.030 58.279 C 639.672 58.967, 637.534 61.052, 636.280 62.912 L 634 66.296 634.007 73.398 L 634.013 80.500 635.837 83.266 C 642.574 93.482, 653.501 90.349, 655.898 77.514 C 658.383 64.215, 650.206 53.636, 641.030 58.279 M 298 65 L 298 72 300.845 72 C 304.486 72, 307 69.211, 307 65.171 C 307 61.341, 303.972 58, 300.500 58 L 298 58 298 65 M 495 64.374 L 495 70.747 498.240 70.085 L 501.480 69.422 502.658 67.060 L 503.835 64.697 502.855 62.119 C 501.692 59.059, 500.295 58.036, 497.250 58.015 L 495 58 495 64.374 M 325.323 69.565 L 323.184 75 327.496 75 L 331.808 75 329.816 69.750 C 328.720 66.862, 327.742 64.417, 327.643 64.315 C 327.544 64.213, 326.500 66.575, 325.323 69.565 M 263.654 69.237 C 261.440 75.033, 261.427 75, 265.992 75 L 269.984 75 268.342 70.750 C 265.960 64.587, 265.488 64.435, 263.654 69.237 M 530.040 68.803 C 529.313 70.836, 528.508 73.063, 528.252 73.750 L 527.786 75 531.832 75 L 535.879 75 534.346 70.501 C 532.343 64.624, 531.636 64.345, 530.040 68.803 M 495.201 80.612 L 495.500 87.500 498.844 87.820 L 502.187 88.141 504.094 86.415 L 506 84.690 506 80.967 C 506 76.503, 504.428 75.001, 498.990 74.272 L 494.902 73.724 495.201 80.612" stroke="none" fill="#8c9ca4" fill-rule="evenodd"/></svg>