<svg xmlns="http://www.w3.org/2000/svg" width="3300" height="671" viewBox="0 0 3300 671" version="1.1"><path d="M 796 3.460 C 789.663 5.251, 779.936 7, 776.312 7 C 774.625 7, 771.629 7.675, 769.654 8.500 C 767.680 9.325, 764.530 10, 762.654 10 C 760.779 10, 757.629 10.675, 755.654 11.500 C 753.680 12.325, 750.896 13, 749.469 13 C 748.042 13, 744.540 14.067, 741.687 15.371 C 735.659 18.127, 727.977 21.074, 719.500 23.883 C 712.415 26.230, 685.284 39.205, 681.872 41.879 C 680.567 42.901, 675.932 45.670, 671.570 48.032 C 662.285 53.062, 649.081 61.899, 643.747 66.654 C 641.683 68.494, 639.535 70, 638.975 70 C 638.414 70, 636.053 71.740, 633.728 73.866 C 631.402 75.993, 628.150 78.432, 626.500 79.286 C 622.796 81.205, 593 111.148, 593 112.952 C 593 113.670, 589.251 118.137, 584.669 122.879 C 580.087 127.620, 575.066 133.750, 573.510 136.500 C 571.955 139.250, 569.609 142.850, 568.297 144.500 C 562.415 151.899, 558.553 157.761, 556.477 162.442 C 555.243 165.224, 553.348 168.297, 552.266 169.270 C 549.901 171.397, 532.476 208.933, 529.412 218.500 C 528.707 220.700, 527.158 224.975, 525.969 228 C 524.780 231.025, 523.463 235.075, 523.043 237 C 522.623 238.925, 521.292 244.100, 520.085 248.500 C 518.878 252.900, 517.286 258.750, 516.547 261.500 C 515.808 264.250, 514.648 268.525, 513.970 271 C 513.292 273.475, 512.430 281.350, 512.055 288.500 C 511.679 295.650, 510.838 302.767, 510.186 304.315 C 508.291 308.814, 508.554 361.485, 510.500 367 C 511.419 369.604, 512 374.836, 512 380.504 C 512 386.466, 512.533 391.032, 513.500 393.346 C 514.325 395.320, 515 398.598, 515 400.630 C 515 404.316, 515.974 408.326, 520.569 423.560 C 521.906 427.992, 523 432.590, 523 433.776 C 523 434.962, 523.647 437.410, 524.437 439.216 C 525.228 441.022, 526.974 444.975, 528.318 448 C 529.662 451.025, 531.081 454.625, 531.472 456 C 532.326 459.006, 540.171 476.703, 543.440 483 C 544.726 485.475, 546.081 488.931, 546.453 490.681 C 546.824 492.430, 547.770 494.394, 548.554 495.045 C 550.978 497.057, 557.678 507.409, 561.557 515.137 C 563.590 519.186, 566.771 524.189, 568.627 526.253 C 570.482 528.317, 572 530.466, 572 531.028 C 572 531.590, 574.661 534.911, 577.913 538.406 C 581.165 541.902, 584.506 546.053, 585.337 547.631 C 587.136 551.044, 629.108 593, 630.724 593 C 631.339 593, 635.030 595.925, 638.925 599.500 C 642.821 603.075, 646.455 606, 647.001 606 C 647.547 606, 649.683 607.492, 651.747 609.315 C 653.811 611.138, 657.696 613.891, 660.380 615.433 C 663.064 616.975, 666.774 619.264, 668.624 620.520 C 672.259 622.986, 712.575 643, 713.909 643 C 714.354 643, 718.269 644.601, 722.609 646.558 C 726.949 648.515, 731.400 650.509, 732.500 650.990 C 733.600 651.470, 735.850 652.077, 737.500 652.338 C 739.150 652.598, 743.875 653.954, 748 655.349 C 758.260 658.821, 776.758 663, 781.863 663 C 784.174 663, 787.680 663.675, 789.654 664.500 C 791.819 665.404, 796.385 666, 801.154 666 C 805.923 666, 810.490 666.596, 812.654 667.500 C 817.894 669.689, 865.106 669.689, 870.346 667.500 C 872.805 666.472, 877.431 666, 885.034 666 C 891.370 666, 897.037 665.515, 898.243 664.870 C 899.404 664.249, 902.862 663.379, 905.927 662.938 C 914.823 661.657, 932.972 657.368, 939.500 655.004 C 942.800 653.809, 946.850 652.603, 948.500 652.324 C 950.150 652.045, 954.875 650.107, 959 648.018 C 963.125 645.929, 968.075 643.887, 970 643.482 C 974.609 642.510, 1011.781 623.897, 1015.705 620.595 C 1017.385 619.181, 1021.627 616.738, 1025.130 615.166 C 1028.634 613.594, 1032.175 611.487, 1033 610.483 C 1033.825 609.480, 1036.362 607.473, 1038.637 606.025 C 1045.693 601.533, 1053.472 594.361, 1078.916 568.889 C 1108.486 539.287, 1113.810 533.335, 1117.785 525.440 C 1119.464 522.107, 1121.549 518.790, 1122.418 518.068 C 1123.288 517.346, 1124 516.227, 1124 515.581 C 1124 514.522, 1127.194 509.203, 1135.762 495.991 C 1137.370 493.511, 1139.229 489.835, 1139.894 487.821 C 1140.559 485.807, 1141.731 483.638, 1142.500 483 C 1143.269 482.362, 1144.428 480.189, 1145.075 478.170 C 1145.723 476.152, 1146.837 473.825, 1147.550 473 C 1148.264 472.175, 1149.821 468.800, 1151.012 465.500 C 1152.202 462.200, 1155.100 454.550, 1157.451 448.500 C 1159.803 442.450, 1162.263 435.475, 1162.919 433 C 1164.085 428.605, 1164.706 426.184, 1167.023 417 C 1168.790 410.001, 1170.716 402.880, 1172.027 398.500 C 1174.305 390.892, 1175.269 372.353, 1175.251 336.500 C 1175.227 289.702, 1174.353 278.713, 1169.407 263 C 1168.628 260.525, 1167.990 257.600, 1167.989 256.500 C 1167.988 255.400, 1167.315 253.211, 1166.494 251.636 C 1165.672 250.060, 1165 247.753, 1165 246.508 C 1165 245.263, 1164.325 242.629, 1163.500 240.654 C 1162.675 238.680, 1162 236.044, 1162 234.798 C 1162 233.552, 1160.241 228.700, 1158.091 224.016 C 1155.940 219.332, 1152.982 211.675, 1151.516 207 C 1148.809 198.369, 1136.390 173.153, 1133.046 169.500 C 1132.039 168.400, 1129.626 164.317, 1127.684 160.427 C 1125.742 156.536, 1122.589 151.305, 1120.679 148.802 C 1118.768 146.299, 1116.645 143.182, 1115.960 141.875 C 1115.276 140.569, 1112.980 137.598, 1110.858 135.272 C 1108.736 132.947, 1107 130.548, 1107 129.940 C 1107 129.333, 1103.175 124.860, 1098.500 120 C 1093.825 115.140, 1090 110.607, 1090 109.925 C 1090 108.211, 1067.165 85.179, 1063.631 83.328 C 1062.053 82.502, 1057.902 79.165, 1054.406 75.913 C 1050.911 72.661, 1047.590 70, 1047.028 70 C 1046.466 70, 1044.317 68.486, 1042.253 66.636 C 1040.189 64.786, 1037.150 62.527, 1035.500 61.616 C 1033.850 60.705, 1030.475 58.388, 1028 56.467 C 1020.433 50.593, 1014.695 47, 1012.881 47 C 1011.931 47, 1009.881 45.932, 1008.327 44.627 C 1003.831 40.853, 973.642 26.157, 964.671 23.376 C 960.177 21.983, 954.833 19.961, 952.796 18.884 C 947.177 15.911, 938.080 13, 934.409 13 C 932.605 13, 929.863 12.501, 928.315 11.890 C 924.544 10.404, 914.869 8.117, 907.500 6.972 C 904.200 6.459, 898.800 5.265, 895.500 4.319 C 890.286 2.825, 883.672 2.573, 845 2.394 C 811.485 2.239, 799.389 2.502, 796 3.460 M 2739.123 82.667 C 2732.696 86.007, 2731.183 87.351, 2727.373 93.113 L 2723 99.726 2723 111.896 C 2723 122.800, 2723.252 124.557, 2725.418 128.783 C 2728.340 134.486, 2735.965 142.026, 2741.710 144.897 C 2745.262 146.671, 2747.732 147, 2757.500 147 C 2767.271 147, 2769.737 146.671, 2773.290 144.895 C 2779.038 142.022, 2785.674 135.465, 2788.584 129.783 C 2790.737 125.580, 2791 123.777, 2791 113.230 C 2791 102.506, 2790.757 100.905, 2788.416 96.207 C 2785.986 91.332, 2777.957 83, 2775.688 83 C 2775.121 83, 2773.788 82.213, 2772.724 81.250 C 2771.158 79.831, 2768.491 79.437, 2758.646 79.167 L 2746.500 78.835 2739.123 82.667 M 1823 169.500 C 1821.075 170.241, 1816.231 170.882, 1812.235 170.924 C 1803.209 171.018, 1790.600 174.021, 1773 180.266 C 1762.956 183.830, 1736.597 197.531, 1727.754 203.785 C 1716.242 211.925, 1687 243.642, 1687 247.986 C 1687 248.541, 1685.425 250.665, 1683.500 252.706 C 1681.575 254.747, 1680 257.348, 1680 258.487 C 1680 259.625, 1678.400 263.896, 1676.443 267.978 C 1672.056 277.133, 1669.004 286.036, 1668.989 289.718 C 1668.983 291.248, 1668.308 294.709, 1667.489 297.409 C 1665.333 304.515, 1665.342 349.883, 1667.500 356 C 1668.325 358.338, 1669 361.729, 1669 363.536 C 1669 365.342, 1670.350 369.673, 1671.999 373.160 C 1673.649 376.647, 1674.999 380.243, 1674.999 381.151 C 1675 382.059, 1676.121 385.209, 1677.490 388.151 C 1678.860 391.093, 1679.985 394.133, 1679.990 394.906 C 1679.996 395.679, 1681.237 397.910, 1682.750 399.864 C 1684.263 401.818, 1686.400 404.846, 1687.500 406.592 C 1691.885 413.555, 1694.809 417.597, 1696.437 418.948 C 1697.377 419.728, 1698.967 421.971, 1699.971 423.933 C 1701.862 427.631, 1723.088 449, 1724.869 449 C 1725.424 449, 1727.988 450.826, 1730.566 453.057 C 1737.642 459.182, 1762.372 471.102, 1780.112 476.940 C 1788.570 479.723, 1796.617 482.015, 1797.995 482.033 C 1799.373 482.051, 1802.975 482.936, 1806 484 C 1809.789 485.333, 1814.232 485.945, 1820.282 485.967 C 1825.756 485.988, 1830.417 486.565, 1832.654 487.500 C 1837.561 489.550, 1855.439 489.550, 1860.346 487.500 C 1862.532 486.587, 1867.096 486, 1872.018 486 C 1876.972 486, 1881.144 485.460, 1882.800 484.606 C 1884.285 483.839, 1888.200 482.742, 1891.500 482.169 C 1900.727 480.566, 1909.913 478.080, 1913.894 476.106 C 1915.878 475.124, 1920.875 473.279, 1925 472.008 C 1929.125 470.736, 1933.400 468.911, 1934.500 467.953 C 1935.600 466.994, 1941.059 463.936, 1946.630 461.156 C 1952.202 458.376, 1958.867 454.279, 1961.441 452.051 C 1964.015 449.823, 1966.617 448, 1967.222 448 C 1969.018 448, 1993.015 423.801, 1994.989 420 C 1995.988 418.075, 1997.970 415.413, 1999.392 414.085 C 2000.815 412.757, 2002.915 409.157, 2004.057 406.085 C 2005.200 403.013, 2007.075 398.606, 2008.224 396.291 C 2011.829 389.029, 2011.726 389, 1982.236 389 L 1956.716 389 1942.601 402.750 C 1934.731 410.416, 1926.121 417.827, 1923.142 419.500 C 1920.204 421.150, 1915.257 423.947, 1912.150 425.716 C 1909.042 427.485, 1904.025 429.791, 1901 430.840 C 1897.975 431.889, 1893.025 433.765, 1890 435.008 C 1873.529 441.778, 1870.701 442.286, 1847 442.733 C 1825.232 443.144, 1822.220 442.825, 1810.500 438.870 C 1808.850 438.314, 1802.132 436.087, 1795.571 433.922 C 1789.010 431.757, 1782.935 429.364, 1782.071 428.605 C 1781.207 427.846, 1777.800 425.873, 1774.500 424.222 C 1771.200 422.570, 1767.630 420.255, 1766.566 419.077 C 1765.502 417.899, 1763.027 415.982, 1761.066 414.817 C 1756.371 412.028, 1746.240 402.243, 1744.368 398.690 C 1743.553 397.145, 1741.411 394.220, 1739.606 392.190 C 1737.802 390.161, 1733.482 383.137, 1730.006 376.583 L 1723.687 364.666 1726.162 362.537 C 1728.310 360.689, 1734.629 358.385, 1754 352.384 C 1756.475 351.617, 1759.767 350.992, 1761.316 350.995 C 1762.864 350.998, 1765.069 350.498, 1766.216 349.884 C 1770.917 347.369, 1782.636 346.590, 1815.500 346.611 C 1848.082 346.632, 1861.208 347.461, 1867.315 349.883 C 1868.863 350.498, 1873.715 351, 1878.097 351 C 1882.917 351, 1887.483 351.593, 1889.654 352.500 C 1892.233 353.577, 1896.979 354, 1906.496 354 C 1915.720 354, 1921.041 354.456, 1924 355.500 C 1927.089 356.590, 1932.557 357, 1944 357 C 1955.443 357, 1960.911 356.590, 1964 355.500 C 1966.537 354.605, 1971.780 354, 1977 354 C 1982.220 354, 1987.463 353.395, 1990 352.500 C 1992.338 351.675, 1995.611 351, 1997.273 351 C 2003.882 351, 2011.631 347.054, 2017.954 340.469 L 2024 334.173 2024 322.870 C 2024 315.842, 2023.476 310.041, 2022.614 307.533 C 2021.852 305.315, 2020.477 300.125, 2019.560 296 C 2018.643 291.875, 2017.435 286.700, 2016.875 284.500 C 2015.624 279.583, 1999.790 247.979, 1995.859 242.553 C 1994.287 240.382, 1993 238.124, 1993 237.535 C 1993 235.687, 1961.456 204.280, 1957.379 202.069 C 1955.246 200.912, 1951.475 198.416, 1949 196.523 C 1942.421 191.492, 1918.676 179, 1915.691 179 C 1914.282 179, 1911.863 178.500, 1910.315 177.888 C 1902.242 174.700, 1887.536 171.679, 1877 171.045 C 1870.675 170.664, 1864.233 169.823, 1862.685 169.176 C 1858.622 167.479, 1827.591 167.732, 1823 169.500 M 1412.808 171.526 C 1412.257 172.077, 1392.270 177.375, 1384.926 178.917 C 1381.096 179.721, 1352.825 194.139, 1349.500 196.985 C 1348.400 197.926, 1344.800 200.212, 1341.500 202.064 C 1337.620 204.242, 1330.930 210.013, 1322.567 218.397 C 1304.841 236.168, 1300.092 243.484, 1285.527 275.465 C 1282.049 283.102, 1279.029 292.730, 1279.013 296.236 C 1278.998 299.374, 1277.507 306.408, 1275.431 313.134 C 1274.221 317.054, 1274 337.980, 1274 448.813 C 1274 566.611, 1274.159 580.016, 1275.571 581.429 C 1277.921 583.778, 1321.079 583.778, 1323.429 581.429 C 1324.827 580.030, 1325 572.255, 1325 510.897 C 1325 454.316, 1325.240 441.845, 1326.335 441.425 C 1327.901 440.824, 1336.785 446.557, 1342.500 451.856 C 1348.913 457.803, 1354.159 461.547, 1360.721 464.859 C 1364.094 466.562, 1367.117 468.381, 1367.439 468.901 C 1367.760 469.421, 1369.480 470.161, 1371.261 470.546 C 1373.043 470.931, 1376.525 472.260, 1379 473.499 C 1381.475 474.737, 1388.225 477.175, 1394 478.915 C 1399.775 480.655, 1407.284 482.961, 1410.687 484.040 C 1414.090 485.118, 1419.715 486.016, 1423.187 486.035 C 1426.763 486.056, 1430.584 486.691, 1432 487.500 C 1435.660 489.592, 1465.647 489.592, 1470.654 487.500 C 1472.629 486.675, 1477.137 486, 1480.672 486 C 1484.232 486, 1488.310 485.374, 1489.813 484.597 C 1491.305 483.825, 1494.770 482.888, 1497.513 482.515 C 1509.722 480.855, 1543.563 468.188, 1549.500 463.057 C 1550.600 462.106, 1554.200 459.837, 1557.500 458.015 C 1565.729 453.471, 1570.233 449.661, 1585.947 433.947 C 1603.272 416.622, 1605.842 413.390, 1611.842 401.388 C 1614.561 395.950, 1617.944 389.250, 1619.360 386.500 C 1622.925 379.577, 1627.995 364.604, 1629.010 358 C 1629.475 354.975, 1630.338 350.928, 1630.928 349.007 C 1632.620 343.495, 1632.306 314.118, 1630.500 309 C 1629.675 306.662, 1629 302.371, 1629 299.464 C 1629 295.669, 1628.155 292.393, 1626.001 287.840 C 1624.351 284.353, 1623.001 280.282, 1623.001 278.793 C 1623 277.304, 1620.884 272.129, 1618.298 267.293 C 1615.711 262.457, 1612.166 255.575, 1610.419 252 C 1608.672 248.425, 1606.239 244.600, 1605.013 243.500 C 1603.787 242.400, 1601.751 239.475, 1600.488 237 C 1598.220 232.552, 1579.614 214.250, 1575.885 212.797 C 1574.892 212.410, 1572.411 210.247, 1570.372 207.990 C 1568.333 205.733, 1565.059 203.216, 1563.096 202.396 C 1561.133 201.576, 1558.621 200.093, 1557.514 199.100 C 1553.375 195.393, 1527.125 182.718, 1517 179.538 C 1492.292 171.779, 1491.371 171.665, 1450.440 171.292 C 1430.057 171.106, 1413.122 171.211, 1412.808 171.526 M 2195.500 172.746 C 2192.200 173.573, 2186.076 175.319, 2181.890 176.625 C 2177.705 177.931, 2173.499 179, 2172.543 179 C 2170.529 179, 2133.675 197.885, 2127 202.337 C 2121.121 206.259, 2097.398 230.083, 2092.981 236.500 C 2091.089 239.250, 2088.310 244.094, 2086.806 247.264 C 2085.302 250.434, 2082.727 254.709, 2081.084 256.764 C 2078.542 259.942, 2074.999 267.932, 2068.561 285 C 2067.835 286.925, 2066.689 291.200, 2066.014 294.500 C 2065.338 297.800, 2064.310 302.750, 2063.728 305.500 C 2063.025 308.825, 2062.553 355.738, 2062.320 445.500 C 2061.992 571.842, 2062.079 580.580, 2063.676 581.750 C 2064.920 582.661, 2071.390 583, 2087.536 583 C 2107.728 583, 2109.837 582.838, 2111.345 581.171 C 2112.851 579.507, 2113 573.165, 2113 510.640 C 2113 449.656, 2113.173 441.871, 2114.542 441.345 C 2115.550 440.959, 2118.442 442.961, 2122.891 447.127 C 2130.917 454.643, 2136.623 458.834, 2143.563 462.309 C 2146.347 463.703, 2149.167 465.497, 2149.829 466.294 C 2150.925 467.614, 2154.892 469.423, 2171 475.948 C 2183.236 480.905, 2199.268 484.993, 2210 485.893 C 2214.675 486.286, 2219.483 487.145, 2220.684 487.803 C 2224.071 489.659, 2253.750 489.420, 2258.346 487.500 C 2260.320 486.675, 2264.898 486, 2268.518 486 C 2272.300 486, 2276.287 485.386, 2277.893 484.555 C 2279.430 483.761, 2283.075 482.794, 2285.992 482.407 C 2288.910 482.020, 2294.043 480.684, 2297.399 479.439 C 2300.754 478.194, 2306.425 476.082, 2310 474.747 C 2319.445 471.219, 2342.870 459.674, 2347.322 456.352 C 2349.425 454.783, 2353.377 451.587, 2356.106 449.250 C 2358.834 446.913, 2361.545 445, 2362.131 445 C 2363.761 445, 2376.996 431.885, 2378.723 428.558 C 2379.563 426.940, 2382.359 423.340, 2384.938 420.558 C 2390.955 414.065, 2400.412 399.659, 2402.043 394.500 C 2402.739 392.300, 2405.589 386.225, 2408.378 381 C 2411.503 375.145, 2413.787 369.390, 2414.332 366 C 2415.807 356.827, 2416.323 302.291, 2414.994 296 C 2413.188 287.449, 2410.270 278.520, 2407.570 273.281 C 2406.214 270.652, 2404.343 266.293, 2403.411 263.596 C 2402.479 260.899, 2400.229 257.045, 2398.410 255.032 C 2396.591 253.018, 2394.292 249.243, 2393.301 246.642 C 2389.928 237.785, 2358.778 206.441, 2347.884 200.942 C 2344.748 199.358, 2340.583 196.978, 2338.630 195.653 C 2335.137 193.282, 2316.122 183.709, 2308.716 180.592 C 2306.635 179.717, 2303.607 179, 2301.986 179 C 2300.366 179, 2297.344 178.330, 2295.270 177.512 C 2293.197 176.694, 2287.900 175.021, 2283.500 173.795 C 2275.946 171.690, 2273.436 171.556, 2238.500 171.403 C 2208.482 171.272, 2200.368 171.525, 2195.500 172.746 M 2540 171.922 C 2539.175 172.396, 2535.802 173.337, 2532.504 174.014 C 2521.617 176.248, 2511.593 180.037, 2504.933 184.435 C 2501.321 186.821, 2496.596 189.683, 2494.433 190.796 C 2490.262 192.941, 2473.007 210.291, 2469.297 216.068 C 2463.653 224.859, 2460 233.086, 2460 237.007 C 2460 239.239, 2459.325 242.680, 2458.500 244.654 C 2457.589 246.835, 2457 251.400, 2457 256.284 C 2457 260.706, 2457.675 266.726, 2458.500 269.662 C 2459.325 272.598, 2460.698 277.474, 2461.550 280.497 C 2462.519 283.931, 2464.583 287.707, 2467.050 290.558 C 2469.223 293.068, 2471 295.588, 2471 296.158 C 2471 297.791, 2484.172 311.028, 2487.500 312.738 C 2489.150 313.587, 2491.850 315.368, 2493.500 316.698 C 2502.186 323.697, 2513.222 329.741, 2525.500 334.222 C 2529.900 335.828, 2536.425 338.226, 2540 339.550 C 2543.575 340.874, 2547.356 341.967, 2548.403 341.979 C 2549.450 341.991, 2553.050 343.294, 2556.403 344.875 C 2559.756 346.457, 2566.187 348.971, 2570.693 350.463 C 2575.198 351.955, 2585.098 356.233, 2592.693 359.969 C 2608.161 367.578, 2614.738 373.145, 2617.486 380.950 C 2618.348 383.398, 2619.822 386.250, 2620.761 387.289 C 2621.944 388.596, 2622.580 391.381, 2622.828 396.338 C 2623.136 402.497, 2622.755 404.584, 2620.108 411.240 C 2617.485 417.832, 2615.976 419.981, 2609.925 425.740 C 2605.444 430.003, 2601.378 432.938, 2598.914 433.685 C 2596.766 434.337, 2592.869 435.986, 2590.254 437.350 C 2582.640 441.320, 2576.156 443, 2568.448 443 C 2564.490 443, 2559.338 443.675, 2557 444.500 C 2551.603 446.404, 2546.903 446.404, 2542.346 444.500 C 2540.106 443.564, 2535.545 443, 2530.216 443 C 2522.565 443, 2514.679 441.514, 2508.500 438.907 C 2502.147 436.227, 2495.200 434.001, 2493.187 434.001 C 2490.325 434, 2478.494 428.452, 2474.673 425.318 C 2471.359 422.600, 2465.897 422.246, 2463.545 424.598 C 2462.667 425.476, 2460.560 429.189, 2458.864 432.848 C 2457.167 436.506, 2455.215 440.175, 2454.525 441 C 2453.836 441.825, 2451.358 446.217, 2449.019 450.761 C 2443.299 461.871, 2443.787 463.110, 2456.326 469.337 C 2465.672 473.979, 2487.838 481.287, 2496.027 482.426 C 2498.516 482.772, 2501.830 483.718, 2503.391 484.528 C 2505.089 485.409, 2509.007 486, 2513.146 486 C 2517.033 486, 2521.637 486.657, 2523.654 487.500 C 2528.830 489.663, 2565.170 489.663, 2570.346 487.500 C 2572.320 486.675, 2576.898 486, 2580.518 486 C 2584.210 486, 2588.290 485.384, 2589.813 484.597 C 2591.305 483.825, 2594.770 482.890, 2597.513 482.519 C 2603.997 481.641, 2612.466 478.354, 2628.570 470.464 L 2641.640 464.061 2653.366 452.399 C 2659.816 445.986, 2665.920 439.109, 2666.931 437.119 C 2667.942 435.129, 2670.621 428.256, 2672.884 421.848 L 2677 410.195 2676.987 395.848 C 2676.972 379.328, 2675.880 374.673, 2668.655 360.343 C 2664.998 353.089, 2662.585 349.927, 2655.227 342.750 C 2650.294 337.938, 2645.786 334, 2645.210 334 C 2644.635 334, 2641.764 331.944, 2638.832 329.431 C 2635.899 326.917, 2630.286 323.309, 2626.357 321.412 C 2622.429 319.516, 2618.705 317.350, 2618.082 316.599 C 2617.459 315.849, 2613.699 314.245, 2609.725 313.035 C 2605.751 311.825, 2600.475 309.982, 2598 308.938 C 2589.190 305.225, 2582.465 303.001, 2580.044 303.001 C 2578.693 303, 2574.418 301.483, 2570.544 299.628 C 2566.670 297.774, 2561.925 295.698, 2560 295.016 C 2538.655 287.456, 2530.040 282.736, 2521.331 273.830 C 2515.532 267.901, 2513.860 265.462, 2512.581 261.068 C 2510.585 254.210, 2510.589 250.258, 2512.602 243.154 C 2515.578 232.648, 2532.588 218.395, 2545 216.008 C 2547.475 215.532, 2551.300 214.671, 2553.500 214.095 C 2559.882 212.424, 2587.930 212.711, 2593 214.500 C 2595.338 215.325, 2598.618 216, 2600.288 216 C 2601.958 216, 2605.614 216.646, 2608.412 217.435 C 2611.210 218.224, 2615.339 219.345, 2617.586 219.926 C 2619.834 220.507, 2623.659 222.328, 2626.086 223.973 C 2628.514 225.618, 2631.126 226.972, 2631.890 226.982 C 2632.655 226.992, 2635.201 227.959, 2637.549 229.131 C 2640.197 230.454, 2642.705 231.031, 2644.158 230.651 C 2646.521 230.033, 2653.948 219.898, 2656.008 214.479 C 2656.584 212.963, 2658.190 210.374, 2659.576 208.727 C 2663.032 204.620, 2666 198.575, 2666 195.643 C 2666 193.308, 2664.199 191.410, 2656.184 185.296 C 2652.108 182.186, 2645.533 179.885, 2624.146 174.081 L 2612.792 171 2577.146 171.030 C 2557.541 171.047, 2540.825 171.448, 2540 171.922 M 2733.655 177.829 C 2732.131 179.513, 2732 191.378, 2732 328.129 C 2732 442.273, 2732.277 476.877, 2733.200 477.800 C 2734.069 478.669, 2741.237 479, 2759.165 479 C 2782.626 479, 2783.984 478.898, 2784.965 477.066 C 2785.665 475.757, 2786 427.267, 2786 327.221 L 2786 179.310 2784.171 177.655 C 2782.579 176.214, 2779.305 176, 2758.826 176 C 2737.314 176, 2735.169 176.156, 2733.655 177.829 M 1435 214.552 C 1432.525 215.332, 1428.348 215.976, 1425.718 215.985 C 1423.088 215.993, 1419.320 216.675, 1417.346 217.500 C 1415.371 218.325, 1412.580 219, 1411.144 219 C 1409.707 219, 1404.700 220.784, 1400.016 222.965 C 1395.332 225.146, 1389.700 227.385, 1387.500 227.940 C 1380.915 229.600, 1374.124 234.753, 1359.083 249.500 C 1349.457 258.938, 1343.985 265.129, 1342.290 268.500 C 1340.908 271.250, 1338.648 275.003, 1337.269 276.839 C 1334.046 281.132, 1330.283 290.941, 1323.395 313 C 1321.502 319.063, 1321.512 339.653, 1323.410 344.730 C 1324.185 346.803, 1326.945 355.202, 1329.543 363.394 C 1333.171 374.835, 1335.017 379.125, 1337.505 381.894 C 1339.287 383.877, 1342.118 388.200, 1343.797 391.500 C 1348.028 399.818, 1366.146 417.645, 1374.677 421.885 C 1378.075 423.574, 1381.144 425.424, 1381.498 425.997 C 1383.121 428.623, 1405.759 437.674, 1416.500 439.990 C 1418.700 440.464, 1421.767 441.336, 1423.315 441.926 C 1425.052 442.589, 1435.584 442.991, 1450.815 442.976 C 1477.335 442.951, 1478.512 442.787, 1496.965 436.531 C 1501.071 435.139, 1504.796 434, 1505.243 434 C 1506.691 434, 1520.893 426.982, 1521.529 425.953 C 1521.868 425.404, 1524.925 423.574, 1528.323 421.885 C 1537.215 417.465, 1553.992 400.781, 1558.552 391.824 C 1560.421 388.153, 1562.421 384.858, 1562.997 384.502 C 1564.385 383.644, 1569.147 374.101, 1572.228 366 C 1577.642 351.769, 1578 349.467, 1578 328.874 L 1578 309.424 1574.921 300.462 C 1569.504 284.698, 1566.876 278.746, 1563.029 273.540 C 1560.963 270.743, 1558.333 266.613, 1557.185 264.363 C 1556.033 262.105, 1549.683 255.112, 1543.010 248.754 L 1530.922 237.236 1512.962 228.118 C 1502.680 222.898, 1493.771 219, 1492.123 219 C 1490.540 219, 1487.629 218.325, 1485.654 217.500 C 1483.680 216.675, 1479.237 215.995, 1475.782 215.989 C 1472.327 215.983, 1467.291 215.308, 1464.591 214.489 C 1458.323 212.588, 1441.118 212.624, 1435 214.552 M 1823.500 214.660 C 1820.200 215.467, 1815.415 216.774, 1812.866 217.564 C 1810.317 218.354, 1807.289 219, 1806.136 219 C 1804.983 219, 1802.119 219.719, 1799.770 220.597 C 1797.422 221.476, 1793.025 223.119, 1790 224.248 C 1782.911 226.895, 1766.952 235.961, 1766.275 237.726 C 1765.988 238.473, 1763.896 240.011, 1761.627 241.142 C 1755.925 243.983, 1742.367 257.487, 1739.383 263.297 C 1738.027 265.935, 1736.295 268.333, 1735.532 268.626 C 1733.628 269.357, 1727.075 283.584, 1721.863 298.301 C 1718.126 308.854, 1721.219 312.464, 1731.073 309.054 C 1734.360 307.917, 1740.224 306.536, 1744.105 305.985 C 1747.985 305.435, 1751.912 304.592, 1752.830 304.113 C 1753.749 303.634, 1758.447 303.043, 1763.272 302.799 C 1768.096 302.556, 1772.574 301.826, 1773.222 301.178 C 1774.081 300.319, 1783.797 300, 1809.078 300 C 1837.640 300, 1844.389 300.265, 1847.346 301.500 C 1849.805 302.528, 1854.431 303, 1862.034 303 C 1868.779 303, 1873.988 303.470, 1875.316 304.199 C 1876.517 304.859, 1882 305.751, 1887.500 306.182 C 1907.589 307.756, 1915.566 308.709, 1918.636 309.900 C 1920.836 310.753, 1927.857 311.024, 1942.136 310.808 C 1963.636 310.483, 1968.063 309.625, 1968.832 305.635 C 1969.331 303.044, 1962.280 283.682, 1959.207 279.206 C 1957.808 277.168, 1955.936 273.614, 1955.049 271.308 C 1954.161 269.003, 1952.212 265.744, 1950.717 264.067 C 1949.223 262.390, 1948 260.565, 1948 260.012 C 1948 258.237, 1933.988 244.188, 1928.656 240.616 C 1925.820 238.716, 1922.352 235.831, 1920.948 234.204 C 1919.545 232.577, 1916.873 230.911, 1915.011 230.502 C 1913.149 230.094, 1906.694 227.338, 1900.665 224.379 C 1894.637 221.421, 1888.476 219, 1886.974 219 C 1885.473 219, 1882.629 218.325, 1880.654 217.500 C 1878.680 216.675, 1875.362 215.993, 1873.282 215.985 C 1871.202 215.977, 1867.700 215.321, 1865.500 214.529 C 1859.986 212.542, 1831.800 212.631, 1823.500 214.660 M 2223 214.552 C 2220.525 215.332, 2216.250 215.974, 2213.500 215.980 C 2210.750 215.986, 2206.475 216.633, 2204 217.418 C 2201.525 218.203, 2195 220.237, 2189.500 221.936 C 2178.651 225.289, 2165.069 232.158, 2156.748 238.500 C 2151.224 242.710, 2137.701 256.103, 2132.330 262.683 C 2127.448 268.664, 2116.559 290.686, 2114.620 298.503 C 2113.665 302.351, 2112.232 307.525, 2111.437 310 C 2109.480 316.085, 2109.464 341.392, 2111.412 348.412 C 2112.188 351.210, 2113.578 356.650, 2114.500 360.500 C 2115.422 364.350, 2118.684 372.450, 2121.750 378.500 C 2126.919 388.703, 2128.307 390.503, 2140.911 403.347 C 2159.470 422.259, 2169.911 428.920, 2192.500 436.258 C 2214.312 443.344, 2213.002 443.169, 2241 442.737 C 2269.075 442.304, 2271 441.987, 2288 435.012 C 2291.025 433.770, 2295.525 432.067, 2298 431.226 C 2300.475 430.385, 2303.175 429.157, 2304 428.497 C 2304.825 427.837, 2309.217 425.341, 2313.760 422.951 C 2320.352 419.482, 2323.784 416.746, 2330.760 409.397 C 2344.192 395.247, 2350.809 386.168, 2353.946 377.584 C 2354.968 374.788, 2357.002 369.350, 2358.467 365.500 C 2364.698 349.121, 2365.284 345.454, 2364.695 326.500 C 2364.083 306.768, 2363.001 300.960, 2358.115 291.178 C 2356.006 286.955, 2353.481 281.060, 2352.503 278.079 C 2351.494 275.002, 2349.103 270.893, 2346.975 268.579 C 2344.912 266.335, 2342.568 262.925, 2341.767 261 C 2340.100 256.999, 2327.385 244.752, 2322.063 242.022 C 2320.104 241.017, 2317.414 239.031, 2316.086 237.608 C 2313.506 234.844, 2302.876 229.033, 2296.830 227.082 C 2294.811 226.431, 2292.656 225.290, 2292.040 224.548 C 2290.140 222.258, 2271.476 217.101, 2261 215.971 C 2257.425 215.585, 2252.928 214.759, 2251.007 214.135 C 2246.161 212.561, 2228.484 212.824, 2223 214.552" stroke="none" fill="#8c9ba4" fill-rule="evenodd"/></svg>