<svg xmlns="http://www.w3.org/2000/svg" width="624" height="145" viewBox="0 0 624 145" version="1.1"><path d="M 570.248 45.880 C 564.351 47.917, 561.498 50.137, 559.291 54.404 L 557.787 57.313 558.191 63.657 L 558.595 70.001 562.502 74.002 L 566.409 78.003 575.822 81.650 C 580.999 83.656, 586.364 86.269, 587.745 87.457 L 590.256 89.617 589.552 91.835 C 589.165 93.055, 587.757 94.768, 586.424 95.642 L 583.999 97.231 579.173 97.231 C 571.038 97.231, 563.883 91.663, 562.383 84.166 L 561.750 81 559.875 81 L 558 81 558 89.500 L 558 98 556.535 98 C 555.730 98, 554.605 97.130, 554.035 96.066 L 553 94.131 553 74 L 553 53.869 554.035 51.934 L 555.070 50 557.535 50 L 560 50 560 47.500 L 560 45 543.930 45 L 527.861 45 528.180 47.244 L 528.500 49.487 531.500 50.003 L 534.500 50.518 534.770 72.940 L 535.039 95.361 533.966 96.430 L 532.892 97.500 530.945 95 C 529.874 93.625, 526.939 89.027, 524.423 84.782 L 519.848 77.065 523.814 73.282 L 527.780 69.500 529.019 65.346 L 530.259 61.193 529.581 57.582 L 528.904 53.971 525.630 50.697 C 523.830 48.897, 520.537 46.878, 518.312 46.212 L 514.268 45 494.634 45 L 475 45 475 47.437 L 475 49.873 478.250 50.187 L 481.500 50.500 481.770 72.930 C 482.091 99.682, 482.101 99.664, 474.185 86.981 L 467.947 76.986 471.622 73.759 C 475.936 69.971, 478 65.577, 478 60.180 L 478 56.296 475.747 52.952 C 474.507 51.113, 471.920 48.684, 469.997 47.554 L 466.500 45.500 445.250 45.179 L 424 44.858 424 47.429 L 424 50 426.465 50 L 428.930 50 429.965 51.934 L 431 53.869 431 73.369 C 431 84.095, 430.561 94.024, 430.025 95.435 L 429.050 98 426.525 98 L 424 98 424 100.500 L 424 103 439.500 103 L 455 103 455 100.500 L 455 98 453.122 98 C 452.090 98, 450.722 97.369, 450.082 96.599 L 448.919 95.198 449.210 86.398 L 449.500 77.598 456.088 90.049 L 462.676 102.500 484.838 102.769 L 507 103.038 507 100.519 L 507 98 504.475 98 L 501.950 98 500.975 95.435 C 495.294 80.492, 500.780 76.649, 508 90.514 L 514.500 102.995 537.890 102.998 L 561.280 103 562.501 101.329 L 563.723 99.659 569.677 101.329 C 588.810 106.698, 604 98.803, 604 83.492 L 604 78.920 601.980 74.961 C 599.496 70.092, 594.637 66.778, 585.353 63.620 C 576.361 60.562, 574.312 59.451, 572.943 56.894 L 571.841 54.834 573.558 52.936 C 579.130 46.779, 594.791 51.900, 597.457 60.750 L 598.135 63 600.067 63 L 602 63 602 54 L 602 45 600.360 45 C 599.458 45, 598.221 45.655, 597.610 46.455 L 596.500 47.911 591 45.988 C 584.104 43.577, 577.020 43.540, 570.248 45.880 M 20 47.408 L 20 50 22.465 50 L 24.930 50 25.965 51.934 L 27 53.869 27 73.369 C 27 84.095, 26.561 94.024, 26.025 95.435 L 25.050 98 22.525 98 L 20 98 20 100.525 L 20 103.051 35.750 102.775 L 51.500 102.500 51.500 100.564 L 51.500 98.627 48.250 97.785 L 45 96.943 45 87.610 L 45 78.276 51.720 77.588 C 55.415 77.209, 60.353 76.053, 62.693 75.018 L 66.947 73.136 68.970 69.818 L 70.993 66.500 70.993 61.500 L 70.993 56.500 69.011 53.250 L 67.029 50 68.315 50 C 69.022 50, 70.140 50.540, 70.800 51.200 L 72 52.400 72 73.266 L 72 94.131 70.965 96.066 L 69.930 98 67.465 98 L 65 98 65 100.500 L 65 103 81 103 L 97 103 97 100.500 L 97 98 94.700 98 C 93.435 98, 91.860 97.460, 91.200 96.800 L 90 95.600 90 85.800 L 90 76 98.500 76 L 107 76 107 85.800 L 107 95.600 105.800 96.800 C 105.140 97.460, 103.565 98, 102.300 98 L 100 98 100 100.500 L 100 103 182.500 103 L 265 103 265 100.500 L 265 98 262.700 98 C 261.435 98, 259.860 97.460, 259.200 96.800 L 258 95.600 258 86.944 L 258 78.287 265.063 77.631 C 273.367 76.859, 277.578 75.257, 280.970 71.580 L 283.440 68.903 283.833 61.947 L 284.226 54.991 280.363 51.131 L 276.500 47.270 271.201 46.135 L 265.902 45 234.381 45 L 202.861 45 203.180 47.244 L 203.500 49.487 206.500 50.003 L 209.500 50.518 209.769 72.883 L 210.039 95.248 208.897 96.624 C 208.269 97.381, 207.108 98, 206.316 98 L 204.877 98 205.439 93.500 C 205.747 91.025, 206.253 86.975, 206.561 84.500 L 207.123 80 205.745 80 C 204.988 80, 203.345 82.469, 202.094 85.487 C 199.352 92.103, 195.508 95.569, 189.857 96.524 L 185.646 97.236 184.323 95.427 L 183 93.618 183 73.743 L 183 53.869 184.035 51.934 L 185.070 50 187.535 50 L 190 50 190 47.500 L 190 45 145 45 L 100 45 100 47.500 L 100 50 102.300 50 C 103.565 50, 105.140 50.540, 105.800 51.200 L 107 52.400 107 61.200 L 107 70 98.500 70 L 90 70 90 61.582 C 90 56.952, 90.273 52.452, 90.607 51.582 L 91.214 50 94.107 50 L 97 50 97 47.500 L 97 45 81 45 L 65 45 65 47.026 L 65 49.051 61.750 47.292 L 58.500 45.533 39.250 45.174 L 20 44.816 20 47.408 M 295 47.500 L 295 50 296.800 50 C 297.790 50, 299.140 50.540, 299.800 51.200 L 301 52.400 301 72.135 C 301 92.639, 300.342 96.836, 296.988 97.713 L 295 98.233 295 100.617 L 295 103 304.500 103 L 314 103 314 100.500 L 314 98 311.622 98 C 310.315 98, 308.627 97.257, 307.872 96.349 L 306.500 94.698 306.227 76.099 L 305.954 57.500 307.781 61.500 C 308.786 63.700, 312.938 73.734, 317.007 83.797 L 324.405 102.094 326.747 101.797 L 329.089 101.500 337.152 82.500 C 341.587 72.050, 345.403 63.302, 345.632 63.059 C 345.861 62.816, 345.925 70.466, 345.774 80.059 L 345.500 97.500 342.750 97.816 L 340 98.133 340 100.566 L 340 103 355.500 103 L 371 103 371 100.625 L 371 98.250 367.982 97.646 L 364.963 97.043 365.232 73.771 L 365.500 50.500 368.250 50.184 L 371 49.867 371 47.402 L 371 44.937 359.361 45.218 L 347.722 45.500 341.884 58.500 C 338.674 65.650, 335.472 72.752, 334.769 74.283 L 333.490 77.065 326.576 61.033 L 319.662 45 307.331 45 L 295 45 295 47.500 M 384.295 46.633 C 377.997 48.566, 371.684 53.751, 368.800 59.357 L 366.669 63.500 366.206 71.254 L 365.743 79.009 367.015 83.552 C 369.882 93.793, 377.535 100.069, 389.699 102.155 L 396.841 103.380 403.773 102.307 C 418.979 99.953, 426.908 92.147, 428.585 77.876 L 429.227 72.411 428.045 66.715 C 427.394 63.583, 425.431 58.888, 423.681 56.282 L 420.500 51.545 414.763 48.621 L 409.027 45.697 399.263 45.366 L 389.500 45.035 384.295 46.633 M 125.607 51.582 C 125.273 52.452, 125 62.712, 125 74.382 L 125 95.600 126.200 96.800 C 127.750 98.350, 133.250 98.350, 134.800 96.800 L 136 95.600 136 74.382 C 136 62.712, 135.727 52.452, 135.393 51.582 L 134.786 50 130.500 50 L 126.214 50 125.607 51.582 M 155.246 51.154 L 154 52.400 154 74 L 154 95.600 155.200 96.800 C 156.833 98.433, 162.491 98.318, 163.897 96.624 L 165.039 95.248 164.769 72.874 L 164.500 50.500 160.496 50.204 L 156.491 49.909 155.246 51.154 M 229.200 51.200 L 228 52.400 228 73.266 L 228 94.131 229.035 96.066 L 230.070 98 233.835 98 C 235.906 98, 238.140 97.460, 238.800 96.800 L 240 95.600 240 74 L 240 52.400 238.800 51.200 C 238.140 50.540, 235.980 50, 234 50 C 232.020 50, 229.860 50.540, 229.200 51.200 M 391.801 53.750 C 390.386 55.263, 388.420 58.075, 387.432 60 L 385.635 63.500 385.199 72.169 L 384.763 80.839 386.538 86.481 C 387.514 89.584, 389.548 93.445, 391.057 95.061 L 393.802 98 397.033 98 L 400.264 98 403.475 94.595 C 407.622 90.198, 409.517 83.486, 409.431 73.500 L 409.362 65.500 407.042 60.213 C 404.398 54.188, 400.941 51, 397.052 51 L 394.374 51 391.801 53.750 M 450.250 51.672 L 449 52.167 449 62.208 L 449 72.250 452.247 71.601 C 454.032 71.244, 456.395 70.050, 457.497 68.948 L 459.500 66.944 459.500 61.500 L 459.500 56.056 457.500 54.132 C 455.266 51.984, 452.142 50.924, 450.250 51.672 M 501.082 52.846 C 500.487 53.959, 500 58.782, 500 63.565 L 500 72.262 503.750 71.661 C 505.813 71.331, 508.288 70.097, 509.250 68.920 L 511 66.778 511 61.500 L 511 56.222 509.250 54.153 C 508.288 53.016, 506.299 51.802, 504.832 51.455 L 502.164 50.824 501.082 52.846 M 45 62.001 L 45 72.135 47.250 71.466 C 50.239 70.579, 51.833 68.405, 52.637 64.124 L 53.299 60.595 51.899 56.547 L 50.500 52.500 47.750 52.184 L 45 51.867 45 62.001 M 258 62.067 L 258 72.135 260.250 71.460 C 263.956 70.349, 265.254 68.409, 265.751 63.240 L 266.223 58.331 264.586 55.166 L 262.949 52 260.474 52 L 258 52 258 62.067" stroke="none" fill="#909ca4" fill-rule="evenodd"/></svg>