<svg xmlns="http://www.w3.org/2000/svg" width="3300" height="671" viewBox="0 0 3300 671" version="1.1"><path d="M 241 81.500 C 238.626 83.118, 236.029 83.903, 232.928 83.942 C 228.577 83.997, 220.476 86.058, 216.784 88.049 C 215.840 88.558, 213.365 89.396, 211.284 89.911 C 199.610 92.799, 172.228 105.610, 161 113.437 C 158.525 115.162, 154.925 117.300, 153 118.187 C 151.075 119.074, 147.101 121.869, 144.168 124.400 C 141.236 126.930, 138.355 129, 137.767 129 C 136.157 129, 95.190 169.968, 92.768 174 C 91.047 176.866, 82.578 189.951, 73.998 203 C 73.094 204.375, 70.628 208.875, 68.518 213 C 56.899 235.710, 54.599 241.051, 52.843 249.390 C 52.251 252.200, 51.367 254.999, 50.878 255.609 C 49.525 257.297, 47.023 266.145, 47.011 269.283 C 47.005 270.814, 45.875 274.287, 44.500 277 L 42 281.934 42.031 329.217 L 42.063 376.500 44.522 381.500 C 45.875 384.250, 46.986 388.075, 46.991 390 C 47.013 398.414, 51.106 412.748, 57.556 427 C 59.921 432.225, 63.125 439.780, 64.678 443.790 C 66.230 447.799, 69.183 453.314, 71.239 456.045 C 73.295 458.777, 75.622 462.553, 76.409 464.436 C 78.829 470.229, 87.023 482.206, 92.650 488.176 C 95.593 491.297, 98 494.358, 98 494.978 C 98 496.866, 126.075 525.243, 131.974 529.317 C 135.013 531.416, 138.625 534.158, 140 535.409 C 141.375 536.661, 145.425 539.631, 149 542.009 C 152.575 544.387, 157.401 547.627, 159.724 549.210 C 162.047 550.792, 166.322 553.223, 169.224 554.612 C 172.126 556, 180.575 560.285, 188 564.134 C 195.425 567.982, 203.975 571.786, 207 572.586 C 210.025 573.386, 214.608 574.931, 217.185 576.020 C 219.762 577.109, 223.362 578.016, 225.185 578.035 C 227.008 578.055, 229.625 578.714, 231 579.500 C 232.375 580.286, 235.300 580.950, 237.500 580.975 C 239.700 581.001, 243.709 581.692, 246.409 582.511 C 249.402 583.419, 255.369 584, 261.699 584 C 270.506 584, 272.718 584.338, 276.290 586.227 C 279.937 588.157, 282.377 588.503, 294.539 588.817 C 305.478 589.099, 309.835 588.813, 314.271 587.524 C 317.401 586.614, 320.223 585.448, 320.541 584.934 C 320.858 584.420, 323.945 584, 327.400 584 C 330.855 584, 335.891 583.330, 338.591 582.511 C 341.291 581.692, 345.151 581.017, 347.169 581.011 C 349.187 581.005, 352.112 580.379, 353.669 579.621 C 355.226 578.862, 361.225 576.792, 367 575.021 C 372.775 573.250, 380.895 570.271, 385.044 568.400 C 389.194 566.530, 392.975 565, 393.448 565 C 395.243 565, 407.652 558.650, 411 556.017 C 412.925 554.504, 416.525 552.247, 419 551.002 C 426.982 546.985, 440.141 538.635, 441.844 536.505 C 442.755 535.367, 445.075 533.464, 447 532.276 C 452.080 529.143, 484.450 496.128, 486.490 492 C 487.442 490.075, 489.677 486.925, 491.457 485 C 493.237 483.075, 496.637 478.575, 499.013 475 C 501.389 471.425, 504.585 466.658, 506.116 464.407 C 509.325 459.686, 519.405 439.704, 520.444 436 C 521.408 432.567, 525.925 421.051, 527.504 418 C 529.652 413.851, 534 398.614, 534 395.235 C 534 393.497, 534.900 389.791, 536 387 C 537.100 384.209, 538 379.903, 538 377.431 C 538 374.959, 538.675 371.320, 539.500 369.346 C 540.737 366.384, 541 359.567, 541 330.413 L 541 295.070 537.896 291.535 C 534.109 287.221, 532.368 287.131, 527.500 291 C 525.424 292.650, 523.271 294, 522.715 294 C 522.160 294, 519.691 295.688, 517.228 297.750 C 510.410 303.460, 505.188 307.487, 497.500 312.961 C 493.650 315.702, 488.250 319.955, 485.500 322.413 L 480.500 326.881 479.784 341.690 C 478.961 358.710, 477.872 366.833, 475.653 372.500 C 474.792 374.700, 474.068 378.015, 474.044 379.866 C 474.020 381.717, 473.263 385.542, 472.362 388.366 C 470.794 393.281, 469.934 395.431, 463.042 411.668 C 461.369 415.610, 460 419.140, 460 419.513 C 460 419.886, 458.987 421.601, 457.750 423.325 C 454.690 427.587, 453.409 429.752, 450.933 434.846 C 449.772 437.236, 447.343 440.836, 445.536 442.846 C 443.729 444.856, 441.299 448.075, 440.136 450 C 436.888 455.375, 412.898 480.013, 409.506 481.457 C 407.853 482.161, 404.406 484.596, 401.847 486.868 C 399.287 489.141, 396.898 491, 396.537 491 C 396.175 491, 393.889 492.520, 391.456 494.378 C 383.935 500.121, 359.454 511.658, 349.582 514.112 C 347.427 514.647, 344.502 515.684, 343.082 516.415 C 338.234 518.912, 333.361 520, 326.929 520.022 C 322.700 520.036, 319.008 520.721, 316.141 522.022 C 312.235 523.794, 309.567 524, 290.500 524 C 271.433 524, 268.765 523.794, 264.859 522.022 C 262.113 520.776, 258.280 520.032, 254.500 520.011 C 248.290 519.977, 241.696 518.363, 236.500 515.605 C 234.850 514.729, 232.766 514.010, 231.869 514.006 C 226.696 513.987, 201.791 502.155, 193 495.540 C 189.975 493.264, 186.645 491.075, 185.599 490.675 C 180.561 488.746, 170.216 480.140, 156.540 466.500 C 142.236 452.234, 140.190 449.750, 135.500 440.952 C 134.400 438.889, 132.760 436.368, 131.856 435.350 C 129.033 432.174, 113.263 399.750, 112.064 394.657 C 111.437 391.994, 110.240 388.769, 109.403 387.492 C 108.566 386.215, 107.489 381.645, 107.009 377.335 C 105.720 365.754, 104.098 357.169, 102.456 353.241 C 101.378 350.659, 101 345.403, 101 332.967 C 101 319.008, 101.335 315.110, 102.987 309.839 C 104.080 306.353, 104.993 301.025, 105.016 298 C 105.057 292.643, 106.580 286.278, 110.998 273 C 114.415 262.731, 114.930 261.202, 116.131 257.750 C 118.327 251.443, 123.325 241.465, 125.746 238.557 C 127.094 236.938, 129.227 233.282, 130.488 230.432 C 131.748 227.582, 134.341 223.506, 136.249 221.375 C 138.157 219.244, 140.377 216.224, 141.182 214.665 C 143.115 210.919, 172.518 181.459, 177 178.776 C 178.925 177.624, 181.709 175.572, 183.186 174.215 C 185.975 171.654, 188.074 170.313, 194 167.306 C 195.925 166.329, 199.480 164.059, 201.900 162.260 C 204.320 160.462, 208.145 158.464, 210.400 157.820 C 212.655 157.176, 214.950 156.330, 215.500 155.939 C 217.568 154.468, 232.009 149.090, 235.679 148.423 C 237.781 148.042, 241.075 146.952, 243 146.002 C 248.623 143.227, 257.560 142.598, 291 142.626 C 323.222 142.652, 333.671 143.443, 340.218 146.349 C 342.263 147.257, 345.074 148, 346.465 148 C 347.856 148, 351.852 149.350, 355.344 151 C 358.836 152.650, 362.427 154, 363.322 154 C 365.432 154, 383.099 163.407, 389.298 167.832 C 392.335 170, 395.670 171.434, 398.386 171.740 C 402.079 172.156, 403.150 171.811, 406.088 169.258 C 407.965 167.627, 411.335 165.145, 413.579 163.742 C 415.822 162.339, 419.723 159.461, 422.247 157.346 C 424.771 155.230, 429.888 151.250, 433.618 148.500 C 447.717 138.105, 449.677 134.299, 443.750 128.829 C 437.938 123.465, 421.828 113.536, 405.995 105.559 C 397.473 101.265, 390.050 97.429, 389.500 97.033 C 387.944 95.914, 375.434 91.122, 371.255 90.044 C 369.190 89.511, 364.179 87.933, 360.119 86.538 C 356.060 85.142, 350.702 84, 348.213 84 C 344.928 84, 342.791 83.315, 340.411 81.500 L 337.133 79 290.817 79.058 L 244.500 79.115 241 81.500 M 805.141 168.022 C 802.743 169.110, 799.143 170.016, 797.141 170.035 C 795.138 170.055, 792.375 170.714, 791 171.500 C 789.625 172.286, 787.497 172.945, 786.271 172.965 C 782.794 173.020, 769.470 177.766, 762.662 181.375 C 759.273 183.171, 755.600 184.940, 754.500 185.305 C 751.618 186.261, 735.302 196.725, 728.467 202 C 714.602 212.700, 706.997 221.142, 697.839 236 C 690.596 247.751, 679.999 269.546, 680.010 272.669 C 680.016 274.226, 679.079 278.425, 677.928 282 C 676.778 285.575, 675.423 289.882, 674.918 291.571 C 673.400 296.648, 673.772 350.424, 675.377 358 C 679.958 379.618, 693.600 409.616, 704.418 421.857 C 706.188 423.860, 708.628 427.143, 709.839 429.152 C 712.270 433.183, 730.452 451, 732.134 451 C 732.717 451, 735.287 452.865, 737.847 455.144 C 743.584 460.253, 776.148 476.472, 783.992 478.127 C 787.022 478.766, 790.623 479.982, 791.995 480.828 C 795.907 483.241, 811.279 484.372, 839.500 484.324 C 866.300 484.277, 876.939 483.402, 883 480.746 C 884.925 479.902, 889.410 478.676, 892.966 478.022 C 897.463 477.195, 904.274 474.387, 915.329 468.803 C 924.073 464.387, 931.977 460.037, 932.894 459.137 C 933.811 458.237, 935.776 456.866, 937.262 456.091 C 938.747 455.316, 943.346 451.205, 947.481 446.956 C 953.319 440.958, 954.997 438.589, 954.985 436.365 C 954.976 434.789, 954.619 432.949, 954.191 432.275 C 953.277 430.836, 945.708 425.213, 934.500 417.647 C 930.100 414.677, 924.250 410.376, 921.500 408.090 C 914.747 402.477, 912.883 402.141, 907.723 405.604 C 896.136 413.382, 878.169 421, 871.411 421 C 870.041 421, 867.156 421.900, 865 423 C 861.520 424.775, 859.106 425, 843.500 425 C 827.894 425, 825.480 424.775, 822 423 C 819.602 421.777, 816.106 421, 812.999 421 C 808.766 421, 805.879 419.974, 795.709 414.854 L 783.500 408.707 770.672 396.104 L 757.843 383.500 751.606 371 C 748.175 364.125, 744.805 356.475, 744.116 354 C 743.428 351.525, 742.445 348.118, 741.932 346.429 C 740.642 342.178, 740.758 310.651, 742.083 305.616 C 748.933 279.577, 755.180 267.827, 769.703 253.664 C 779.528 244.083, 785.343 239.599, 792 236.474 C 801.516 232.006, 814.372 228.018, 819.290 228.008 C 821.374 228.003, 824.844 227.100, 827 226 C 832.580 223.153, 848.750 223.153, 856.239 225.999 C 859.133 227.099, 862.881 227.999, 864.568 227.999 C 871.132 228.001, 891.543 236.335, 894.906 240.387 C 896.701 242.549, 902.485 243.457, 905.767 242.092 C 907.270 241.466, 910.750 238.873, 913.500 236.329 C 916.250 233.785, 924.429 227.694, 931.675 222.794 C 938.922 217.894, 946.063 212.295, 947.546 210.351 C 949.931 207.223, 950.094 206.545, 948.967 204.438 C 947.697 202.065, 938.075 194.310, 935.079 193.245 C 934.211 192.936, 931.344 191.128, 928.709 189.227 C 918.545 181.893, 888.949 170, 880.861 170 C 878.857 170, 875.257 169.110, 872.859 168.022 L 868.500 166.044 839 166.044 L 809.500 166.044 805.141 168.022 M 1002.073 172.635 L 1000 175.270 1000 329.680 L 1000 484.091 1002.455 486.545 L 1004.909 489 1087.243 489 L 1169.577 489 1173.500 487 C 1175.867 485.793, 1179.397 485, 1182.401 485 C 1189.838 485, 1198.668 483.116, 1206.379 479.883 C 1210.163 478.298, 1214.072 477, 1215.066 477 C 1216.817 477, 1227.599 470.128, 1233.298 465.379 C 1234.837 464.097, 1237.653 462.310, 1239.555 461.407 C 1248.307 457.254, 1259.028 441.275, 1265.010 423.470 L 1269 411.594 1269 387.952 C 1269 366.703, 1268.792 363.713, 1266.950 358.405 C 1265.822 355.157, 1264.426 350.925, 1263.847 349 C 1262.846 345.669, 1260.574 341.596, 1255 333.135 C 1253.625 331.047, 1248.225 325.316, 1243 320.397 C 1235.167 313.024, 1231.657 310.546, 1223 306.277 C 1211.401 300.557, 1201.916 297.019, 1198.035 296.965 C 1196.641 296.945, 1194.375 296.286, 1193 295.500 C 1191.191 294.466, 1186.860 294.061, 1177.333 294.035 C 1166.441 294.006, 1163.359 293.654, 1159.500 292 L 1154.834 290 1113.617 290 C 1082.893 290, 1072.095 289.695, 1071.200 288.800 C 1070.319 287.919, 1070 279.430, 1070 256.835 L 1070 226.070 1071.934 225.035 C 1073.210 224.352, 1095.697 224, 1137.975 224 L 1202.082 224 1208.041 220.899 C 1211.318 219.193, 1214 217.461, 1214 217.051 C 1214 216.640, 1215.908 215.448, 1218.240 214.402 C 1220.571 213.356, 1224.589 210.700, 1227.168 208.500 C 1238.847 198.537, 1241.607 196.362, 1245.175 194.313 C 1248.785 192.239, 1256.541 186.114, 1261.659 181.295 C 1264.729 178.404, 1264.787 173.665, 1261.777 171.557 C 1259.794 170.167, 1245.815 170, 1131.850 170 L 1004.145 170 1002.073 172.635 M 1312.405 172.105 L 1310.500 174.210 1310.241 329.141 L 1309.981 484.072 1312.445 486.536 L 1314.909 489 1432.455 489 L 1550 489 1552 487 L 1554 485 1554 461.500 L 1554 438 1552 436 L 1550 434 1468.057 434 L 1386.113 434 1384.557 431.777 C 1383.218 429.867, 1383 424.547, 1383 393.849 C 1383 362.722, 1383.202 357.941, 1384.571 356.571 C 1385.970 355.173, 1393.772 355, 1455.397 355 L 1524.651 355 1526.826 352.686 L 1529 350.371 1529 327.258 L 1529 304.145 1526.365 302.073 L 1523.730 300 1454.937 300 C 1393.730 300, 1385.970 299.827, 1384.571 298.429 C 1383.204 297.061, 1383 292.394, 1383 262.429 L 1383 228 1385 226 L 1387 224 1433.504 224 L 1480.007 224 1483.258 222.250 C 1485.046 221.287, 1487.856 219.549, 1489.504 218.386 C 1491.152 217.224, 1494.525 215.368, 1497 214.262 C 1499.475 213.157, 1503.051 210.620, 1504.946 208.626 C 1506.842 206.632, 1508.930 205, 1509.588 205 C 1510.246 205, 1512.970 203.049, 1515.642 200.665 C 1518.314 198.280, 1522.525 195.110, 1525 193.619 C 1531.362 189.788, 1544.226 178.827, 1545.952 175.766 C 1547.161 173.621, 1547.182 172.924, 1546.079 171.595 L 1544.755 170 1429.533 170 L 1314.310 170 1312.405 172.105 M 1597.073 172.635 L 1595 175.270 1595 329.524 L 1595 483.778 1596.910 486.139 L 1598.821 488.500 1628.160 488.795 C 1644.297 488.957, 1658.524 488.833, 1659.775 488.520 C 1661.027 488.206, 1662.939 487.061, 1664.025 485.975 L 1666 484 1666 442.535 L 1666 401.070 1667.934 400.035 C 1669.179 399.369, 1685.305 398.988, 1713.184 398.965 L 1756.500 398.931 1765.500 396.396 C 1770.450 395.001, 1776.075 393.632, 1778 393.352 C 1779.925 393.073, 1782.918 392.204, 1784.651 391.422 C 1786.384 390.640, 1788.409 389.999, 1789.151 389.998 C 1791.695 389.994, 1810.865 380.125, 1818.394 374.943 C 1822.535 372.093, 1830.338 365.203, 1835.735 359.631 L 1845.548 349.500 1851.400 337.500 C 1855.870 328.334, 1857.425 323.958, 1857.986 318.971 C 1858.390 315.380, 1859.458 311.015, 1860.360 309.271 C 1861.745 306.592, 1862 302.402, 1862 282.291 L 1862 258.484 1859.142 250.400 C 1857.569 245.955, 1854.194 238.107, 1851.642 232.962 C 1849.089 227.817, 1847 223.003, 1847 222.265 C 1847 221.527, 1841.065 214.846, 1833.811 207.419 L 1820.623 193.916 1806.768 186.953 C 1799.148 183.124, 1791.245 179.568, 1789.206 179.052 C 1787.168 178.536, 1782.350 176.983, 1778.500 175.600 C 1774.281 174.084, 1769.264 173.068, 1765.872 173.042 C 1762.777 173.019, 1758.629 172.325, 1756.654 171.500 C 1753.569 170.211, 1742.251 170, 1676.105 170 L 1599.145 170 1597.073 172.635 M 1980.655 171.829 L 1979 173.657 1979 329.174 L 1979 484.690 1981.105 486.595 L 1983.209 488.500 2065.717 488.767 L 2148.225 489.034 2151.363 487.338 C 2153.088 486.405, 2158.100 485.307, 2162.500 484.898 C 2174.207 483.810, 2181.442 482.405, 2184.128 480.699 C 2185.433 479.870, 2188.326 478.899, 2190.559 478.540 C 2192.938 478.158, 2196.662 476.343, 2199.559 474.152 C 2202.276 472.097, 2206.721 469.341, 2209.435 468.029 C 2215.537 465.078, 2227.576 453.779, 2233.318 445.614 C 2239.767 436.445, 2245 425.086, 2245 420.258 C 2245 418.007, 2245.900 414.066, 2247 411.500 C 2248.793 407.317, 2249 404.612, 2249 385.352 L 2249 363.869 2245.500 356.294 C 2243.575 352.127, 2242 348.044, 2242 347.219 C 2242 343.204, 2236.567 335.535, 2226.070 324.733 C 2219.782 318.260, 2213.481 312.342, 2212.068 311.580 C 2196.112 302.974, 2181.749 297, 2177.014 297 C 2175.834 297, 2173.886 296.445, 2172.684 295.767 C 2171.375 295.027, 2164.690 294.324, 2156 294.012 C 2144.951 293.615, 2140.690 293.076, 2138.096 291.746 L 2134.693 290 2092.507 290 L 2050.321 290 2049.161 287.453 C 2048.370 285.717, 2048 276.141, 2048 257.387 C 2048 230.291, 2048.365 226.792, 2051.400 224.765 C 2052.005 224.361, 2091.234 224.024, 2138.576 224.015 L 2224.651 224 2226.826 221.686 L 2229 219.371 2229 196.686 L 2229 174 2227 172 L 2225 170 2103.655 170 L 1982.310 170 1980.655 171.829 M 2388.804 172.750 C 2387.391 174.262, 2385.674 177.300, 2384.991 179.500 C 2384.307 181.700, 2381.785 187.775, 2379.387 193 C 2376.988 198.225, 2374.074 205.425, 2372.909 209 C 2371.745 212.575, 2370.502 215.725, 2370.146 216 C 2368.981 216.902, 2362 231.995, 2362 233.614 C 2362 234.483, 2360.224 238.638, 2358.053 242.847 C 2355.882 247.056, 2353.784 251.850, 2353.390 253.500 C 2352.996 255.150, 2350.498 260.960, 2347.837 266.411 C 2345.177 271.863, 2343 276.856, 2343 277.508 C 2343 278.159, 2341.176 282.425, 2338.947 286.987 C 2336.718 291.548, 2334.624 296.680, 2334.295 298.390 C 2333.966 300.101, 2331.796 305.372, 2329.474 310.104 C 2327.151 314.837, 2324.692 320.462, 2324.010 322.604 C 2323.327 324.747, 2321.275 329.425, 2319.450 333 C 2312.975 345.681, 2308 356.429, 2308 357.734 C 2308 358.462, 2306.644 361.743, 2304.987 365.026 C 2303.330 368.309, 2301.050 373.583, 2299.921 376.747 C 2296.740 385.661, 2294.735 390.363, 2293.417 392 C 2292.752 392.825, 2291.457 395.750, 2290.538 398.500 C 2289.620 401.250, 2286.648 408.054, 2283.934 413.619 C 2281.220 419.185, 2279 424.481, 2279 425.389 C 2279 426.296, 2276.701 431.643, 2273.892 437.270 C 2271.082 442.896, 2268.122 449.750, 2267.313 452.500 C 2266.505 455.250, 2264.141 461.100, 2262.060 465.500 C 2254.683 481.098, 2253.995 486.959, 2259.372 488.402 C 2260.542 488.716, 2276.203 488.979, 2294.173 488.986 L 2326.847 489 2329.923 486.411 C 2331.615 484.987, 2333 482.961, 2333 481.907 C 2333 480.854, 2333.900 478.314, 2335 476.261 C 2336.100 474.209, 2337 471.619, 2337 470.507 C 2337 469.394, 2338.088 466.441, 2339.417 463.944 C 2340.746 461.447, 2342.166 457.626, 2342.572 455.452 C 2342.978 453.278, 2344.329 449.925, 2345.573 448 C 2346.818 446.075, 2349.304 441.044, 2351.098 436.820 C 2353.353 431.512, 2355 428.967, 2356.430 428.583 C 2357.569 428.277, 2389.368 428.021, 2427.095 428.014 L 2495.690 428 2497.345 429.829 C 2498.255 430.835, 2499 432.253, 2499 432.982 C 2499 433.710, 2500.350 437.164, 2502 440.656 C 2503.650 444.148, 2505.002 447.792, 2505.004 448.753 C 2505.006 449.714, 2505.812 451.850, 2506.795 453.500 C 2507.778 455.150, 2509.181 458.525, 2509.913 461 C 2510.644 463.475, 2512.538 468.255, 2514.121 471.623 C 2515.705 474.990, 2517 478.296, 2517 478.968 C 2517 481.482, 2520.520 486.019, 2523.607 487.484 C 2526.266 488.745, 2532.401 488.998, 2560.151 488.986 C 2578.493 488.979, 2594.461 488.715, 2595.636 488.400 C 2599.577 487.342, 2599.895 484.278, 2596.841 476.773 C 2595.303 472.993, 2593.359 468.923, 2592.522 467.728 C 2591.685 466.533, 2591 464.667, 2591 463.581 C 2591 462.496, 2589.018 457.759, 2586.595 453.054 C 2584.172 448.349, 2581.305 441.789, 2580.223 438.476 C 2579.142 435.162, 2576.849 429.663, 2575.128 426.254 C 2573.408 422.846, 2572 419.520, 2572 418.864 C 2572 418.208, 2570.485 414.478, 2568.632 410.576 C 2566.780 406.674, 2564.928 401.950, 2564.517 400.078 C 2564.106 398.206, 2562.040 393.209, 2559.927 388.974 C 2557.813 384.738, 2555.390 379.411, 2554.542 377.136 C 2553.694 374.861, 2552.303 371.131, 2551.452 368.847 C 2550.601 366.563, 2549.026 363.577, 2547.952 362.212 C 2546.878 360.847, 2546 358.813, 2546 357.692 C 2546 356.570, 2543.300 350.075, 2540 343.258 C 2536.700 336.441, 2534 330.213, 2534 329.418 C 2534 328.623, 2533.610 327.191, 2533.133 326.236 C 2528.312 316.586, 2524 306.828, 2524 305.569 C 2524 304.716, 2521.794 299.775, 2519.097 294.589 C 2516.400 289.403, 2513.870 283.662, 2513.474 281.830 C 2513.078 279.999, 2511.684 276.377, 2510.377 273.783 C 2509.070 271.189, 2508 268.383, 2508 267.548 C 2508 266.713, 2506.677 263.435, 2505.061 260.265 C 2500.967 252.236, 2498.272 245.951, 2497.428 242.465 C 2497.034 240.834, 2495.150 236.372, 2493.242 232.550 C 2491.334 228.727, 2489.129 223.430, 2488.341 220.777 C 2487.554 218.125, 2485.805 214.327, 2484.455 212.338 C 2483.105 210.349, 2482 208.341, 2482 207.876 C 2482 207.412, 2480.650 204.245, 2479 200.839 C 2477.350 197.432, 2476 193.974, 2476 193.154 C 2476 192.333, 2474.716 189.375, 2473.147 186.581 C 2471.578 183.786, 2469.986 179.832, 2469.610 177.793 C 2469.198 175.563, 2467.891 173.273, 2466.328 172.043 L 2463.730 170 2427.552 170 L 2391.374 170 2388.804 172.750 M 2620.655 171.829 L 2619 173.657 2619 329.256 L 2619 484.855 2621.635 486.927 L 2624.270 489 2657 489 L 2689.730 489 2692.365 486.927 L 2695 484.855 2695 426.127 C 2695 381.784, 2695.294 367.106, 2696.200 366.200 C 2697.935 364.465, 2831.065 364.465, 2832.800 366.200 C 2833.705 367.105, 2834.003 381.427, 2834.014 424.450 C 2834.021 455.827, 2834.303 482.531, 2834.641 483.790 C 2835.937 488.631, 2838.542 489, 2871.395 489 L 2901.888 489 2904.694 486.587 L 2907.500 484.173 2907.787 332.337 C 2907.944 248.826, 2907.807 179.012, 2907.481 177.194 C 2907.155 175.376, 2906.014 173.014, 2904.944 171.944 L 2903 170 2870.057 170 L 2837.113 170 2835.557 172.223 C 2834.188 174.177, 2834 182.051, 2834 237.523 C 2834 285.249, 2833.708 300.892, 2832.800 301.800 C 2831.065 303.535, 2697.935 303.535, 2696.200 301.800 C 2695.292 300.892, 2695 285.200, 2695 237.300 L 2695 174 2693 172 L 2691 170 2656.655 170 L 2622.310 170 2620.655 171.829 M 2953.174 172.314 L 2951 174.629 2951 329.360 L 2951 484.091 2953.455 486.545 L 2955.909 489 2987.955 489 L 3020 489 3022 487 L 3024 485 3024 426.200 C 3024 381.800, 3024.294 367.106, 3025.200 366.200 C 3026.040 365.360, 3031.550 365, 3043.577 365 L 3060.754 365 3071.377 375.162 C 3077.220 380.751, 3082 385.925, 3082 386.659 C 3082 387.393, 3085.088 391.258, 3088.863 395.247 C 3092.637 399.236, 3096.525 404.075, 3097.502 406 C 3098.479 407.925, 3101.909 412.425, 3105.125 416 C 3108.340 419.575, 3113.856 425.695, 3117.383 429.601 C 3120.909 433.507, 3124.573 438.208, 3125.525 440.049 C 3126.477 441.889, 3130.573 446.878, 3134.628 451.134 C 3138.683 455.391, 3142 459.321, 3142 459.869 C 3142 460.417, 3145.524 464.669, 3149.832 469.319 C 3154.140 473.969, 3158.390 479.302, 3159.277 481.171 C 3160.205 483.127, 3162.563 485.510, 3164.831 486.785 L 3168.772 489 3210.452 489 C 3237.270 489, 3252.821 488.631, 3254.066 487.965 C 3255.164 487.377, 3256 485.879, 3256 484.499 C 3256 481.175, 3249.218 470.947, 3243.216 465.218 C 3240.498 462.623, 3237.105 458.475, 3235.678 456 C 3234.250 453.525, 3229.688 448.136, 3225.541 444.025 C 3221.393 439.914, 3218 435.993, 3218 435.313 C 3218 434.632, 3214.041 429.896, 3209.202 424.788 C 3204.363 419.680, 3198.714 412.913, 3196.649 409.750 C 3194.583 406.587, 3192.580 403.997, 3192.197 403.993 C 3191.813 403.989, 3189.250 401.203, 3186.500 397.803 C 3183.750 394.402, 3178.238 388.086, 3174.250 383.768 C 3170.262 379.449, 3167 375.329, 3167 374.611 C 3167 373.894, 3162.950 368.894, 3158 363.500 C 3153.050 358.106, 3149 353.092, 3149 352.358 C 3149 351.624, 3143.938 345.704, 3137.750 339.202 C 3124.918 325.718, 3123.487 323.537, 3124.378 318.830 C 3124.943 315.842, 3130.150 308.904, 3132.585 307.894 C 3133.108 307.677, 3134.967 305.250, 3136.715 302.500 C 3138.464 299.750, 3141.718 295.721, 3143.947 293.547 C 3146.176 291.373, 3148 289.217, 3148 288.757 C 3148 287.369, 3152.162 281.870, 3158.250 275.213 C 3161.412 271.756, 3164 268.466, 3164 267.904 C 3164 267.341, 3166.188 264.545, 3168.863 261.690 C 3171.538 258.836, 3174.862 254.677, 3176.250 252.450 C 3177.637 250.222, 3180.624 246.473, 3182.886 244.118 C 3185.149 241.763, 3187 239.530, 3187 239.155 C 3187 238.780, 3190.150 234.886, 3194 230.500 C 3197.850 226.114, 3201 221.977, 3201 221.305 C 3201 220.634, 3204.271 216.578, 3208.269 212.292 C 3212.267 208.006, 3216.623 202.925, 3217.951 201 C 3219.278 199.075, 3222.092 195.587, 3224.204 193.248 C 3226.316 190.910, 3228.569 187.846, 3229.210 186.440 C 3229.850 185.033, 3231.865 182.302, 3233.687 180.370 C 3237.103 176.749, 3237.898 173.298, 3235.800 171.200 C 3234.910 170.310, 3224.986 170, 3197.335 170 L 3160.070 170 3156.535 173.104 C 3154.591 174.811, 3153 176.630, 3153 177.146 C 3153 178.165, 3152.999 178.167, 3146.861 185.497 C 3144.560 188.246, 3141.361 192.633, 3139.753 195.247 C 3138.144 197.861, 3136.429 200, 3135.940 200 C 3135.451 200, 3134.349 201.359, 3133.490 203.020 C 3132.631 204.680, 3129.245 209.001, 3125.964 212.620 C 3122.684 216.240, 3120 219.775, 3120 220.475 C 3120 221.175, 3117.637 224.399, 3114.750 227.639 C 3111.863 230.880, 3107.774 235.887, 3105.665 238.765 C 3103.555 241.644, 3101.473 244, 3101.036 244 C 3100.600 244, 3099.661 245.404, 3098.951 247.119 C 3098.240 248.834, 3095.490 252.772, 3092.838 255.869 C 3090.187 258.966, 3088.014 261.971, 3088.009 262.547 C 3088.004 263.123, 3086.228 265.324, 3084.063 267.439 C 3081.897 269.554, 3079.570 272.682, 3078.892 274.392 C 3078.214 276.101, 3075.148 280.263, 3072.079 283.640 C 3069.011 287.017, 3064.551 292.080, 3062.168 294.890 L 3057.836 300 3042.489 300 C 3029.871 300, 3026.863 299.721, 3025.571 298.429 C 3024.177 297.034, 3024 289.908, 3024 235.084 L 3024 173.310 3022.171 171.655 C 3020.549 170.186, 3016.681 170, 2987.846 170 L 2955.349 170 2953.174 172.314 M 480.524 180.063 C 478.337 181.154, 475.131 183.419, 473.401 185.096 C 470.441 187.965, 465.825 191.373, 456.500 197.573 C 454.300 199.036, 450.855 201.805, 448.844 203.727 C 446.834 205.649, 444.303 207.734, 443.220 208.361 C 442.137 208.987, 438.711 211.188, 435.606 213.250 C 432.502 215.313, 429.716 217, 429.416 217 C 428.732 217, 420.393 223.916, 413.073 230.555 C 410.008 233.335, 404.866 237.160, 401.646 239.055 C 398.426 240.950, 392.873 245.164, 389.306 248.420 C 385.740 251.677, 381.525 255.052, 379.941 255.920 C 374.470 258.920, 363.492 266.772, 361 269.468 C 357.984 272.731, 345.638 282, 344.308 282 C 343.786 282, 341.485 283.605, 339.193 285.567 C 336.901 287.529, 333.030 290.566, 330.590 292.317 C 320.678 299.430, 316.417 302.702, 311.790 306.750 C 309.119 309.087, 306.488 311, 305.944 311 C 305.400 311, 302.981 312.820, 300.568 315.044 C 293.933 321.160, 287.825 322.109, 284.086 317.604 C 283.354 316.722, 282.389 316, 281.942 316 C 281.494 316, 277.543 313.637, 273.161 310.750 C 268.780 307.863, 262.218 303.700, 258.579 301.500 C 254.941 299.300, 249.680 295.815, 246.889 293.756 C 244.098 291.696, 239.944 289.102, 237.657 287.990 C 233.480 285.958, 227.954 282.461, 215.319 273.856 C 202.444 265.087, 199.365 264.460, 196.489 270.021 C 195.268 272.382, 195 278.267, 195 302.715 L 195 332.530 196.952 336.171 C 200.308 342.432, 206.633 347.516, 217.243 352.477 C 220.134 353.830, 223.625 355.794, 225 356.842 C 226.375 357.890, 231.775 361.587, 237 365.057 C 242.225 368.528, 248.525 372.833, 251 374.625 C 253.475 376.417, 258.650 379.538, 262.500 381.559 C 266.350 383.581, 270.400 386.030, 271.500 387.001 C 272.600 387.972, 274.962 389.505, 276.750 390.409 C 278.538 391.312, 280 392.400, 280 392.826 C 280 393.815, 288.556 398, 290.576 398 C 292.793 398, 298.013 395.147, 301.749 391.893 C 303.536 390.336, 307.361 387.472, 310.249 385.529 C 315.915 381.715, 322.426 376.831, 328 372.211 C 329.925 370.616, 334.075 367.679, 337.223 365.685 C 340.371 363.691, 343.516 361.146, 344.214 360.030 C 344.911 358.913, 345.893 358, 346.396 358 C 346.899 358, 348.704 356.942, 350.406 355.648 C 352.108 354.355, 355 352.524, 356.834 351.579 C 358.667 350.635, 362.777 347.463, 365.966 344.531 C 369.155 341.599, 373.055 338.378, 374.632 337.373 C 376.210 336.368, 377.725 335.261, 378 334.913 C 378.275 334.564, 379.958 333.532, 381.739 332.619 C 383.521 331.707, 387.217 329.056, 389.952 326.730 C 396.181 321.432, 404.149 315.395, 410 311.541 C 412.475 309.911, 414.860 307.997, 415.300 307.288 C 415.740 306.580, 417.479 305.287, 419.164 304.415 C 420.850 303.544, 424.090 301.151, 426.364 299.098 C 428.639 297.046, 432.525 294.152, 435 292.668 C 437.475 291.183, 442.875 287.049, 447 283.480 C 451.125 279.912, 455.400 276.594, 456.500 276.107 C 457.600 275.620, 460.525 273.459, 463 271.306 C 465.475 269.153, 469.525 266.171, 472 264.680 C 474.475 263.189, 479.875 259.055, 484 255.494 C 488.125 251.933, 493.150 248.125, 495.166 247.032 C 497.183 245.939, 501.401 242.798, 504.539 240.051 C 507.678 237.304, 511.041 234.804, 512.012 234.496 C 512.982 234.188, 514.999 232.089, 516.492 229.832 L 519.208 225.728 512.479 212.114 C 508.778 204.626, 504.527 196.700, 503.033 194.500 C 501.539 192.300, 499.102 188.570, 497.618 186.211 C 494.737 181.631, 489.773 177.984, 486.500 178.044 C 485.400 178.063, 482.711 178.972, 480.524 180.063 M 1670 226 L 1668 228 1668 282.418 C 1668 312.348, 1668.280 337.565, 1668.621 338.455 C 1670.235 342.661, 1673.245 343, 1708.996 343 L 1743.091 343 1751.296 340.367 C 1763.221 336.540, 1765.551 335.077, 1775.361 325.262 C 1785.415 315.202, 1786.294 313.469, 1790.066 296.236 C 1791.266 290.754, 1791.266 278.246, 1790.066 272.764 C 1786.293 255.530, 1785.416 253.798, 1775.361 243.740 C 1770.487 238.866, 1765.375 234.277, 1764 233.543 C 1759.445 231.114, 1748.728 228, 1744.918 228 C 1742.854 228, 1739.066 227.100, 1736.500 226 L 1731.834 224 1701.917 224 L 1672 224 1670 226 M 2421.052 263.750 C 2419.285 268.012, 2417.356 272.850, 2416.766 274.500 C 2416.177 276.150, 2414.144 280.650, 2412.249 284.500 C 2408.861 291.386, 2404.589 302.579, 2403.079 308.531 C 2402.656 310.198, 2400.440 315.389, 2398.155 320.066 C 2395.870 324.743, 2394 329.229, 2393.999 330.035 C 2393.999 330.841, 2392.649 334.353, 2390.999 337.840 C 2389.350 341.327, 2388 344.878, 2388 345.731 C 2388 346.585, 2386.164 351.157, 2383.921 355.891 C 2381.021 362.011, 2380.113 364.934, 2380.780 366 C 2382.188 368.252, 2467.515 368.697, 2470.451 366.467 L 2472.402 364.986 2469.285 358.743 C 2465.678 351.520, 2463.941 347.466, 2461.470 340.500 C 2460.494 337.750, 2459.089 334.612, 2458.348 333.527 C 2457.607 332.443, 2457 330.855, 2457 329.999 C 2457 329.144, 2455.425 325.157, 2453.500 321.140 C 2451.575 317.124, 2450 313.075, 2450 312.143 C 2450 311.211, 2448.664 307.761, 2447.031 304.475 C 2445.399 301.189, 2444.049 297.780, 2444.031 296.899 C 2444.014 296.018, 2442.953 293.318, 2441.672 290.899 C 2440.392 288.480, 2438.826 284.425, 2438.193 281.888 C 2437.559 279.351, 2435.912 275.301, 2434.532 272.888 C 2433.153 270.475, 2432.019 267.725, 2432.012 266.777 C 2431.990 263.656, 2427.672 256, 2425.934 256 C 2424.797 256, 2423.243 258.466, 2421.052 263.750 M 1071.655 349.829 C 1070.174 351.465, 1070 355.778, 1070 390.756 L 1070 429.855 1072.635 431.927 L 1075.270 434 1110.701 434 C 1135.978 434, 1146.757 433.663, 1148.316 432.823 C 1149.517 432.175, 1154.550 431.306, 1159.500 430.892 C 1166.019 430.346, 1170.528 429.292, 1175.858 427.068 C 1184.356 423.521, 1187.050 421.444, 1194.547 412.662 L 1200 406.274 1200 391.550 L 1200 376.825 1196.524 370.609 C 1194.612 367.191, 1192.025 363.481, 1190.774 362.366 C 1185.443 357.611, 1172.397 352.020, 1166.535 351.978 C 1164.866 351.966, 1161.538 351.066, 1159.141 349.978 L 1154.782 348 1114.046 348 L 1073.310 348 1071.655 349.829 M 2051.400 348.765 C 2048.278 350.849, 2048 354.194, 2048 389.613 C 2048 427.678, 2048.354 430.929, 2052.718 432.917 C 2054.280 433.629, 2067.206 434, 2090.433 434 C 2119.835 434, 2126.253 433.749, 2128.636 432.506 C 2130.312 431.632, 2134.188 431.010, 2137.981 431.006 C 2143.089 431.001, 2146.434 430.219, 2153.776 427.313 L 2163.092 423.626 2170.296 416.015 C 2178.445 407.404, 2180.944 401.898, 2181.700 390.883 L 2182.154 384.266 2177.665 375.383 C 2171.547 363.277, 2166.653 358.670, 2155.923 354.914 C 2151.343 353.311, 2146.449 351.990, 2145.048 351.978 C 2143.647 351.966, 2140.538 351.066, 2138.141 349.978 L 2133.782 348 2093.141 348.015 C 2070.788 348.024, 2052.005 348.361, 2051.400 348.765" stroke="none" fill="#8c9ca4" fill-rule="evenodd"/></svg>