<svg xmlns="http://www.w3.org/2000/svg" width="3300" height="671" viewBox="0 0 3300 671" version="1.1"><path d="M 2489.500 129.162 C 2484.951 131.667, 2480.613 136.926, 2477.405 143.823 L 2474 151.146 2474 177.418 C 2474 201.600, 2473.855 203.822, 2472.171 205.345 C 2470.675 206.699, 2468.073 207, 2457.871 207 C 2450.102 207, 2444.983 207.417, 2444.295 208.105 C 2443.688 208.712, 2439.253 209.455, 2434.441 209.755 C 2426.948 210.223, 2424.559 210.854, 2417.814 214.151 C 2413.481 216.268, 2409.250 218, 2408.411 218 C 2405.742 218, 2397.657 223.018, 2392.966 227.585 C 2390.472 230.013, 2387.976 232, 2387.420 232 C 2385.694 232, 2360 258.710, 2360 260.503 C 2360 262.953, 2357.076 268.931, 2353.818 273.144 C 2352.268 275.148, 2351 277.148, 2351 277.589 C 2351 278.030, 2349.773 279.671, 2348.274 281.236 C 2345.708 283.914, 2345.528 284.713, 2345.212 294.791 C 2345.022 300.861, 2344.253 307.133, 2343.438 309.270 C 2341.579 314.145, 2341.367 349.957, 2343.177 353.316 C 2343.825 354.517, 2344.680 359.550, 2345.078 364.500 C 2345.628 371.342, 2346.424 374.652, 2348.401 378.303 C 2349.830 380.945, 2351 383.800, 2351 384.649 C 2351 386.013, 2352.484 389.362, 2355.144 394 C 2355.618 394.825, 2356.410 396.400, 2356.906 397.500 C 2357.402 398.600, 2358.751 400.494, 2359.904 401.708 C 2361.057 402.923, 2362 404.513, 2362 405.243 C 2362 406.847, 2379.862 425, 2381.440 425 C 2382.052 425, 2385.662 428.132, 2389.461 431.961 C 2393.620 436.152, 2397.531 439.177, 2399.288 439.563 C 2400.893 439.916, 2404.835 441.508, 2408.047 443.102 C 2411.260 444.696, 2415.229 446, 2416.867 446 C 2418.515 446, 2421.110 447.043, 2422.673 448.334 C 2428.233 452.925, 2431.796 454, 2441.463 454 C 2447.964 454, 2451.180 454.426, 2452.559 455.468 C 2453.943 456.515, 2457.243 456.946, 2464.063 456.968 C 2473.179 456.999, 2473.749 457.129, 2476.270 459.760 L 2478.915 462.521 2479.207 493.098 L 2479.500 523.675 2482.227 527.609 C 2487.641 535.417, 2488.024 535.500, 2518.578 535.500 L 2545.656 535.500 2549.292 532.726 C 2553.139 529.792, 2554.630 527.174, 2557.947 517.535 C 2559.796 512.161, 2560 509.172, 2560 487.403 L 2560 463.237 2563.190 460.119 C 2566.049 457.323, 2567.008 456.999, 2572.440 456.994 C 2575.859 456.990, 2579.748 456.337, 2581.364 455.494 C 2582.940 454.672, 2585.685 454, 2587.465 454 C 2589.246 454, 2592.682 452.949, 2595.101 451.664 C 2598.731 449.737, 2601.652 449.214, 2611.806 448.670 C 2624.368 447.997, 2626.982 447.288, 2630.500 443.598 C 2631.600 442.444, 2633.850 440.654, 2635.500 439.621 C 2637.150 438.587, 2639.631 436.692, 2641.014 435.409 C 2642.397 434.127, 2645.429 432.407, 2647.752 431.587 C 2654.448 429.225, 2663.979 419.137, 2663.993 414.395 C 2663.998 413.088, 2667.504 408.743, 2673.250 402.924 C 2685.070 390.955, 2685.985 389.579, 2685.993 383.758 C 2685.998 380.452, 2686.607 378.317, 2688.005 376.709 C 2689.108 375.441, 2690.908 372.642, 2692.005 370.490 C 2693.886 366.800, 2694 364.574, 2694 331.480 C 2694 302.168, 2693.758 296.062, 2692.532 294.441 C 2691.724 293.374, 2691.049 291.791, 2691.032 290.924 C 2691.014 290.058, 2689.875 288.292, 2688.500 287 C 2687.125 285.708, 2686 283.691, 2686 282.517 C 2686 281.343, 2685.339 279.509, 2684.532 278.441 C 2683.724 277.374, 2683.049 275.791, 2683.032 274.924 C 2683.014 274.058, 2681.881 272.297, 2680.513 271.012 C 2678.806 269.409, 2677.821 267.132, 2677.373 263.755 C 2676.757 259.113, 2676.025 258.117, 2664.418 246.150 C 2653.475 234.866, 2651.143 232.977, 2643.308 229.049 C 2638.464 226.621, 2634.258 224.281, 2633.962 223.850 C 2632.990 222.437, 2623.937 218, 2622.024 218 C 2620.995 218, 2618.881 216.941, 2617.327 215.647 C 2613.226 212.234, 2608.250 210.268, 2602.077 209.621 C 2599.094 209.309, 2596.191 208.591, 2595.627 208.027 C 2595.009 207.409, 2588.150 207, 2578.411 207 C 2564.447 207, 2561.923 206.758, 2560.048 205.240 C 2557.081 202.837, 2556.250 196.209, 2558.381 191.939 C 2560.626 187.438, 2560.712 159.270, 2558.500 153 C 2557.675 150.662, 2557 147.430, 2557 145.819 C 2557 141.211, 2553.404 134.488, 2549.127 131.100 L 2545.212 128 2518.356 128.030 C 2500.739 128.050, 2490.812 128.440, 2489.500 129.162 M 170.500 167.929 C 166.599 168.870, 163.068 170.732, 160.170 173.375 C 158.437 174.956, 156.004 175.655, 150.670 176.104 C 143.635 176.696, 139.311 177.843, 133.669 180.611 C 132.112 181.375, 130.371 182, 129.801 182 C 129.231 182, 127.226 183.350, 125.347 185 C 123.468 186.650, 121.475 188, 120.917 188 C 120.360 188, 118.862 189.125, 117.588 190.500 C 115.860 192.365, 114.253 193, 111.267 193 C 107.570 193, 106.506 193.728, 97.382 202.496 C 91.947 207.719, 86.993 211.994, 86.372 211.996 C 85.752 211.998, 84.685 212.675, 84 213.500 C 83.315 214.325, 81.975 215, 81.022 215 C 78.164 215, 67.422 226.224, 64.176 232.603 C 62.526 235.846, 59.279 240.300, 56.961 242.500 C 54.643 244.700, 51.539 248.366, 50.062 250.647 C 48.586 252.928, 44.593 257.864, 41.189 261.615 C 35.688 267.676, 35 268.898, 35 272.595 C 35 275.073, 34.393 277.258, 33.500 278 C 32.675 278.685, 32 280.278, 32 281.541 C 32 282.804, 31.249 285.337, 30.331 287.169 C 27.186 293.445, 27 293.978, 26.994 296.736 C 26.990 298.256, 26.315 300.789, 25.494 302.364 C 24.672 303.940, 23.984 306.190, 23.965 307.364 C 23.945 308.539, 23.286 310.625, 22.500 312 C 20.348 315.765, 20.318 390.717, 22.468 393.559 C 23.276 394.626, 23.951 396.686, 23.968 398.136 C 23.986 399.585, 24.672 402.060, 25.494 403.636 C 26.387 405.348, 26.990 409.220, 26.994 413.264 C 26.997 416.984, 27.418 420.809, 27.928 421.764 C 28.439 422.719, 29.850 425.681, 31.064 428.346 C 32.278 431.011, 34.898 435.144, 36.886 437.531 C 41.970 443.634, 44.309 447.339, 48.861 456.500 C 51.048 460.900, 54.246 465.843, 55.967 467.484 C 57.689 469.125, 60.243 473.019, 61.642 476.138 C 64.761 483.087, 78.083 496.492, 85.443 500.086 C 88.161 501.414, 92.886 504.751, 95.943 507.502 C 103.442 514.253, 110.404 519, 112.805 519 C 113.892 519, 116.960 520.800, 119.623 523 C 122.844 525.662, 125.447 527, 127.403 527 C 129.019 527, 133.078 528.301, 136.421 529.890 C 139.764 531.480, 143.634 533.037, 145.020 533.351 C 146.406 533.666, 148.457 534.728, 149.579 535.711 C 154.579 540.098, 157.839 540.999, 168.831 541.032 C 176.624 541.055, 180.023 541.459, 181.441 542.532 C 184.295 544.691, 226.705 544.691, 229.559 542.532 C 230.920 541.502, 234.168 541.054, 240.434 541.032 C 249.900 540.998, 255.753 539.141, 259.523 534.975 C 260.669 533.708, 262.599 532.999, 264.905 532.996 C 266.887 532.994, 271.191 531.650, 274.500 530 C 277.800 528.354, 281.225 527.006, 282.110 527.004 C 282.996 527.002, 285.267 525.987, 287.156 524.750 C 293.294 520.730, 296.771 519, 298.714 519 C 300.555 519, 306.516 514.569, 316.099 506.076 L 320.699 502 329.789 502 L 338.878 502 343.500 506 C 346.042 508.200, 348.657 510.004, 349.311 510.010 C 351.129 510.025, 360.902 514.759, 362.581 516.438 C 363.399 517.256, 365.625 518.355, 367.529 518.880 C 369.433 519.406, 372.874 521.448, 375.175 523.418 C 377.998 525.834, 380.359 527.002, 382.430 527.006 C 384.118 527.010, 386.789 527.685, 388.364 528.506 C 389.940 529.328, 391.797 530, 392.492 530 C 393.187 530, 394.315 530.675, 395 531.500 C 395.685 532.325, 397.461 533, 398.948 533 C 400.539 533, 402.618 534.029, 404 535.500 C 405.292 536.875, 407.115 538, 408.052 538 C 408.989 538, 410.315 538.675, 411 539.500 C 411.888 540.570, 414.287 541.009, 419.372 541.032 C 424.048 541.053, 427.168 541.569, 428.441 542.532 C 431.341 544.725, 474.177 544.697, 476 542.500 C 476.966 541.336, 479.668 541, 488.070 541 C 497.504 541, 499.460 540.699, 503.304 538.655 C 506.343 537.039, 510.134 536.127, 515.497 535.722 C 522.767 535.172, 523.528 534.891, 527.047 531.454 C 529.952 528.617, 531.859 527.657, 535.377 527.261 C 538.952 526.858, 540.796 525.908, 543.892 522.873 C 546.065 520.743, 548.458 519, 549.209 519 C 549.960 519, 552.808 516.721, 555.538 513.935 C 558.426 510.988, 563.401 507.434, 567.440 505.435 C 573.565 502.404, 575.301 502, 582.222 502 C 592.316 502, 595.142 503.259, 604.477 511.915 C 611.171 518.121, 612.592 519, 615.933 519 C 618.987 519, 620.619 519.797, 624.123 523 C 626.530 525.200, 629.463 527, 630.641 527 C 631.819 527, 634.904 528.753, 637.497 530.896 C 642.140 534.733, 645.511 536, 651.072 536 C 652.624 536, 656.010 537.125, 658.596 538.500 C 662.852 540.763, 664.446 541.003, 675.399 541.032 C 684.452 541.056, 687.989 541.433, 689.441 542.532 C 692.305 544.698, 739.695 544.698, 742.559 542.532 C 743.716 541.657, 746.773 541.051, 750.128 541.032 C 753.878 541.011, 756.170 540.500, 757 539.500 C 757.685 538.675, 759.011 538, 759.948 538 C 760.885 538, 762.708 536.875, 764 535.500 C 765.382 534.029, 767.461 533, 769.052 533 C 770.539 533, 772.315 532.325, 773 531.500 C 773.685 530.675, 774.977 529.986, 775.872 529.968 C 776.768 529.951, 778.374 529.276, 779.441 528.468 C 780.509 527.661, 783.070 527, 785.132 527 C 787.195 527, 789.160 526.550, 789.500 526 C 789.840 525.450, 790.936 525, 791.937 525 C 792.937 525, 794.315 524.325, 795 523.500 C 795.685 522.675, 797.024 522, 797.976 522 C 798.929 522, 800.937 520.861, 802.440 519.468 C 807.004 515.238, 815.191 509.516, 821 506.496 C 824.834 504.503, 830.893 499.186, 841 488.945 C 858.757 470.954, 859.932 469.592, 860.610 466.203 C 860.907 464.716, 862.916 461.549, 865.075 459.164 C 867.234 456.780, 869 454.398, 869 453.871 C 869 453.344, 870.660 451.118, 872.690 448.925 C 875.293 446.111, 877.162 442.518, 879.041 436.719 C 880.504 432.198, 882.669 426.605, 883.851 424.290 C 885.033 421.974, 886.002 418.824, 886.004 417.290 C 886.006 415.755, 887.354 411.800, 889 408.500 C 890.646 405.200, 892.008 401.600, 892.028 400.500 C 892.048 399.400, 892.724 397.626, 893.532 396.559 C 894.763 394.930, 895 388.440, 895 356.274 C 895 314.241, 895.354 316.928, 888.794 309.215 C 886.298 306.281, 886 305.161, 885.996 298.715 C 885.993 292.710, 885.491 290.494, 883 285.500 C 881.354 282.200, 880.006 278.764, 880.004 277.864 C 880.002 276.965, 879.328 274.940, 878.506 273.364 C 877.685 271.789, 877.010 269.804, 877.006 268.953 C 877.003 268.102, 875.200 265.648, 873 263.500 C 870.800 261.352, 869 258.962, 869 258.189 C 869 257.416, 866.703 254.399, 863.895 251.483 C 861.087 248.568, 857.533 243.554, 855.997 240.341 C 852.137 232.265, 829.508 209.332, 821.803 205.687 C 818.851 204.290, 814.222 201.085, 811.515 198.565 C 806.859 194.229, 799.783 190, 797.184 190 C 796.533 190, 796 189.594, 796 189.098 C 796 188.602, 794.763 187.729, 793.250 187.158 C 791.737 186.588, 788.763 184.519, 786.640 182.561 C 783.338 179.516, 782.087 179, 778.004 179 C 775.377 179, 771.940 178.328, 770.364 177.506 C 768.789 176.685, 765.067 176.010, 762.094 176.006 C 757.969 176.001, 755.956 175.443, 753.594 173.648 C 745.329 167.366, 746.405 167.528, 710.523 167.187 C 683.850 166.933, 676.202 167.164, 670.523 168.395 C 666.660 169.232, 661.230 170.128, 658.456 170.387 C 653.150 170.881, 648.419 172.997, 644.223 176.750 C 642.840 177.988, 640.479 179, 638.976 179 C 637.474 179, 635.685 179.675, 635 180.500 C 634.315 181.325, 632.933 182, 631.927 182 C 630.922 182, 629.740 182.618, 629.300 183.374 C 628.860 184.129, 626.138 186.193, 623.250 187.959 C 620.362 189.726, 618 191.583, 618 192.086 C 618 192.589, 616.942 193, 615.649 193 C 612.313 193, 604.202 197.492, 599.500 201.943 C 594.064 207.089, 589.482 209.120, 583.283 209.132 C 579.057 209.141, 577.540 208.655, 575.294 206.571 C 573.768 205.157, 571.783 204, 570.883 204 C 569.982 204, 568.685 203.325, 568 202.500 C 567.315 201.675, 566.210 201, 565.544 201 C 564.878 201, 562.383 199.200, 560 197 C 557.617 194.800, 554.890 193, 553.941 193 C 552.991 193, 551.955 192.325, 551.638 191.500 C 551.322 190.675, 550.410 190, 549.612 190 C 547.920 190, 541.654 186.847, 541.167 185.750 C 540.983 185.338, 540.026 185, 539.039 185 C 538.052 185, 536.685 184.325, 536 183.500 C 535.315 182.675, 533.965 182, 533 182 C 532.035 182, 530.685 181.325, 530 180.500 C 529.315 179.675, 528.290 179, 527.722 179 C 527.154 179, 525.214 177.875, 523.411 176.500 C 521.608 175.125, 519.801 174, 519.395 174 C 518.990 174, 517.883 173.299, 516.937 172.443 C 515.938 171.539, 511.921 170.504, 507.358 169.976 C 503.036 169.475, 497.475 168.620, 495 168.076 C 488.930 166.742, 428.764 166.792, 423 168.136 C 420.525 168.713, 414.602 169.500, 409.838 169.884 L 401.176 170.583 396.611 174.791 C 393.158 177.974, 391.235 179, 388.726 179 C 385.504 179, 383.573 180.061, 378.258 184.750 C 376.856 185.988, 374.960 187, 374.045 187 C 373.131 187, 371.509 187.661, 370.441 188.468 C 369.374 189.276, 367.349 189.951, 365.941 189.968 C 364.534 189.986, 362.509 190.661, 361.441 191.468 C 360.374 192.276, 358.769 192.951, 357.875 192.968 C 356.981 192.986, 352.519 196.564, 347.960 200.920 C 339.256 209.235, 336.032 210.748, 329.666 209.503 C 326.430 208.870, 322.677 207.464, 320 205.882 C 319.175 205.394, 317.600 204.598, 316.500 204.111 C 315.400 203.625, 312.780 201.601, 310.679 199.614 C 308.577 197.626, 306.561 196, 306.199 196 C 304.928 196, 286.894 186.550, 285.206 185 C 282.825 182.812, 275.269 179, 273.314 179 C 272.420 179, 270.296 177.942, 268.594 176.648 C 263.015 172.408, 258.605 170.669, 251.500 169.909 C 247.650 169.497, 242.475 168.693, 240 168.123 C 234.916 166.953, 175.237 166.786, 170.500 167.929 M 1036.500 203.980 C 1032.432 206.023, 1029.016 206.994, 1025.891 206.996 C 1021.940 206.999, 1020.632 207.571, 1016.737 211 C 1013.336 213.994, 1011.337 215, 1008.788 215 C 1006.915 215, 1004.509 215.661, 1003.441 216.468 C 1002.374 217.276, 1000.529 217.951, 999.342 217.968 C 993.941 218.048, 986.829 223.506, 970.549 240.069 C 960.342 250.452, 954 257.667, 954 258.893 C 954 259.987, 953.589 261.136, 953.087 261.446 C 952.585 261.757, 951.870 263.808, 951.499 266.005 C 951.128 268.202, 950.414 270, 949.912 270 C 949.410 270, 949 271.935, 949 274.300 C 949 276.665, 948.474 279.126, 947.832 279.768 C 946.472 281.128, 944.041 287.281, 943.290 291.262 C 943.004 292.781, 942.371 294.271, 941.885 294.571 C 940.623 295.351, 940.736 370.719, 942 371.500 C 942.550 371.840, 943 373.711, 943 375.658 C 943 378.868, 944.716 384.079, 947.065 388 C 947.559 388.825, 949.077 391.752, 950.438 394.504 C 951.799 397.256, 954.493 401.081, 956.424 403.004 C 958.356 404.927, 959.951 406.967, 959.968 407.539 C 960.133 412.930, 981.019 435.778, 989 439.297 C 991.475 440.388, 995.018 442.603, 996.873 444.218 C 998.728 445.833, 1001.428 447.673, 1002.873 448.307 C 1004.318 448.941, 1005.725 449.693, 1006.001 449.980 C 1007.912 451.965, 1013.913 454, 1017.859 454 C 1021.368 454, 1024.533 455.011, 1030.377 458 L 1038.198 462 1081.507 462 L 1124.815 462 1130.158 459.393 C 1133.096 457.959, 1136.694 456.159, 1138.154 455.393 C 1139.614 454.627, 1142.809 454, 1145.254 454 C 1150.332 454, 1161.449 448.710, 1166.583 443.850 C 1168.279 442.244, 1171.285 440.484, 1173.262 439.938 C 1177.594 438.742, 1194.534 422.359, 1196.633 417.336 C 1197.385 415.536, 1198 411.666, 1198 408.735 C 1198 403.835, 1198.322 403.091, 1202 399.500 L 1206 395.594 1206 387.731 C 1206 383.407, 1205.495 378.925, 1204.878 377.772 C 1202.596 373.507, 1196.311 368.279, 1189.747 365.184 L 1182.995 362 1169.247 362.081 C 1154.357 362.168, 1155.210 361.923, 1143.866 369.364 C 1137.757 373.370, 1130.177 380.850, 1128.018 385 C 1127.017 386.925, 1123.716 390.863, 1120.683 393.750 C 1116.026 398.184, 1114.572 399.005, 1111.334 399.032 C 1109.225 399.049, 1106.626 399.724, 1105.559 400.532 C 1103.988 401.720, 1099.405 402, 1081.549 402 L 1059.480 402 1056.990 399.733 C 1051.299 394.551, 1048.609 393, 1045.315 393 C 1042.473 393, 1040.817 391.944, 1035.450 386.707 L 1029 380.414 1028.994 372.957 C 1028.990 368.298, 1028.427 364.425, 1027.494 362.636 C 1026.672 361.060, 1026 359.203, 1026 358.508 C 1026 357.813, 1025.325 356.685, 1024.500 356 C 1022.209 354.099, 1022.270 306.851, 1024.566 304.945 C 1027.415 302.581, 1029 298.172, 1029 292.610 C 1029 287.734, 1029.418 286.620, 1032.750 282.626 C 1034.813 280.154, 1037.408 276.641, 1038.517 274.820 C 1039.627 273, 1041.652 270.963, 1043.017 270.293 C 1044.383 269.623, 1047.269 267.484, 1049.432 265.538 L 1053.363 262 1078.942 262 L 1104.520 262 1107.010 264.250 C 1108.380 265.488, 1111.685 267.568, 1114.355 268.872 C 1120.281 271.769, 1125.593 276.312, 1127.608 280.208 C 1130.153 285.130, 1136.136 291.035, 1141.153 293.578 L 1145.934 296 1167.390 296 L 1188.847 296 1191.859 293.465 C 1193.517 292.070, 1196.701 288.251, 1198.936 284.976 L 1203 279.023 1202.919 270.761 C 1202.855 264.147, 1202.406 261.786, 1200.669 258.921 C 1199.476 256.952, 1197.600 253.858, 1196.500 252.045 C 1195.400 250.231, 1193.553 247.567, 1192.395 246.124 C 1191.237 244.681, 1189.755 241.860, 1189.102 239.856 C 1187.448 234.778, 1184.455 231.697, 1177.624 228.036 C 1174.392 226.305, 1170.117 223.342, 1168.124 221.453 C 1166.131 219.563, 1163.825 218.001, 1163 217.981 C 1162.175 217.961, 1160.188 216.607, 1158.583 214.972 C 1156.979 213.338, 1154.868 212, 1153.892 212 C 1152.916 212, 1151.840 211.550, 1151.500 211 C 1151.160 210.450, 1150.121 209.997, 1149.191 209.994 C 1148.261 209.990, 1146.211 209.315, 1144.636 208.494 C 1142.628 207.447, 1138.646 207, 1131.319 207 C 1121.457 207, 1120.663 206.845, 1117.263 204.250 L 1113.659 201.500 1078.079 201.234 L 1042.500 200.968 1036.500 203.980 M 1616.042 201.732 C 1615.239 202.047, 1613.444 203.362, 1612.052 204.653 C 1609.919 206.630, 1608.465 207, 1602.819 207 C 1599.134 207, 1595.871 207.399, 1595.570 207.887 C 1595.269 208.374, 1593.446 209.069, 1591.519 209.430 C 1587.769 210.134, 1578 214.845, 1578 215.950 C 1578 216.316, 1576.259 217.383, 1574.131 218.322 C 1571.612 219.433, 1564.717 225.832, 1554.381 236.649 C 1545.646 245.790, 1537.286 254.501, 1535.801 256.006 C 1534.317 257.512, 1532.806 259.926, 1532.443 261.372 C 1532.080 262.817, 1531.382 264, 1530.892 264 C 1530.401 264, 1529.997 265.012, 1529.994 266.250 C 1529.990 267.488, 1529.315 269.789, 1528.494 271.364 C 1527.672 272.940, 1527 275.247, 1527 276.492 C 1527 277.737, 1526.325 279.315, 1525.500 280 C 1524.517 280.816, 1524 283.046, 1524 286.474 C 1524 290.323, 1523.275 292.994, 1521.250 296.601 L 1518.500 301.500 1518.500 334.073 L 1518.500 366.646 1521.250 370.802 C 1523.531 374.248, 1524 376.049, 1524 381.356 C 1524 385.824, 1524.453 388.131, 1525.500 389 C 1526.325 389.685, 1527 391.063, 1527 392.063 C 1527 393.064, 1527.449 394.159, 1527.997 394.498 C 1528.545 394.837, 1530.087 397.451, 1531.424 400.307 C 1532.761 403.163, 1535.194 406.891, 1536.831 408.592 C 1538.467 410.293, 1540.797 413.893, 1542.009 416.592 C 1544.844 422.910, 1548.119 426.339, 1554.424 429.589 C 1557.216 431.028, 1560.850 433.424, 1562.500 434.912 C 1566.298 438.338, 1572.038 441.882, 1578.750 444.946 C 1581.638 446.264, 1584 447.651, 1584 448.029 C 1584 449.173, 1594.026 454, 1596.401 454 C 1597.620 454, 1599.491 454.661, 1600.559 455.468 C 1602.052 456.597, 1605.826 456.944, 1616.906 456.968 C 1630.707 456.999, 1631.449 457.105, 1634.589 459.500 L 1637.867 462 1671.447 462 C 1694.888 462, 1705.702 461.651, 1707.264 460.845 C 1708.494 460.209, 1710.175 459.306, 1711 458.838 C 1711.825 458.370, 1713.175 457.717, 1714 457.387 C 1714.825 457.056, 1716.918 456.159, 1718.651 455.393 C 1720.384 454.627, 1723.658 454, 1725.926 454 C 1733.960 454, 1742.097 448.662, 1756.250 434.107 L 1769 420.995 1769.007 416.748 C 1769.013 413.150, 1769.618 411.888, 1772.958 408.500 C 1776.473 404.935, 1776.907 403.953, 1776.951 399.471 C 1776.998 394.689, 1776.725 394.159, 1771.408 388.714 C 1767.683 384.898, 1763.393 381.821, 1758.553 379.493 C 1751.589 376.144, 1750.830 376, 1740.113 376 C 1732.440 376, 1727.810 376.470, 1725.346 377.500 C 1723.371 378.325, 1720.722 379, 1719.458 379 C 1715.963 379, 1703.836 385.542, 1700.006 389.494 C 1698.137 391.422, 1696.059 393, 1695.388 393 C 1694.717 393, 1692.217 394.819, 1689.834 397.043 C 1687.450 399.266, 1684.600 401.312, 1683.500 401.588 C 1682.400 401.865, 1668.675 401.958, 1653 401.795 L 1624.500 401.500 1620.087 397.250 C 1617.416 394.678, 1614.735 393, 1613.295 393 C 1609.500 393, 1607.017 389.629, 1602.983 379 C 1602.252 377.075, 1601.472 372.498, 1601.248 368.829 C 1600.899 363.085, 1601.131 361.869, 1602.921 360.079 L 1605 358 1686.750 357.993 C 1777.931 357.986, 1770.199 358.587, 1776.893 350.990 L 1779.968 347.500 1779.984 324.450 C 1779.996 307.795, 1779.666 301.066, 1778.796 300.196 C 1778.079 299.479, 1777.447 295.047, 1777.233 289.246 C 1776.853 278.952, 1775.405 274.364, 1771.250 270.298 C 1770.013 269.087, 1769 267.454, 1769 266.670 C 1769 265.886, 1768.325 264.685, 1767.500 264 C 1766.675 263.315, 1766 262.159, 1766 261.430 C 1766 257.792, 1760.005 249.980, 1747.005 236.680 C 1738.030 227.498, 1731.419 221.558, 1729.333 220.803 C 1727.500 220.141, 1726 219.239, 1726 218.799 C 1726 218.360, 1725.374 218, 1724.609 218 C 1723.844 218, 1721.103 216.253, 1718.519 214.117 C 1715.036 211.239, 1712.559 210.067, 1708.951 209.588 C 1706.273 209.233, 1703.812 208.505, 1703.482 207.971 C 1703.152 207.437, 1698.464 207, 1693.063 207 C 1685.556 207, 1682.952 206.647, 1682 205.500 C 1681.315 204.675, 1680.187 204, 1679.492 204 C 1678.797 204, 1676.940 203.328, 1675.364 202.506 C 1673.015 201.281, 1667.553 201.025, 1645 201.085 C 1629.875 201.125, 1616.844 201.416, 1616.042 201.732 M 2147.489 202.433 C 2146.395 203.260, 2144.768 203.951, 2143.872 203.968 C 2142.977 203.986, 2141.685 204.675, 2141 205.500 C 2140.154 206.519, 2137.889 207, 2133.937 207 C 2130.736 207, 2127.864 207.411, 2127.554 207.913 C 2127.243 208.415, 2125.304 209.138, 2123.245 209.520 C 2119.474 210.219, 2116.490 211.758, 2107.235 217.775 C 2101.057 221.791, 2068 255.680, 2068 257.997 C 2068 258.915, 2066.662 260.979, 2065.028 262.583 C 2063.393 264.188, 2062.043 266.261, 2062.028 267.191 C 2062.012 268.121, 2061.550 269.160, 2061 269.500 C 2060.450 269.840, 2059.997 270.879, 2059.994 271.809 C 2059.990 272.739, 2059.315 274.789, 2058.494 276.364 C 2057.583 278.110, 2057 281.965, 2057 286.234 C 2057 292.490, 2056.519 294.235, 2052.500 302.553 L 2048 311.866 2048.035 332.183 C 2048.063 347.911, 2048.394 353.065, 2049.500 355 C 2050.413 356.597, 2050.942 360.498, 2050.965 365.805 C 2051.002 374.546, 2053.022 380.961, 2057.125 385.364 C 2058.199 386.517, 2059.327 388.594, 2059.633 389.980 C 2060.536 394.082, 2063.112 399.208, 2065.639 401.933 C 2066.937 403.334, 2068 404.939, 2068 405.500 C 2068 406.061, 2069.125 407.734, 2070.500 409.217 C 2071.875 410.699, 2073 412.957, 2073 414.234 C 2073 417.446, 2075.051 420.169, 2084.964 430.121 C 2090.417 435.596, 2094.637 438.986, 2096.525 439.411 C 2098.161 439.778, 2101.251 441.648, 2103.391 443.567 C 2109.157 448.735, 2120.458 454, 2125.786 454 C 2129.664 454, 2132.432 454.940, 2138 458.148 C 2138.825 458.624, 2140.175 459.268, 2141 459.579 C 2141.825 459.891, 2143.281 460.563, 2144.236 461.073 C 2146.305 462.177, 2230.678 462.349, 2231.167 461.250 C 2231.350 460.837, 2233.203 459.038, 2235.285 457.250 C 2238.309 454.653, 2239.951 454, 2243.453 454 C 2248.658 454, 2260.767 448.558, 2265.433 444.121 C 2267.120 442.518, 2270.897 439.969, 2273.827 438.458 C 2282.556 433.955, 2295.868 419.029, 2296.032 413.562 C 2296.049 412.978, 2297.659 410.925, 2299.610 409 C 2302.915 405.739, 2306.945 398.993, 2307.042 396.562 C 2307.066 395.978, 2308.416 394.396, 2310.042 393.047 C 2311.669 391.698, 2313 389.922, 2313 389.102 C 2313 388.281, 2314.178 386.380, 2315.617 384.878 C 2318.045 382.343, 2318.270 381.331, 2318.739 370.823 C 2319.213 360.191, 2319.481 359.017, 2323.122 351.591 L 2327 343.683 2327 331.916 L 2327 320.149 2323.157 312.203 C 2319.991 305.655, 2319.200 302.766, 2318.664 295.790 C 2318.187 289.580, 2317.345 286.066, 2315.507 282.608 C 2314.128 280.016, 2313 276.375, 2313 274.519 C 2313 272.662, 2312.325 270.468, 2311.500 269.643 C 2310.675 268.818, 2310 267.506, 2310 266.729 C 2310 265.951, 2307.487 262.678, 2304.416 259.456 C 2297.337 252.029, 2296 250.096, 2296 247.281 C 2296 243.772, 2275.297 222.897, 2269.246 220.305 C 2261.209 216.862, 2257.660 215.731, 2253.449 215.272 C 2250.526 214.953, 2248.184 213.741, 2245.030 210.915 C 2240.883 207.200, 2240.325 207, 2234.070 207 C 2228.266 207, 2227.126 206.672, 2224.515 204.250 L 2221.550 201.500 2185.514 201.215 C 2154.691 200.971, 2149.190 201.148, 2147.489 202.433 M 2811.190 204.030 C 2807.257 205.881, 2803.264 207, 2800.590 207 C 2797.432 207, 2795.232 207.774, 2792.250 209.934 C 2790.022 211.548, 2787.903 213.348, 2787.541 213.934 C 2787.178 214.520, 2785.536 215, 2783.891 215 C 2780.224 215, 2776.287 216.967, 2773.076 220.405 C 2771.742 221.832, 2769.942 223.003, 2769.076 223.006 C 2768.209 223.010, 2766.211 223.685, 2764.636 224.506 C 2763.060 225.328, 2761.240 226, 2760.591 226 C 2759.056 226, 2731.663 253.732, 2729.970 257 C 2729.258 258.375, 2727.452 261.075, 2725.957 263 C 2724.461 264.925, 2722.462 268.750, 2721.513 271.500 C 2720.565 274.250, 2719.410 277.400, 2718.948 278.500 C 2718.485 279.600, 2717.963 285.230, 2717.787 291.010 C 2717.493 300.669, 2717.246 301.812, 2714.734 305.105 L 2712 308.689 2712 332.657 L 2712 356.626 2714.656 362.063 C 2716.408 365.648, 2717.522 369.941, 2717.926 374.667 C 2718.305 379.094, 2719.158 382.535, 2720.156 383.667 C 2721.045 384.675, 2723.141 388.089, 2724.813 391.254 C 2726.486 394.418, 2729.291 398.445, 2731.048 400.202 C 2732.805 401.959, 2734.682 404.657, 2735.219 406.198 C 2735.756 407.739, 2736.602 409, 2737.098 409 C 2737.594 409, 2738 409.580, 2738 410.289 C 2738 413.349, 2742.533 420.015, 2749.194 426.750 C 2753.137 430.738, 2756.849 434, 2757.442 434 C 2758.035 434, 2760.316 435.713, 2762.510 437.807 C 2764.705 439.901, 2768.975 442.889, 2772 444.446 C 2775.025 446.003, 2779.268 448.790, 2781.430 450.639 C 2784.003 452.839, 2786.400 454, 2788.370 454 C 2790.883 454, 2797.212 456.521, 2806.236 461.116 C 2807.191 461.602, 2820.270 462, 2835.299 462 L 2862.626 462 2867.808 459.500 C 2872.395 457.287, 2874.287 457, 2884.273 457 L 2895.555 457 2903.104 453.140 C 2907.256 451.016, 2912.745 448.965, 2915.303 448.582 C 2917.861 448.198, 2920.215 447.460, 2920.536 446.942 C 2920.856 446.424, 2922.228 446, 2923.584 446 C 2931.106 446, 2950.242 431.795, 2957.104 421.117 C 2958.653 418.707, 2961.963 414.577, 2964.460 411.939 C 2966.957 409.302, 2969 406.492, 2969 405.695 C 2969 404.897, 2969.675 403.685, 2970.500 403 C 2971.325 402.315, 2972.015 401.023, 2972.033 400.128 C 2972.051 399.232, 2973.851 396.712, 2976.033 394.527 C 2979.360 391.195, 2980 389.895, 2980 386.468 C 2980 384.221, 2980.661 381.509, 2981.468 380.441 C 2982.589 378.960, 2982.951 375.185, 2983 364.500 C 2983.049 353.815, 2983.411 350.040, 2984.532 348.559 C 2985.339 347.491, 2986 345.841, 2986 344.892 C 2986 343.943, 2986.563 342.979, 2987.250 342.750 C 2988.185 342.438, 2988.500 338.046, 2988.500 325.339 L 2988.500 308.344 2985.750 304.739 C 2983.252 301.464, 2983 300.360, 2983 292.689 C 2983 286.403, 2982.617 283.927, 2981.500 283 C 2980.604 282.256, 2980 280.070, 2980 277.569 C 2980 273.770, 2979.399 272.763, 2973.500 266.688 C 2969.925 263.006, 2967 259.291, 2967 258.433 C 2967 254.071, 2961.639 245.947, 2952.991 237.205 C 2945.634 229.768, 2942.195 227.119, 2935.789 223.956 C 2931.385 221.781, 2925.388 217.814, 2922.462 215.139 C 2918.062 211.118, 2916.271 210.161, 2912.112 209.609 C 2909.345 209.242, 2906.812 208.505, 2906.482 207.971 C 2906.152 207.437, 2901.746 206.998, 2896.691 206.996 C 2888.491 206.993, 2886.853 206.670, 2881.500 204 L 2875.500 201.008 2846.500 201.033 L 2817.500 201.059 2811.190 204.030 M 3148.441 202.468 C 3147.374 203.276, 3145.768 203.951, 3144.872 203.968 C 3143.977 203.986, 3142.685 204.675, 3142 205.500 C 3141.254 206.398, 3139.068 207, 3136.547 207 C 3133.046 207, 3131.597 207.670, 3127.920 210.986 C 3124.605 213.975, 3122.648 214.975, 3120.094 214.986 C 3116.993 214.999, 3112.430 217.575, 3108.179 221.714 C 3105.650 224.175, 3101.407 223.228, 3098.104 219.465 C 3096.397 217.521, 3095 215.566, 3095 215.121 C 3095 213.840, 3090.717 209.356, 3088.316 208.122 C 3086.866 207.377, 3077.399 207, 3060.162 207 L 3034.193 207 3029.443 211.301 C 3025.253 215.094, 3024.601 216.245, 3023.919 221.051 C 3022.758 229.237, 3022.820 508.329, 3023.985 515.444 C 3025.102 522.267, 3028.270 526.073, 3036.454 530.424 L 3041.298 533 3065.189 533 C 3086.911 533, 3089.427 532.823, 3092.906 531.048 C 3098.955 527.962, 3102.815 524.207, 3104.988 519.294 C 3106.852 515.081, 3107 512.629, 3107 486.028 C 3107 459.476, 3107.138 457.185, 3108.829 455.655 C 3111.073 453.624, 3116.284 453.514, 3119.846 455.422 C 3121.306 456.203, 3123.175 457.101, 3124 457.415 C 3124.825 457.730, 3126.175 458.370, 3127 458.838 C 3127.825 459.306, 3129.506 460.209, 3130.736 460.845 C 3132.303 461.654, 3143.472 462, 3168.030 462 L 3203.087 462 3205.783 459.500 C 3207.266 458.125, 3209.609 456.986, 3210.990 456.968 C 3212.370 456.951, 3214.374 456.276, 3215.441 455.468 C 3216.509 454.661, 3218.127 454, 3219.037 454 C 3220.672 454, 3223.383 452.865, 3231.805 448.653 C 3234.407 447.352, 3242.348 440.169, 3251.873 430.500 C 3263.873 418.320, 3268.276 413.141, 3270.320 408.808 C 3271.796 405.677, 3273.453 402.838, 3274.002 402.499 C 3274.551 402.160, 3275 401.190, 3275 400.344 C 3275 399.499, 3276.800 396.762, 3279 394.263 C 3282.257 390.562, 3283.006 388.955, 3283.032 385.609 C 3283.049 383.349, 3283.724 380.626, 3284.532 379.559 C 3286.689 376.707, 3286.659 287.777, 3284.500 284 C 3283.714 282.625, 3283.055 279.679, 3283.035 277.453 C 3283.006 274.072, 3282.341 272.763, 3279 269.500 C 3276.800 267.352, 3275 264.841, 3275 263.919 C 3275 262.998, 3274.325 261.685, 3273.500 261 C 3272.675 260.315, 3272 258.910, 3272 257.878 C 3272 256.845, 3271.599 256, 3271.108 256 C 3270.618 256, 3269.930 254.856, 3269.579 253.458 C 3269.228 252.060, 3265.552 247.370, 3261.411 243.035 C 3256.488 237.882, 3253.529 233.877, 3252.863 231.468 C 3252.304 229.440, 3250.538 226.504, 3248.940 224.942 C 3245.517 221.596, 3232.575 215, 3229.432 215 C 3228.229 215, 3226.685 214.325, 3226 213.500 C 3225.315 212.675, 3224.116 212, 3223.334 212 C 3222.552 212, 3220.699 210.875, 3219.217 209.500 C 3217.003 207.448, 3215.511 207, 3210.883 207 C 3207.091 207, 3204.837 206.509, 3204 205.500 C 3203.315 204.675, 3202.187 204, 3201.492 204 C 3200.797 204, 3198.940 203.328, 3197.364 202.506 C 3193.198 200.333, 3151.307 200.301, 3148.441 202.468 M 1242.946 212.056 L 1238 217.133 1238 331.344 C 1238 437.887, 1238.116 445.721, 1239.726 448.027 C 1241.829 451.040, 1248.191 456.989, 1249.317 456.995 C 1249.766 456.998, 1251.608 458.125, 1253.411 459.500 L 1256.689 462 1330.858 462 C 1371.651 462, 1405.809 461.614, 1406.764 461.143 C 1407.719 460.671, 1409.919 459.546, 1411.654 458.643 C 1413.389 457.739, 1416.597 457, 1418.782 457 C 1420.968 457, 1424.371 456.325, 1426.346 455.500 C 1428.346 454.664, 1432.956 454, 1436.756 454 C 1443.743 454, 1447.263 452.797, 1453.708 448.208 C 1455.413 446.994, 1457.513 446, 1458.374 446 C 1460.192 446, 1467.749 442.215, 1468.564 440.896 C 1468.869 440.403, 1469.902 440, 1470.861 440 C 1471.819 440, 1475.453 437.188, 1478.937 433.750 C 1483.548 429.200, 1486.186 425.494, 1488.636 420.125 C 1490.486 416.069, 1492 411.933, 1492 410.934 C 1492 409.935, 1492.399 408.871, 1492.887 408.570 C 1493.374 408.269, 1494.090 406.330, 1494.476 404.261 C 1494.863 402.192, 1495.695 399.875, 1496.326 399.112 C 1496.977 398.325, 1497.455 394.429, 1497.432 390.112 C 1497.398 384.106, 1496.849 381.339, 1494.831 377 C 1492.966 372.991, 1492.145 369.266, 1491.802 363.258 L 1491.332 355.017 1478.666 342.333 L 1466 329.648 1466 323.540 L 1466 317.432 1471.500 312 C 1474.525 309.013, 1477 306.190, 1477 305.728 C 1477 305.266, 1478.350 302.167, 1480 298.841 L 1483 292.795 1483 272.212 L 1483 251.629 1479.143 247.054 C 1477.021 244.538, 1474.270 240.459, 1473.030 237.990 C 1470.447 232.848, 1467.202 229, 1465.448 229 C 1464.786 229, 1463.685 228.325, 1463 227.500 C 1462.315 226.675, 1461.023 225.978, 1460.128 225.951 C 1459.232 225.924, 1456.700 224.127, 1454.500 221.958 C 1452.300 219.789, 1450.132 218.011, 1449.683 218.007 C 1449.234 218.003, 1447.434 216.931, 1445.683 215.625 C 1443.932 214.318, 1440.925 212.576, 1439 211.753 C 1429.972 207.893, 1424.985 207.680, 1335.196 207.324 L 1247.891 206.978 1242.946 212.056 M 1796.687 210.380 C 1793.983 213.084, 1793.178 214.833, 1792.662 219.130 C 1791.841 225.969, 1791.833 239.961, 1792.646 246.730 C 1793.464 253.545, 1798.155 259.209, 1805.767 262.576 L 1811.249 265 1842.384 265 L 1873.519 265 1875.009 267.250 C 1876.292 269.186, 1876.570 281.723, 1877 357 C 1877.569 456.550, 1876.576 446.689, 1886.999 456.339 L 1893.114 462 1915.504 462 L 1937.894 462 1942.616 459.490 C 1945.213 458.109, 1949.333 454.846, 1951.771 452.240 C 1960.079 443.360, 1959.439 450.966, 1960 354.428 C 1960.458 275.591, 1960.641 268.215, 1962.179 266.678 C 1963.678 265.179, 1967.175 265, 1994.901 265 L 2025.945 265 2031.387 262.424 C 2037.488 259.535, 2038.837 258.236, 2041.697 252.500 C 2046.166 243.537, 2048.463 232.022, 2046.077 230.548 C 2045.569 230.234, 2044.839 228.520, 2044.454 226.739 C 2043.232 221.089, 2039.220 214.344, 2034.860 210.612 L 2030.640 207 1915.353 207 L 1800.067 207 1796.687 210.380 M 1630.559 263.532 C 1629.491 264.339, 1627.002 265, 1625.028 265 C 1621.975 265, 1620.597 265.860, 1615.823 270.750 C 1612.735 273.913, 1609.909 277.625, 1609.542 279 C 1608.771 281.887, 1607.342 285.372, 1605.378 289.154 C 1603.901 291.999, 1603.561 297.797, 1604.765 299.600 C 1606.878 302.764, 1610.077 302.999, 1649.684 302.900 C 1671.583 302.845, 1690.625 302.490, 1692 302.111 C 1695.097 301.257, 1695.938 296.081, 1693.569 292.464 C 1692.551 290.911, 1692 287.792, 1692 283.585 L 1692 277.099 1685.969 271.049 C 1680.782 265.846, 1679.419 264.996, 1676.219 264.968 C 1674.174 264.951, 1671.626 264.276, 1670.559 263.468 C 1667.732 261.330, 1633.398 261.385, 1630.559 263.532 M 2163.559 263.532 C 2162.491 264.339, 2159.864 265, 2157.720 265 C 2154.409 265, 2153.156 265.684, 2149.411 269.538 C 2146.985 272.034, 2144.998 274.397, 2144.996 274.788 C 2144.994 275.180, 2143.646 278.200, 2142 281.500 C 2139.958 285.594, 2139.006 288.990, 2139.004 292.191 C 2139.002 294.771, 2138.550 297.160, 2138 297.500 C 2137.366 297.892, 2137 310.324, 2137 331.500 C 2137 352.676, 2137.366 365.108, 2138 365.500 C 2138.550 365.840, 2139 368.350, 2139 371.078 C 2139 374.673, 2139.826 377.585, 2142 381.660 C 2143.650 384.752, 2145 387.793, 2145 388.419 C 2145 389.966, 2148.670 393, 2150.543 393 C 2151.379 393, 2152.322 393.675, 2152.638 394.500 C 2152.955 395.325, 2153.814 396, 2154.547 396 C 2155.280 396, 2158.482 397.350, 2161.663 399 L 2167.445 402 2187.472 401.994 C 2203.284 401.989, 2208.103 401.673, 2210.364 400.494 C 2211.940 399.672, 2213.599 399, 2214.053 399 C 2214.506 399, 2216.355 397.650, 2218.161 396 C 2219.968 394.350, 2222.036 393, 2222.757 393 C 2224.375 393, 2229.988 387.380, 2230.032 385.716 C 2230.049 385.047, 2230.724 383.626, 2231.532 382.559 C 2232.543 381.222, 2233 378.090, 2233 372.500 C 2233 366.910, 2233.457 363.778, 2234.468 362.441 C 2236.605 359.616, 2236.634 304.732, 2234.500 301 C 2233.604 299.432, 2233.058 295.555, 2233.035 290.603 L 2233 282.707 2224.301 273.853 C 2216.228 265.637, 2215.310 264.998, 2211.551 264.968 C 2209.323 264.951, 2206.626 264.276, 2205.559 263.468 C 2202.726 261.325, 2166.404 261.380, 2163.559 263.532 M 2828 263.500 C 2827.315 264.325, 2825.754 265, 2824.531 265 C 2822.181 265, 2816.186 267.654, 2814.500 269.441 C 2813.950 270.023, 2812.424 272.750, 2811.109 275.500 C 2809.793 278.250, 2807.863 281.448, 2806.819 282.607 C 2805.775 283.765, 2804.678 286.465, 2804.381 288.607 C 2804.084 290.748, 2803.467 293.400, 2803.010 294.500 C 2799.406 303.178, 2799 306.993, 2799.004 332.188 L 2799.009 357.500 2801.483 364.500 C 2802.912 368.541, 2803.967 373.761, 2803.979 376.849 C 2804.016 386.143, 2808.407 393, 2814.323 393 C 2817.653 393, 2820.866 394.888, 2825.795 399.740 L 2828.091 402 2850.512 402 L 2872.933 402 2878 397.500 C 2880.787 395.025, 2883.643 393, 2884.346 393 C 2886.169 393, 2890.312 388.229, 2892.840 383.219 C 2894.506 379.917, 2895 377.144, 2895 371.092 C 2895 365.337, 2895.400 362.913, 2896.500 362 C 2897.325 361.315, 2898 359.965, 2898 359 C 2898 358.035, 2898.675 356.685, 2899.500 356 C 2900.325 355.315, 2901 353.937, 2901 352.937 C 2901 351.936, 2901.450 350.840, 2902 350.500 C 2903.259 349.722, 2903.362 310.786, 2902.109 309.450 C 2901.619 308.928, 2901.025 304.675, 2900.790 300 C 2900.353 291.332, 2899.658 289.359, 2894.750 282.856 C 2893.238 280.852, 2892 278.489, 2892 277.606 C 2892 276.723, 2891.594 276, 2891.098 276 C 2890.602 276, 2889.746 274.709, 2889.196 273.131 C 2887.635 268.654, 2883.084 265.006, 2879.010 264.965 C 2877.080 264.945, 2874.375 264.286, 2873 263.500 C 2869.242 261.352, 2829.783 261.352, 2828 263.500 M 1324.655 266.829 C 1323.285 268.342, 1323 271.008, 1323 282.283 L 1323 295.909 1326.250 296.513 C 1328.037 296.846, 1343.944 296.979, 1361.598 296.809 C 1386.983 296.565, 1394.042 296.213, 1395.348 295.128 C 1396.728 293.981, 1396.995 291.674, 1396.968 281.128 C 1396.946 272.215, 1396.546 267.985, 1395.608 266.750 C 1394.389 265.144, 1391.488 265, 1360.295 265 C 1328.641 265, 1326.196 265.125, 1324.655 266.829 M 2453.500 266.841 C 2451.850 267.754, 2450.350 268.837, 2450.167 269.250 C 2449.983 269.663, 2449.059 270, 2448.113 270 C 2446.014 270, 2440.475 275.656, 2439.543 278.750 C 2439.170 279.988, 2438.446 281, 2437.933 281 C 2437.420 281, 2437 281.838, 2437 282.862 C 2437 283.887, 2435.650 286.424, 2434 288.500 L 2431 292.275 2431 303.905 C 2431 314.663, 2430.812 315.812, 2428.500 319.215 C 2426.285 322.474, 2426 323.934, 2426 332.014 C 2426 340.201, 2426.256 341.469, 2428.500 344.411 C 2430.846 347.487, 2431 348.429, 2431 359.691 C 2431 370.430, 2431.220 371.947, 2433.088 374.097 C 2434.237 375.419, 2436.371 378.975, 2437.830 382 C 2440.736 388.022, 2445.022 393, 2447.301 393 C 2448.101 393, 2449.315 393.675, 2450 394.500 C 2450.685 395.325, 2452.035 396, 2453 396 C 2453.965 396, 2455.315 396.675, 2456 397.500 C 2456.699 398.342, 2458.879 399, 2460.969 399 C 2463.017 399, 2466.129 399.717, 2467.885 400.592 C 2474.365 403.825, 2474 407.759, 2474 334.686 C 2474 257.918, 2475.067 264.938, 2463.421 265.091 C 2458.999 265.150, 2455.417 265.782, 2453.500 266.841 M 2561.655 266.829 C 2560.152 268.490, 2560 274.482, 2560 332.282 C 2560 378.157, 2560.321 396.611, 2561.152 398.434 C 2562.678 401.782, 2565.318 402.487, 2569.161 400.570 C 2570.891 399.706, 2572.956 399, 2573.749 399 C 2574.542 399, 2576.498 398.325, 2578.096 397.500 C 2579.693 396.675, 2582.307 395.325, 2583.904 394.500 C 2585.502 393.675, 2588.338 393, 2590.208 393 C 2594.890 393, 2599.543 388.073, 2600.515 382.085 C 2600.909 379.657, 2602.304 375.653, 2603.616 373.186 C 2605.628 369.401, 2606 367.274, 2606 359.542 C 2606 353.036, 2606.425 349.820, 2607.468 348.441 C 2609.548 345.692, 2609.574 318.627, 2607.500 315 C 2606.560 313.355, 2606.059 309.403, 2606.035 303.441 C 2606.011 297.070, 2605.564 293.806, 2604.532 292.441 C 2603.724 291.374, 2603.049 289.712, 2603.032 288.750 C 2603.014 287.788, 2602.599 287, 2602.108 287 C 2601.618 287, 2600.955 285.957, 2600.635 284.683 C 2600.316 283.409, 2596.120 278.459, 2591.312 273.683 L 2582.570 265 2572.940 265 C 2564.881 265, 2563.040 265.298, 2561.655 266.829 M 3134 265.808 C 3134 266.896, 3126.831 270, 3124.316 270 C 3123.172 270, 3119.653 272.694, 3116.152 276.248 L 3110 282.497 3110 336.591 L 3110 390.685 3113.750 392.593 C 3115.813 393.642, 3117.650 394.837, 3117.833 395.250 C 3118.017 395.663, 3118.974 396, 3119.961 396 C 3120.948 396, 3122.315 396.675, 3123 397.500 C 3123.926 398.616, 3126.453 399.008, 3132.872 399.032 C 3138.869 399.054, 3142.092 399.511, 3143.441 400.532 C 3144.818 401.573, 3148.029 402, 3154.480 402 C 3164.057 402, 3168.392 400.628, 3173.873 395.863 C 3175.248 394.667, 3178.265 393.499, 3180.683 393.227 C 3184.431 392.804, 3185.908 391.839, 3191.512 386.152 L 3198 379.568 3198 371.933 C 3198 365.709, 3198.462 363.429, 3200.500 359.596 L 3203 354.894 3203 327.500 L 3203 300.106 3200.500 295.404 C 3198.851 292.303, 3198 289.096, 3198 285.986 C 3198 281.140, 3195.219 276, 3192.598 276 C 3191.906 276, 3188.606 273.525, 3185.263 270.500 L 3179.185 265 3156.593 265 C 3144.167 265, 3134 265.363, 3134 265.808 M 1324.557 363.223 C 1323.309 365.004, 1323 368.547, 1323 381.069 C 1323 395.466, 1323.164 396.883, 1325.083 399.097 L 1327.166 401.500 1361.475 401.787 C 1391.263 402.036, 1395.986 401.872, 1397.320 400.537 C 1398.165 399.692, 1399.469 399, 1400.216 399 C 1400.964 399, 1403.696 396.847, 1406.288 394.216 L 1411 389.431 1411 379.730 L 1411 370.029 1406.355 365.515 L 1401.710 361 1363.912 361 L 1326.113 361 1324.557 363.223" stroke="none" fill="#8d9ca4" fill-rule="evenodd"/></svg>