<svg xmlns="http://www.w3.org/2000/svg" width="200" height="200" viewBox="0 0 200 200" version="1.1"><path d="M 25 46 L 25 67 46 67 L 67 67 67 46 L 67 25 46 25 L 25 25 25 46 M 73 31 L 73 37 79 37 L 85 37 85 43 L 85 49 79 49 L 73 49 73 64 L 73 79 70 79 L 67 79 67 76 L 67 73 61 73 L 55 73 55 76 L 55 79 49 79 L 43 79 43 76 L 43 73 34 73 L 25 73 25 82 L 25 91 28 91 L 31 91 31 88 L 31 85 37 85 L 43 85 43 88 L 43 91 40 91 L 37 91 37 94 L 37 97 31 97 L 25 97 25 100 L 25 103 28 103 L 31 103 31 106 L 31 109 28 109 L 25 109 25 112 L 25 115 31 115 L 37 115 37 118 L 37 121 31 121 L 25 121 25 124 L 25 127 40 127 L 55 127 55 121 L 55 115 52 115 L 49 115 49 112 L 49 109 52 109 L 55 109 55 103 L 55 97 58 97 L 61 97 61 100 L 61 103 64 103 L 67 103 67 106 L 67 109 64 109 L 61 109 61 112 L 61 115 64 115 L 67 115 67 118 L 67 121 64 121 L 61 121 61 124 L 61 127 64 127 L 67 127 67 124 L 67 121 70 121 L 73 121 73 127 L 73 133 76 133 L 79 133 79 136 L 79 139 76 139 L 73 139 73 142 L 73 145 76 145 L 79 145 79 142 L 79 139 82 139 L 85 139 85 145 L 85 151 82 151 L 79 151 79 154 L 79 157 76 157 L 73 157 73 166 L 73 175 79 175 L 85 175 85 172 L 85 169 82 169 L 79 169 79 163 L 79 157 82 157 L 85 157 85 160 L 85 163 88 163 L 91 163 91 169 L 91 175 94 175 L 97 175 97 172 L 97 169 100 169 L 103 169 103 166 L 103 163 106 163 L 109 163 109 160 L 109 157 118 157 L 127 157 127 160 L 127 163 124 163 L 121 163 121 166 L 121 169 115 169 L 109 169 109 172 L 109 175 118 175 L 127 175 127 172 L 127 169 130 169 L 133 169 133 172 L 133 175 136 175 L 139 175 139 172 L 139 169 145 169 L 151 169 151 172 L 151 175 154 175 L 157 175 157 172 L 157 169 154 169 L 151 169 151 166 L 151 163 154 163 L 157 163 157 160 L 157 157 160 157 L 163 157 163 160 L 163 163 169 163 L 175 163 175 160 L 175 157 172 157 L 169 157 169 148 L 169 139 172 139 L 175 139 175 133 L 175 127 172 127 L 169 127 169 124 L 169 121 166 121 L 163 121 163 124 L 163 127 166 127 L 169 127 169 133 L 169 139 166 139 L 163 139 163 145 L 163 151 160 151 L 157 151 157 154 L 157 157 154 157 L 151 157 151 139 L 151 121 154 121 L 157 121 157 118 L 157 115 160 115 L 163 115 163 112 L 163 109 166 109 L 169 109 169 112 L 169 115 172 115 L 175 115 175 106 L 175 97 172 97 L 169 97 169 100 L 169 103 166 103 L 163 103 163 106 L 163 109 157 109 L 151 109 151 112 L 151 115 145 115 L 139 115 139 118 L 139 121 136 121 L 133 121 133 118 L 133 115 130 115 L 127 115 127 118 L 127 121 124 121 L 121 121 121 109 L 121 97 124 97 L 127 97 127 94 L 127 91 124 91 L 121 91 121 85 L 121 79 118 79 L 115 79 115 70 L 115 61 112 61 L 109 61 109 73 L 109 85 112 85 L 115 85 115 103 L 115 121 112 121 L 109 121 109 127 L 109 133 112 133 L 115 133 115 127 L 115 121 118 121 L 121 121 121 133 L 121 145 118 145 L 115 145 115 142 L 115 139 112 139 L 109 139 109 148 L 109 157 103 157 L 97 157 97 151 L 97 145 100 145 L 103 145 103 142 L 103 139 100 139 L 97 139 97 136 L 97 133 94 133 L 91 133 91 127 L 91 121 94 121 L 97 121 97 124 L 97 127 100 127 L 103 127 103 121 L 103 115 94 115 L 85 115 85 121 L 85 127 82 127 L 79 127 79 118 L 79 109 82 109 L 85 109 85 100 L 85 91 82 91 L 79 91 79 88 L 79 85 85 85 L 91 85 91 79 L 91 73 97 73 L 103 73 103 67 L 103 61 100 61 L 97 61 97 55 L 97 49 94 49 L 91 49 91 46 L 91 43 97 43 L 103 43 103 46 L 103 49 106 49 L 109 49 109 46 L 109 43 112 43 L 115 43 115 46 L 115 49 118 49 L 121 49 121 58 L 121 67 124 67 L 127 67 127 52 L 127 37 118 37 L 109 37 109 31 L 109 25 100 25 L 91 25 91 28 L 91 31 85 31 L 79 31 79 28 L 79 25 76 25 L 73 25 73 31 M 121 28 L 121 31 124 31 L 127 31 127 28 L 127 25 124 25 L 121 25 121 28 M 133 46 L 133 67 154 67 L 175 67 175 46 L 175 25 154 25 L 133 25 133 46 M 31 46 L 31 61 46 61 L 61 61 61 46 L 61 31 46 31 L 31 31 31 46 M 91 34 L 91 37 94 37 L 97 37 97 34 L 97 31 94 31 L 91 31 91 34 M 139 46 L 139 61 154 61 L 169 61 169 46 L 169 31 154 31 L 139 31 139 46 M 37 46 L 37 55 46 55 L 55 55 55 46 L 55 37 46 37 L 37 37 37 46 M 145 46 L 145 55 154 55 L 163 55 163 46 L 163 37 154 37 L 145 37 145 46 M 79 64 L 79 73 82 73 L 85 73 85 67 L 85 61 88 61 L 91 61 91 64 L 91 67 94 67 L 97 67 97 64 L 97 61 94 61 L 91 61 91 58 L 91 55 85 55 L 79 55 79 64 M 127 76 L 127 79 130 79 L 133 79 133 82 L 133 85 136 85 L 139 85 139 88 L 139 91 136 91 L 133 91 133 100 L 133 109 139 109 L 145 109 145 106 L 145 103 142 103 L 139 103 139 100 L 139 97 142 97 L 145 97 145 94 L 145 91 148 91 L 151 91 151 94 L 151 97 154 97 L 157 97 157 94 L 157 91 160 91 L 163 91 163 88 L 163 85 166 85 L 169 85 169 88 L 169 91 172 91 L 175 91 175 82 L 175 73 169 73 L 163 73 163 79 L 163 85 160 85 L 157 85 157 82 L 157 79 154 79 L 151 79 151 76 L 151 73 139 73 L 127 73 127 76 M 61 82 L 61 85 64 85 L 67 85 67 88 L 67 91 64 91 L 61 91 61 94 L 61 97 64 97 L 67 97 67 100 L 67 103 70 103 L 73 103 73 100 L 73 97 76 97 L 79 97 79 94 L 79 91 76 91 L 73 91 73 88 L 73 85 76 85 L 79 85 79 82 L 79 79 76 79 L 73 79 73 82 L 73 85 70 85 L 67 85 67 82 L 67 79 64 79 L 61 79 61 82 M 139 82 L 139 85 145 85 L 151 85 151 82 L 151 79 145 79 L 139 79 139 82 M 100.500 93.356 C 95 95.707, 89.475 98.186, 88.222 98.865 L 85.944 100.100 86.461 100.937 C 86.745 101.397, 88.559 102.070, 90.492 102.433 L 94.006 103.092 98.253 100.216 C 105.107 95.575, 105.720 95.475, 101.750 99.645 C 97.064 104.568, 100.754 111, 108.265 111 L 109.819 111 111.055 103.750 C 111.735 99.763, 112.338 94.972, 112.395 93.104 L 112.500 89.708 111.500 89.394 C 110.950 89.222, 106 91.004, 100.500 93.356 M 43 97 L 43 103 40 103 L 37 103 37 109 L 37 115 40 115 L 43 115 43 118 L 43 121 46 121 L 49 121 49 118 L 49 115 46 115 L 43 115 43 109 L 43 103 46 103 L 49 103 49 100 L 49 97 52 97 L 55 97 55 94 L 55 91 49 91 L 43 91 43 97 M 127 136 L 127 145 136 145 L 145 145 145 136 L 145 127 136 127 L 127 127 127 136 M 25 154 L 25 175 46 175 L 67 175 67 154 L 67 133 46 133 L 25 133 25 154 M 85 136 L 85 139 88 139 L 91 139 91 142 L 91 145 94 145 L 97 145 97 142 L 97 139 94 139 L 91 139 91 136 L 91 133 88 133 L 85 133 85 136 M 133 136 L 133 139 136 139 L 139 139 139 136 L 139 133 136 133 L 133 133 133 136 M 31 154 L 31 169 46 169 L 61 169 61 154 L 61 139 46 139 L 31 139 31 154 M 37 154 L 37 163 46 163 L 55 163 55 154 L 55 145 46 145 L 37 145 37 154 M 85 154 L 85 157 88 157 L 91 157 91 154 L 91 151 88 151 L 85 151 85 154 M 133 160 L 133 169 136 169 L 139 169 139 163 L 139 157 142 157 L 145 157 145 154 L 145 151 139 151 L 133 151 133 160 M 169 172 L 169 175 172 175 L 175 175 175 172 L 175 169 172 169 L 169 169 169 172" stroke="none" fill="#34a4dc" fill-rule="evenodd"/><path d="M -0 100.005 L -0 200.010 100.250 199.755 L 200.500 199.500 200.755 99.750 L 201.010 0 100.505 0 L 0 0 -0 100.005 M 0.481 100.500 C 0.481 155.500, 0.602 178.147, 0.750 150.826 C 0.898 123.506, 0.898 78.506, 0.750 50.826 C 0.602 23.147, 0.481 45.500, 0.481 100.500 M 25 46 L 25 67 46 67 L 67 67 67 46 L 67 25 46 25 L 25 25 25 46 M 73 31 L 73 37 79 37 L 85 37 85 43 L 85 49 79 49 L 73 49 73 64 L 73 79 70 79 L 67 79 67 76 L 67 73 61 73 L 55 73 55 76 L 55 79 49 79 L 43 79 43 76 L 43 73 34 73 L 25 73 25 82 L 25 91 28 91 L 31 91 31 88 L 31 85 37 85 L 43 85 43 88 L 43 91 40 91 L 37 91 37 94 L 37 97 31 97 L 25 97 25 100 L 25 103 28 103 L 31 103 31 106 L 31 109 28 109 L 25 109 25 112 L 25 115 31 115 L 37 115 37 118 L 37 121 31 121 L 25 121 25 124 L 25 127 40 127 L 55 127 55 121 L 55 115 52 115 L 49 115 49 112 L 49 109 52 109 L 55 109 55 103 L 55 97 58 97 L 61 97 61 100 L 61 103 64 103 L 67 103 67 106 L 67 109 64 109 L 61 109 61 112 L 61 115 64 115 L 67 115 67 118 L 67 121 64 121 L 61 121 61 124 L 61 127 64 127 L 67 127 67 124 L 67 121 70 121 L 73 121 73 127 L 73 133 76 133 L 79 133 79 136 L 79 139 76 139 L 73 139 73 142 L 73 145 76 145 L 79 145 79 142 L 79 139 82 139 L 85 139 85 145 L 85 151 82 151 L 79 151 79 154 L 79 157 76 157 L 73 157 73 166 L 73 175 79 175 L 85 175 85 172 L 85 169 82 169 L 79 169 79 163 L 79 157 82 157 L 85 157 85 160 L 85 163 88 163 L 91 163 91 169 L 91 175 94 175 L 97 175 97 172 L 97 169 100 169 L 103 169 103 166 L 103 163 106 163 L 109 163 109 160 L 109 157 118 157 L 127 157 127 160 L 127 163 124 163 L 121 163 121 166 L 121 169 115 169 L 109 169 109 172 L 109 175 118 175 L 127 175 127 172 L 127 169 130 169 L 133 169 133 172 L 133 175 136 175 L 139 175 139 172 L 139 169 145 169 L 151 169 151 172 L 151 175 154 175 L 157 175 157 172 L 157 169 154 169 L 151 169 151 166 L 151 163 154 163 L 157 163 157 160 L 157 157 160 157 L 163 157 163 160 L 163 163 169 163 L 175 163 175 160 L 175 157 172 157 L 169 157 169 148 L 169 139 172 139 L 175 139 175 133 L 175 127 172 127 L 169 127 169 124 L 169 121 166 121 L 163 121 163 124 L 163 127 166 127 L 169 127 169 133 L 169 139 166 139 L 163 139 163 145 L 163 151 160 151 L 157 151 157 154 L 157 157 154 157 L 151 157 151 139 L 151 121 154 121 L 157 121 157 118 L 157 115 160 115 L 163 115 163 112 L 163 109 166 109 L 169 109 169 112 L 169 115 172 115 L 175 115 175 106 L 175 97 172 97 L 169 97 169 100 L 169 103 166 103 L 163 103 163 106 L 163 109 157 109 L 151 109 151 112 L 151 115 145 115 L 139 115 139 118 L 139 121 136 121 L 133 121 133 118 L 133 115 130 115 L 127 115 127 118 L 127 121 124 121 L 121 121 121 109 L 121 97 124 97 L 127 97 127 94 L 127 91 124 91 L 121 91 121 85 L 121 79 118 79 L 115 79 115 70 L 115 61 112 61 L 109 61 109 73 L 109 85 112 85 L 115 85 115 103 L 115 121 112 121 L 109 121 109 127 L 109 133 112 133 L 115 133 115 127 L 115 121 118 121 L 121 121 121 133 L 121 145 118 145 L 115 145 115 142 L 115 139 112 139 L 109 139 109 148 L 109 157 103 157 L 97 157 97 151 L 97 145 100 145 L 103 145 103 142 L 103 139 100 139 L 97 139 97 136 L 97 133 94 133 L 91 133 91 127 L 91 121 94 121 L 97 121 97 124 L 97 127 100 127 L 103 127 103 121 L 103 115 94 115 L 85 115 85 121 L 85 127 82 127 L 79 127 79 118 L 79 109 82 109 L 85 109 85 100 L 85 91 82 91 L 79 91 79 88 L 79 85 85 85 L 91 85 91 79 L 91 73 97 73 L 103 73 103 67 L 103 61 100 61 L 97 61 97 55 L 97 49 94 49 L 91 49 91 46 L 91 43 97 43 L 103 43 103 46 L 103 49 106 49 L 109 49 109 46 L 109 43 112 43 L 115 43 115 46 L 115 49 118 49 L 121 49 121 58 L 121 67 124 67 L 127 67 127 52 L 127 37 118 37 L 109 37 109 31 L 109 25 100 25 L 91 25 91 28 L 91 31 85 31 L 79 31 79 28 L 79 25 76 25 L 73 25 73 31 M 121 28 L 121 31 124 31 L 127 31 127 28 L 127 25 124 25 L 121 25 121 28 M 133 46 L 133 67 154 67 L 175 67 175 46 L 175 25 154 25 L 133 25 133 46 M 31 46 L 31 61 46 61 L 61 61 61 46 L 61 31 46 31 L 31 31 31 46 M 91 34 L 91 37 94 37 L 97 37 97 34 L 97 31 94 31 L 91 31 91 34 M 139 46 L 139 61 154 61 L 169 61 169 46 L 169 31 154 31 L 139 31 139 46 M 37 46 L 37 55 46 55 L 55 55 55 46 L 55 37 46 37 L 37 37 37 46 M 145 46 L 145 55 154 55 L 163 55 163 46 L 163 37 154 37 L 145 37 145 46 M 79 64 L 79 73 82 73 L 85 73 85 67 L 85 61 88 61 L 91 61 91 64 L 91 67 94 67 L 97 67 97 64 L 97 61 94 61 L 91 61 91 58 L 91 55 85 55 L 79 55 79 64 M 127 76 L 127 79 130 79 L 133 79 133 82 L 133 85 136 85 L 139 85 139 88 L 139 91 136 91 L 133 91 133 100 L 133 109 139 109 L 145 109 145 106 L 145 103 142 103 L 139 103 139 100 L 139 97 142 97 L 145 97 145 94 L 145 91 148 91 L 151 91 151 94 L 151 97 154 97 L 157 97 157 94 L 157 91 160 91 L 163 91 163 88 L 163 85 166 85 L 169 85 169 88 L 169 91 172 91 L 175 91 175 82 L 175 73 169 73 L 163 73 163 79 L 163 85 160 85 L 157 85 157 82 L 157 79 154 79 L 151 79 151 76 L 151 73 139 73 L 127 73 127 76 M 61 82 L 61 85 64 85 L 67 85 67 88 L 67 91 64 91 L 61 91 61 94 L 61 97 64 97 L 67 97 67 100 L 67 103 70 103 L 73 103 73 100 L 73 97 76 97 L 79 97 79 94 L 79 91 76 91 L 73 91 73 88 L 73 85 76 85 L 79 85 79 82 L 79 79 76 79 L 73 79 73 82 L 73 85 70 85 L 67 85 67 82 L 67 79 64 79 L 61 79 61 82 M 139 82 L 139 85 145 85 L 151 85 151 82 L 151 79 145 79 L 139 79 139 82 M 100.500 93.356 C 95 95.707, 89.475 98.186, 88.222 98.865 L 85.944 100.100 86.461 100.937 C 86.745 101.397, 88.559 102.070, 90.492 102.433 L 94.006 103.092 98.253 100.216 C 105.107 95.575, 105.720 95.475, 101.750 99.645 C 97.064 104.568, 100.754 111, 108.265 111 L 109.819 111 111.055 103.750 C 111.735 99.763, 112.338 94.972, 112.395 93.104 L 112.500 89.708 111.500 89.394 C 110.950 89.222, 106 91.004, 100.500 93.356 M 43 97 L 43 103 40 103 L 37 103 37 109 L 37 115 40 115 L 43 115 43 118 L 43 121 46 121 L 49 121 49 118 L 49 115 46 115 L 43 115 43 109 L 43 103 46 103 L 49 103 49 100 L 49 97 52 97 L 55 97 55 94 L 55 91 49 91 L 43 91 43 97 M 127 136 L 127 145 136 145 L 145 145 145 136 L 145 127 136 127 L 127 127 127 136 M 25 154 L 25 175 46 175 L 67 175 67 154 L 67 133 46 133 L 25 133 25 154 M 85 136 L 85 139 88 139 L 91 139 91 142 L 91 145 94 145 L 97 145 97 142 L 97 139 94 139 L 91 139 91 136 L 91 133 88 133 L 85 133 85 136 M 133 136 L 133 139 136 139 L 139 139 139 136 L 139 133 136 133 L 133 133 133 136 M 31 154 L 31 169 46 169 L 61 169 61 154 L 61 139 46 139 L 31 139 31 154 M 37 154 L 37 163 46 163 L 55 163 55 154 L 55 145 46 145 L 37 145 37 154 M 85 154 L 85 157 88 157 L 91 157 91 154 L 91 151 88 151 L 85 151 85 154 M 133 160 L 133 169 136 169 L 139 169 139 163 L 139 157 142 157 L 145 157 145 154 L 145 151 139 151 L 133 151 133 160 M 169 172 L 169 175 172 175 L 175 175 175 172 L 175 169 172 169 L 169 169 169 172" stroke="none" fill="#fbfbfc" fill-rule="evenodd"/></svg>