<svg xmlns="http://www.w3.org/2000/svg" width="347" height="347" viewBox="0 0 347 347" version="1.1"><path d="M 0 173.503 L 0 347.006 173.750 346.753 L 347.500 346.500 347.753 173.250 L 348.006 0 174.003 0 L 0 0 0 173.503 M 0.489 174 C 0.489 269.425, 0.606 308.462, 0.750 260.750 C 0.894 213.037, 0.894 134.962, 0.750 87.250 C 0.606 39.537, 0.489 78.575, 0.489 174 M 23 60 L 23 96 59 96 L 95 96 95 60 L 95 24 59 24 L 23 24 23 60 M 105 39.500 L 105 55 110.500 55 L 116 55 116 60 L 116 65 110.500 65 L 105 65 105 70.500 L 105 76 110.500 76 L 116 76 116 81 L 116 86 110.500 86 L 105 86 105 91 L 105 96 110.500 96 L 116 96 116 91 L 116 86 121 86 L 126 86 126 96.500 L 126 107 131.500 107 L 137 107 137 96.500 L 137 86 142 86 L 147 86 147 91 L 147 96 152 96 L 157 96 157 91 L 157 86 162 86 L 167 86 167 96 L 167 106 157 106 L 147 106 147 111.500 L 147 117 157 117 L 167 117 167 127.388 L 167 137.775 173.250 137.847 L 179.500 137.919 182.500 138.855 C 184.150 139.370, 186.287 140.112, 187.250 140.503 L 189 141.214 189 139.107 L 189 137 183.500 137 L 178 137 178 127 L 178 117 214.500 117 L 251 117 251 111.500 L 251 106 240.500 106 L 230 106 230 101 L 230 96 235 96 L 240 96 240 91 L 240 86 234.500 86 L 229 86 229 91 L 229 96 224.500 96 L 220 96 220 91 L 220 86 214.500 86 L 209 86 209 81 L 209 76 214.500 76 L 220 76 220 70.500 L 220 65 209 65 L 198 65 198 75.500 L 198 86 193 86 L 188 86 188 91 L 188 96 193.500 96 L 199 96 199 91 L 199 86 204 86 L 209 86 209 96 L 209 106 193.500 106 L 178 106 178 91 L 178 76 183.500 76 L 189 76 189 65.500 L 189 55 183.500 55 L 178 55 178 50 L 178 45 183.500 45 L 189 45 189 34.500 L 189 24 173 24 L 157 24 157 29 L 157 34 152 34 L 147 34 147 29 L 147 24 136.500 24 L 126 24 126 39.500 L 126 55 121 55 L 116 55 116 39.500 L 116 24 110.500 24 L 105 24 105 39.500 M 198 29 L 198 34 203.500 34 L 209 34 209 29 L 209 24 203.500 24 L 198 24 198 29 M 229 29 L 229 34 224 34 L 219 34 219 39 L 219 44 214 44 L 209 44 209 49.500 L 209 55 219 55 L 229 55 229 60 L 229 65 234.500 65 L 240 65 240 54.500 L 240 44 235 44 L 230 44 230 39 L 230 34 235 34 L 240 34 240 29 L 240 24 234.500 24 L 229 24 229 29 M 250 60 L 250 96 286.500 96 L 323 96 323 60 L 323 24 286.500 24 L 250 24 250 60 M 33 60 L 33 86 59 86 L 85 86 85 60 L 85 34 59 34 L 33 34 33 60 M 137 39 L 137 44 142 44 L 147 44 147 39 L 147 34 142 34 L 137 34 137 39 M 261 60 L 261 86 286.500 86 L 312 86 312 60 L 312 34 286.500 34 L 261 34 261 60 M 43 60 L 43 76 59 76 L 75 76 75 60 L 75 44 59 44 L 43 44 43 60 M 271 60 L 271 76 286.500 76 L 302 76 302 60 L 302 44 286.500 44 L 271 44 271 60 M 147 50 L 147 55 142 55 L 137 55 137 65 L 137 75 147 75 L 157 75 157 70 L 157 65 162 65 L 167 65 167 60 L 167 55 162 55 L 157 55 157 50 L 157 45 152 45 L 147 45 147 50 M 147 60 L 147 65 152 65 L 157 65 157 60 L 157 55 152 55 L 147 55 147 60 M 168 70 L 168 75 173 75 L 178 75 178 70 L 178 65 173 65 L 168 65 168 70 M 126 81 L 126 86 131 86 L 136 86 136 81 L 136 76 131 76 L 126 76 126 81 M 23 132 L 23 158 28 158 L 33 158 33 163.500 L 33 169 53.500 169 L 74 169 74 174 L 74 179 84.500 179 L 95 179 95 184 L 95 189 84.500 189 L 74 189 74 194.500 L 74 200 84.500 200 L 95 200 95 205 L 95 210 84.500 210 L 74 210 74 215 L 74 220 69 220 L 64 220 64 209.500 L 64 199 53.500 199 L 43 199 43 204.500 L 43 210 38 210 L 33 210 33 204.500 L 33 199 28 199 L 23 199 23 220 L 23 241 33.500 241 L 44 241 44 225.500 L 44 210 49 210 L 54 210 54 225.500 L 54 241 59 241 L 64 241 64 236 L 64 231 69 231 L 74 231 74 236 L 74 241 89.500 241 L 105 241 105 267 L 105 293 110.500 293 L 116 293 116 288 L 116 283 121 283 L 126 283 126 293 L 126 303 131.500 303 L 137 303 137 298 L 137 293 142 293 L 147 293 147 308.500 L 147 324 162.500 324 L 178 324 178 318.500 L 178 313 167.500 313 L 157 313 157 308 L 157 303 172.500 303 L 188 303 188 308.500 L 188 314 193 314 L 198 314 198 319 L 198 324 203.500 324 L 209 324 209 319 L 209 314 214.500 314 L 220 314 220 303 L 220 292 214.500 292 L 209 292 209 302.500 L 209 313 204 313 L 199 313 199 302.500 L 199 292 194 292 L 189 292 189 282 L 189 272 193.500 272 L 198 272 198 277.500 L 198 283 203.500 283 L 209 283 209 277.500 L 209 272 214 272 L 219 272 219 277.500 L 219 283 229.500 283 L 240 283 240 287.500 L 240 292 234.500 292 L 229 292 229 297.500 L 229 303 234.500 303 L 240 303 240 298 L 240 293 245.500 293 L 251 293 251 288 L 251 283 271.500 283 L 292 283 292 277.500 L 292 272 287 272 L 282 272 282 267 L 282 262 287 262 L 292 262 292 251.500 L 292 241 302.500 241 L 313 241 313 235.500 L 313 230 307.500 230 L 302 230 302 225 L 302 220 297 220 L 292 220 292 215 L 292 210 302 210 L 312 210 312 215.500 L 312 221 317.500 221 L 323 221 323 215.500 L 323 210 318 210 L 313 210 313 204.500 L 313 199 302.500 199 L 292 199 292 194.500 L 292 190 297 190 L 302 190 302 179.500 L 302 169 307 169 L 312 169 312 179.500 L 312 190 317.500 190 L 323 190 323 163.500 L 323 137 317.500 137 L 312 137 312 147.500 L 312 158 291.500 158 L 271 158 271 153 L 271 148 266 148 L 261 148 261 142.500 L 261 137 250.500 137 L 240 137 240 132 L 240 127 234.500 127 L 229 127 229 132 L 229 137 224.500 137 L 220 137 220 132 L 220 127 214.500 127 L 209 127 209 132 L 209 137 203.500 137 L 198 137 198 141.959 L 198 146.918 202.144 152.459 L 206.288 158 207.644 158 L 209 158 209 178.500 L 209 199 203.500 199 L 198 199 198 204.500 L 198 210 193 210 L 188 210 188 215 L 188 220 183 220 L 178 220 178 215 L 178 210 167.500 210 L 157 210 157 208.500 L 157 207 155.743 207 C 155.052 207, 152.915 207.491, 150.993 208.091 C 133.608 213.518, 133.397 213.299, 139.129 195.782 C 140.158 192.636, 141 189.824, 141 189.532 C 141 189.239, 137.625 189, 133.500 189 L 126 189 126 184 L 126 179 116 179 L 106 179 106 163.500 L 106 148 121 148 L 136 148 136 153 L 136 158 138.339 158 L 140.679 158 141.794 155.554 C 142.407 154.208, 144.481 151.366, 146.404 149.238 L 149.899 145.369 153.450 143.457 L 157 141.545 157 134.273 L 157 127 152 127 L 147 127 147 132 L 147 137 142 137 L 137 137 137 132 L 137 127 131.500 127 L 126 127 126 132 L 126 137 121 137 L 116 137 116 132 L 116 127 110.500 127 L 105 127 105 137.500 L 105 148 95 148 L 85 148 85 153 L 85 158 74.500 158 L 64 158 64 153 L 64 148 69.500 148 L 75 148 75 137.500 L 75 127 64.500 127 L 54 127 54 122 L 54 117 85 117 L 116 117 116 111.500 L 116 106 85 106 L 54 106 54 111.500 L 54 117 43.500 117 L 33 117 33 111.500 L 33 106 28 106 L 23 106 23 132 M 271 111.500 L 271 117 265.500 117 L 260 117 260 122 L 260 127 265.500 127 L 271 127 271 132.500 L 271 138 276 138 L 281 138 281 143 L 281 148 286.500 148 L 292 148 292 143 L 292 138 297 138 L 302 138 302 132.500 L 302 127 307.500 127 L 313 127 313 122 L 313 117 318 117 L 323 117 323 111.500 L 323 106 307 106 L 291 106 291 121.500 L 291 137 286.500 137 L 282 137 282 121.500 L 282 106 276.500 106 L 271 106 271 111.500 M 85 132.500 L 85 138 90 138 L 95 138 95 132.500 L 95 127 90 127 L 85 127 85 132.500 M 33 143 L 33 148 38.500 148 L 44 148 44 153 L 44 158 49 158 L 54 158 54 148 L 54 138 43.500 138 L 33 138 33 143 M 209 148 L 209 158 214 158 L 219 158 219 148 L 219 138 214 138 L 209 138 209 148 M 162.332 143.790 L 157.165 145.637 153.610 148.348 L 150.055 151.060 147.234 155.280 C 145.683 157.601, 143.847 160.811, 143.154 162.413 L 141.894 165.326 141.338 171.413 L 140.783 177.500 142.909 183.772 L 145.036 190.043 143.065 197.736 C 140.672 207.079, 140.195 206.611, 149.457 204.012 L 157.092 201.870 162.220 203.573 L 167.349 205.277 174.125 205.234 L 180.901 205.192 186.201 202.749 L 191.500 200.306 195.581 196.318 L 199.661 192.331 202.081 187.415 L 204.500 182.500 204.491 173.500 L 204.482 164.500 201.818 159.437 L 199.155 154.373 194.950 150.574 L 190.745 146.775 186.122 144.725 L 181.500 142.676 174.500 142.310 L 167.500 141.944 162.332 143.790 M 161.220 150.578 L 156.047 153.156 153.369 156.328 C 151.896 158.072, 149.870 161.300, 148.867 163.500 L 147.044 167.500 147.022 173.815 L 147 180.129 149.077 184.957 L 151.154 189.784 150.082 193.642 C 149.493 195.764, 149.009 197.793, 149.006 198.152 L 149 198.804 153.499 197.450 L 157.997 196.097 162.249 198.026 L 166.500 199.956 173.054 199.978 L 179.607 200 184.780 197.422 L 189.953 194.844 192.635 191.672 C 194.110 189.928, 196.169 186.582, 197.210 184.238 L 199.104 179.975 199.133 174.064 L 199.161 168.152 197.239 163.826 C 196.181 161.447, 194.110 158.072, 192.635 156.328 L 189.953 153.156 184.780 150.578 L 179.607 148 173 148 L 166.393 148 161.220 150.578 M 85 163 L 85 168 90 168 L 95 168 95 163 L 95 158 90 158 L 85 158 85 163 M 116 163.500 L 116 169 121 169 L 126 169 126 163.500 L 126 158 121 158 L 116 158 116 163.500 M 230 174 L 230 190 225 190 L 220 190 220 194.500 L 220 199 225 199 L 230 199 230 204.500 L 230 210 235 210 L 240 210 240 204.500 L 240 199 245.500 199 L 251 199 251 204.500 L 251 210 255.500 210 L 260 210 260 194.500 L 260 179 265.500 179 L 271 179 271 189 L 271 199 276 199 L 281 199 281 194 L 281 189 286 189 L 291 189 291 179 L 291 169 270.500 169 L 250 169 250 163.500 L 250 158 240 158 L 230 158 230 174 M 158.557 161.223 L 157 163.445 157 166.488 L 157 169.531 158.750 172.790 C 159.713 174.583, 162.457 178.035, 164.850 180.461 L 169.200 184.874 173.589 186.937 L 177.978 189 181.489 189 L 185 189 187 187 L 189 185 189 183.020 L 189 181.041 185.119 179.061 L 181.237 177.080 179.464 179.040 L 177.690 181 175.819 181 L 173.947 181 169.449 176.502 L 164.951 172.004 166.514 169.619 L 168.077 167.233 166.430 163.117 L 164.783 159 162.448 159 L 160.113 159 158.557 161.223 M 136.310 173.500 L 136.320 179.500 136.725 176.232 C 136.947 174.435, 136.943 171.735, 136.715 170.232 L 136.300 167.500 136.310 173.500 M 33 184.500 L 33 190 43.500 190 L 54 190 54 184.500 L 54 179 43.500 179 L 33 179 33 184.500 M 240 184.500 L 240 190 245.500 190 L 251 190 251 184.500 L 251 179 245.500 179 L 240 179 240 184.500 M 95 194.500 L 95 199 110.500 199 L 126 199 126 194.500 L 126 190 110.500 190 L 95 190 95 194.500 M 209 205 L 209 210 204 210 L 199 210 199 220 L 199 230 204 230 L 209 230 209 225 L 209 220 214 220 L 219 220 219 210 L 219 200 214 200 L 209 200 209 205 M 282 205 L 282 210 286.500 210 L 291 210 291 205 L 291 200 286.500 200 L 282 200 282 205 M 95 215.500 L 95 221 85 221 L 75 221 75 225.500 L 75 230 95.500 230 L 116 230 116 235.500 L 116 241 121 241 L 126 241 126 246 L 126 251 136.500 251 L 147 251 147 246 L 147 241 152 241 L 157 241 157 236 L 157 231 141.500 231 L 126 231 126 226 L 126 221 115.500 221 L 105 221 105 215.500 L 105 210 100 210 L 95 210 95 215.500 M 261 215.500 L 261 221 256 221 L 251 221 251 225.500 L 251 230 261 230 L 271 230 271 220 L 271 210 266 210 L 261 210 261 215.500 M 168 251.500 L 168 282 173 282 L 178 282 178 277 L 178 272 183 272 L 188 272 188 267 L 188 262 183 262 L 178 262 178 256.500 L 178 251 183 251 L 188 251 188 241 L 188 231 183 231 L 178 231 178 226 L 178 221 173 221 L 168 221 168 251.500 M 230 225.500 L 230 230 235 230 L 240 230 240 225.500 L 240 221 235 221 L 230 221 230 225.500 M 220 236 L 220 241 209.500 241 L 199 241 199 246 L 199 251 204 251 L 209 251 209 256 L 209 261 219 261 L 229 261 229 246 L 229 231 224.500 231 L 220 231 220 236 M 240 256.500 L 240 272 255.500 272 L 271 272 271 256.500 L 271 241 255.500 241 L 240 241 240 256.500 M 23 287.500 L 23 324 59 324 L 95 324 95 287.500 L 95 251 59 251 L 23 251 23 287.500 M 250 256.500 L 250 262 255.500 262 L 261 262 261 256.500 L 261 251 255.500 251 L 250 251 250 256.500 M 116 262 L 116 272 121 272 L 126 272 126 262 L 126 252 121 252 L 116 252 116 262 M 147 256.500 L 147 261 152 261 L 157 261 157 256.500 L 157 252 152 252 L 147 252 147 256.500 M 302 266.500 L 302 272 307.500 272 L 313 272 313 266.500 L 313 261 307.500 261 L 302 261 302 266.500 M 33 287.500 L 33 313 59 313 L 85 313 85 287.500 L 85 262 59 262 L 33 262 33 287.500 M 137 267 L 137 272 142 272 L 147 272 147 267 L 147 262 142 262 L 137 262 137 267 M 43 287.500 L 43 303 59 303 L 75 303 75 287.500 L 75 272 59 272 L 43 272 43 287.500 M 302 287 L 302 292 296.500 292 L 291 292 291 297.500 L 291 303 286.500 303 L 282 303 282 297.500 L 282 292 271 292 L 260 292 260 297.500 L 260 303 255 303 L 250 303 250 308 L 250 313 239.500 313 L 229 313 229 318.500 L 229 324 245 324 L 261 324 261 319 L 261 314 266 314 L 271 314 271 319 L 271 324 281.500 324 L 292 324 292 319 L 292 314 297 314 L 302 314 302 308.500 L 302 303 307 303 L 312 303 312 308.500 L 312 314 317.500 314 L 323 314 323 303 L 323 292 318 292 L 313 292 313 287 L 313 282 307.500 282 L 302 282 302 287 M 271 308 L 271 313 276 313 L 281 313 281 308 L 281 303 276 303 L 271 303 271 308 M 105 318.500 L 105 324 110.500 324 L 116 324 116 318.500 L 116 313 110.500 313 L 105 313 105 318.500 M 126 318.500 L 126 324 131.500 324 L 137 324 137 318.500 L 137 313 131.500 313 L 126 313 126 318.500" stroke="none" fill="#fbfbfb" fill-rule="evenodd"/><path d="M 23 60 L 23 96 59 96 L 95 96 95 60 L 95 24 59 24 L 23 24 23 60 M 105 39.500 L 105 55 110.500 55 L 116 55 116 60 L 116 65 110.500 65 L 105 65 105 70.500 L 105 76 110.500 76 L 116 76 116 81 L 116 86 110.500 86 L 105 86 105 91 L 105 96 110.500 96 L 116 96 116 91 L 116 86 121 86 L 126 86 126 96.500 L 126 107 131.500 107 L 137 107 137 96.500 L 137 86 142 86 L 147 86 147 91 L 147 96 152 96 L 157 96 157 91 L 157 86 162 86 L 167 86 167 96 L 167 106 157 106 L 147 106 147 111.500 L 147 117 157 117 L 167 117 167 127.388 L 167 137.775 173.250 137.847 L 179.500 137.919 182.500 138.855 C 184.150 139.370, 186.287 140.112, 187.250 140.503 L 189 141.214 189 139.107 L 189 137 183.500 137 L 178 137 178 127 L 178 117 214.500 117 L 251 117 251 111.500 L 251 106 240.500 106 L 230 106 230 101 L 230 96 235 96 L 240 96 240 91 L 240 86 234.500 86 L 229 86 229 91 L 229 96 224.500 96 L 220 96 220 91 L 220 86 214.500 86 L 209 86 209 81 L 209 76 214.500 76 L 220 76 220 70.500 L 220 65 209 65 L 198 65 198 75.500 L 198 86 193 86 L 188 86 188 91 L 188 96 193.500 96 L 199 96 199 91 L 199 86 204 86 L 209 86 209 96 L 209 106 193.500 106 L 178 106 178 91 L 178 76 183.500 76 L 189 76 189 65.500 L 189 55 183.500 55 L 178 55 178 50 L 178 45 183.500 45 L 189 45 189 34.500 L 189 24 173 24 L 157 24 157 29 L 157 34 152 34 L 147 34 147 29 L 147 24 136.500 24 L 126 24 126 39.500 L 126 55 121 55 L 116 55 116 39.500 L 116 24 110.500 24 L 105 24 105 39.500 M 198 29 L 198 34 203.500 34 L 209 34 209 29 L 209 24 203.500 24 L 198 24 198 29 M 229 29 L 229 34 224 34 L 219 34 219 39 L 219 44 214 44 L 209 44 209 49.500 L 209 55 219 55 L 229 55 229 60 L 229 65 234.500 65 L 240 65 240 54.500 L 240 44 235 44 L 230 44 230 39 L 230 34 235 34 L 240 34 240 29 L 240 24 234.500 24 L 229 24 229 29 M 250 60 L 250 96 286.500 96 L 323 96 323 60 L 323 24 286.500 24 L 250 24 250 60 M 33 60 L 33 86 59 86 L 85 86 85 60 L 85 34 59 34 L 33 34 33 60 M 137 39 L 137 44 142 44 L 147 44 147 39 L 147 34 142 34 L 137 34 137 39 M 261 60 L 261 86 286.500 86 L 312 86 312 60 L 312 34 286.500 34 L 261 34 261 60 M 43 60 L 43 76 59 76 L 75 76 75 60 L 75 44 59 44 L 43 44 43 60 M 271 60 L 271 76 286.500 76 L 302 76 302 60 L 302 44 286.500 44 L 271 44 271 60 M 147 50 L 147 55 142 55 L 137 55 137 65 L 137 75 147 75 L 157 75 157 70 L 157 65 162 65 L 167 65 167 60 L 167 55 162 55 L 157 55 157 50 L 157 45 152 45 L 147 45 147 50 M 147 60 L 147 65 152 65 L 157 65 157 60 L 157 55 152 55 L 147 55 147 60 M 168 70 L 168 75 173 75 L 178 75 178 70 L 178 65 173 65 L 168 65 168 70 M 126 81 L 126 86 131 86 L 136 86 136 81 L 136 76 131 76 L 126 76 126 81 M 23 132 L 23 158 28 158 L 33 158 33 163.500 L 33 169 53.500 169 L 74 169 74 174 L 74 179 84.500 179 L 95 179 95 184 L 95 189 84.500 189 L 74 189 74 194.500 L 74 200 84.500 200 L 95 200 95 205 L 95 210 84.500 210 L 74 210 74 215 L 74 220 69 220 L 64 220 64 209.500 L 64 199 53.500 199 L 43 199 43 204.500 L 43 210 38 210 L 33 210 33 204.500 L 33 199 28 199 L 23 199 23 220 L 23 241 33.500 241 L 44 241 44 225.500 L 44 210 49 210 L 54 210 54 225.500 L 54 241 59 241 L 64 241 64 236 L 64 231 69 231 L 74 231 74 236 L 74 241 89.500 241 L 105 241 105 267 L 105 293 110.500 293 L 116 293 116 288 L 116 283 121 283 L 126 283 126 293 L 126 303 131.500 303 L 137 303 137 298 L 137 293 142 293 L 147 293 147 308.500 L 147 324 162.500 324 L 178 324 178 318.500 L 178 313 167.500 313 L 157 313 157 308 L 157 303 172.500 303 L 188 303 188 308.500 L 188 314 193 314 L 198 314 198 319 L 198 324 203.500 324 L 209 324 209 319 L 209 314 214.500 314 L 220 314 220 303 L 220 292 214.500 292 L 209 292 209 302.500 L 209 313 204 313 L 199 313 199 302.500 L 199 292 194 292 L 189 292 189 282 L 189 272 193.500 272 L 198 272 198 277.500 L 198 283 203.500 283 L 209 283 209 277.500 L 209 272 214 272 L 219 272 219 277.500 L 219 283 229.500 283 L 240 283 240 287.500 L 240 292 234.500 292 L 229 292 229 297.500 L 229 303 234.500 303 L 240 303 240 298 L 240 293 245.500 293 L 251 293 251 288 L 251 283 271.500 283 L 292 283 292 277.500 L 292 272 287 272 L 282 272 282 267 L 282 262 287 262 L 292 262 292 251.500 L 292 241 302.500 241 L 313 241 313 235.500 L 313 230 307.500 230 L 302 230 302 225 L 302 220 297 220 L 292 220 292 215 L 292 210 302 210 L 312 210 312 215.500 L 312 221 317.500 221 L 323 221 323 215.500 L 323 210 318 210 L 313 210 313 204.500 L 313 199 302.500 199 L 292 199 292 194.500 L 292 190 297 190 L 302 190 302 179.500 L 302 169 307 169 L 312 169 312 179.500 L 312 190 317.500 190 L 323 190 323 163.500 L 323 137 317.500 137 L 312 137 312 147.500 L 312 158 291.500 158 L 271 158 271 153 L 271 148 266 148 L 261 148 261 142.500 L 261 137 250.500 137 L 240 137 240 132 L 240 127 234.500 127 L 229 127 229 132 L 229 137 224.500 137 L 220 137 220 132 L 220 127 214.500 127 L 209 127 209 132 L 209 137 203.500 137 L 198 137 198 141.959 L 198 146.918 202.144 152.459 L 206.288 158 207.644 158 L 209 158 209 178.500 L 209 199 203.500 199 L 198 199 198 204.500 L 198 210 193 210 L 188 210 188 215 L 188 220 183 220 L 178 220 178 215 L 178 210 167.500 210 L 157 210 157 208.500 L 157 207 155.743 207 C 155.052 207, 152.915 207.491, 150.993 208.091 C 133.608 213.518, 133.397 213.299, 139.129 195.782 C 140.158 192.636, 141 189.824, 141 189.532 C 141 189.239, 137.625 189, 133.500 189 L 126 189 126 184 L 126 179 116 179 L 106 179 106 163.500 L 106 148 121 148 L 136 148 136 153 L 136 158 138.339 158 L 140.679 158 141.794 155.554 C 142.407 154.208, 144.481 151.366, 146.404 149.238 L 149.899 145.369 153.450 143.457 L 157 141.545 157 134.273 L 157 127 152 127 L 147 127 147 132 L 147 137 142 137 L 137 137 137 132 L 137 127 131.500 127 L 126 127 126 132 L 126 137 121 137 L 116 137 116 132 L 116 127 110.500 127 L 105 127 105 137.500 L 105 148 95 148 L 85 148 85 153 L 85 158 74.500 158 L 64 158 64 153 L 64 148 69.500 148 L 75 148 75 137.500 L 75 127 64.500 127 L 54 127 54 122 L 54 117 85 117 L 116 117 116 111.500 L 116 106 85 106 L 54 106 54 111.500 L 54 117 43.500 117 L 33 117 33 111.500 L 33 106 28 106 L 23 106 23 132 M 271 111.500 L 271 117 265.500 117 L 260 117 260 122 L 260 127 265.500 127 L 271 127 271 132.500 L 271 138 276 138 L 281 138 281 143 L 281 148 286.500 148 L 292 148 292 143 L 292 138 297 138 L 302 138 302 132.500 L 302 127 307.500 127 L 313 127 313 122 L 313 117 318 117 L 323 117 323 111.500 L 323 106 307 106 L 291 106 291 121.500 L 291 137 286.500 137 L 282 137 282 121.500 L 282 106 276.500 106 L 271 106 271 111.500 M 85 132.500 L 85 138 90 138 L 95 138 95 132.500 L 95 127 90 127 L 85 127 85 132.500 M 33 143 L 33 148 38.500 148 L 44 148 44 153 L 44 158 49 158 L 54 158 54 148 L 54 138 43.500 138 L 33 138 33 143 M 209 148 L 209 158 214 158 L 219 158 219 148 L 219 138 214 138 L 209 138 209 148 M 162.332 143.790 L 157.165 145.637 153.610 148.348 L 150.055 151.060 147.234 155.280 C 145.683 157.601, 143.847 160.811, 143.154 162.413 L 141.894 165.326 141.338 171.413 L 140.783 177.500 142.909 183.772 L 145.036 190.043 143.065 197.736 C 140.672 207.079, 140.195 206.611, 149.457 204.012 L 157.092 201.870 162.220 203.573 L 167.349 205.277 174.125 205.234 L 180.901 205.192 186.201 202.749 L 191.500 200.306 195.581 196.318 L 199.661 192.331 202.081 187.415 L 204.500 182.500 204.491 173.500 L 204.482 164.500 201.818 159.437 L 199.155 154.373 194.950 150.574 L 190.745 146.775 186.122 144.725 L 181.500 142.676 174.500 142.310 L 167.500 141.944 162.332 143.790 M 161.220 150.578 L 156.047 153.156 153.369 156.328 C 151.896 158.072, 149.870 161.300, 148.867 163.500 L 147.044 167.500 147.022 173.815 L 147 180.129 149.077 184.957 L 151.154 189.784 150.082 193.642 C 149.493 195.764, 149.009 197.793, 149.006 198.152 L 149 198.804 153.499 197.450 L 157.997 196.097 162.249 198.026 L 166.500 199.956 173.054 199.978 L 179.607 200 184.780 197.422 L 189.953 194.844 192.635 191.672 C 194.110 189.928, 196.169 186.582, 197.210 184.238 L 199.104 179.975 199.133 174.064 L 199.161 168.152 197.239 163.826 C 196.181 161.447, 194.110 158.072, 192.635 156.328 L 189.953 153.156 184.780 150.578 L 179.607 148 173 148 L 166.393 148 161.220 150.578 M 85 163 L 85 168 90 168 L 95 168 95 163 L 95 158 90 158 L 85 158 85 163 M 116 163.500 L 116 169 121 169 L 126 169 126 163.500 L 126 158 121 158 L 116 158 116 163.500 M 230 174 L 230 190 225 190 L 220 190 220 194.500 L 220 199 225 199 L 230 199 230 204.500 L 230 210 235 210 L 240 210 240 204.500 L 240 199 245.500 199 L 251 199 251 204.500 L 251 210 255.500 210 L 260 210 260 194.500 L 260 179 265.500 179 L 271 179 271 189 L 271 199 276 199 L 281 199 281 194 L 281 189 286 189 L 291 189 291 179 L 291 169 270.500 169 L 250 169 250 163.500 L 250 158 240 158 L 230 158 230 174 M 158.557 161.223 L 157 163.445 157 166.488 L 157 169.531 158.750 172.790 C 159.713 174.583, 162.457 178.035, 164.850 180.461 L 169.200 184.874 173.589 186.937 L 177.978 189 181.489 189 L 185 189 187 187 L 189 185 189 183.020 L 189 181.041 185.119 179.061 L 181.237 177.080 179.464 179.040 L 177.690 181 175.819 181 L 173.947 181 169.449 176.502 L 164.951 172.004 166.514 169.619 L 168.077 167.233 166.430 163.117 L 164.783 159 162.448 159 L 160.113 159 158.557 161.223 M 136.310 173.500 L 136.320 179.500 136.725 176.232 C 136.947 174.435, 136.943 171.735, 136.715 170.232 L 136.300 167.500 136.310 173.500 M 33 184.500 L 33 190 43.500 190 L 54 190 54 184.500 L 54 179 43.500 179 L 33 179 33 184.500 M 240 184.500 L 240 190 245.500 190 L 251 190 251 184.500 L 251 179 245.500 179 L 240 179 240 184.500 M 95 194.500 L 95 199 110.500 199 L 126 199 126 194.500 L 126 190 110.500 190 L 95 190 95 194.500 M 209 205 L 209 210 204 210 L 199 210 199 220 L 199 230 204 230 L 209 230 209 225 L 209 220 214 220 L 219 220 219 210 L 219 200 214 200 L 209 200 209 205 M 282 205 L 282 210 286.500 210 L 291 210 291 205 L 291 200 286.500 200 L 282 200 282 205 M 95 215.500 L 95 221 85 221 L 75 221 75 225.500 L 75 230 95.500 230 L 116 230 116 235.500 L 116 241 121 241 L 126 241 126 246 L 126 251 136.500 251 L 147 251 147 246 L 147 241 152 241 L 157 241 157 236 L 157 231 141.500 231 L 126 231 126 226 L 126 221 115.500 221 L 105 221 105 215.500 L 105 210 100 210 L 95 210 95 215.500 M 261 215.500 L 261 221 256 221 L 251 221 251 225.500 L 251 230 261 230 L 271 230 271 220 L 271 210 266 210 L 261 210 261 215.500 M 168 251.500 L 168 282 173 282 L 178 282 178 277 L 178 272 183 272 L 188 272 188 267 L 188 262 183 262 L 178 262 178 256.500 L 178 251 183 251 L 188 251 188 241 L 188 231 183 231 L 178 231 178 226 L 178 221 173 221 L 168 221 168 251.500 M 230 225.500 L 230 230 235 230 L 240 230 240 225.500 L 240 221 235 221 L 230 221 230 225.500 M 220 236 L 220 241 209.500 241 L 199 241 199 246 L 199 251 204 251 L 209 251 209 256 L 209 261 219 261 L 229 261 229 246 L 229 231 224.500 231 L 220 231 220 236 M 240 256.500 L 240 272 255.500 272 L 271 272 271 256.500 L 271 241 255.500 241 L 240 241 240 256.500 M 23 287.500 L 23 324 59 324 L 95 324 95 287.500 L 95 251 59 251 L 23 251 23 287.500 M 250 256.500 L 250 262 255.500 262 L 261 262 261 256.500 L 261 251 255.500 251 L 250 251 250 256.500 M 116 262 L 116 272 121 272 L 126 272 126 262 L 126 252 121 252 L 116 252 116 262 M 147 256.500 L 147 261 152 261 L 157 261 157 256.500 L 157 252 152 252 L 147 252 147 256.500 M 302 266.500 L 302 272 307.500 272 L 313 272 313 266.500 L 313 261 307.500 261 L 302 261 302 266.500 M 33 287.500 L 33 313 59 313 L 85 313 85 287.500 L 85 262 59 262 L 33 262 33 287.500 M 137 267 L 137 272 142 272 L 147 272 147 267 L 147 262 142 262 L 137 262 137 267 M 43 287.500 L 43 303 59 303 L 75 303 75 287.500 L 75 272 59 272 L 43 272 43 287.500 M 302 287 L 302 292 296.500 292 L 291 292 291 297.500 L 291 303 286.500 303 L 282 303 282 297.500 L 282 292 271 292 L 260 292 260 297.500 L 260 303 255 303 L 250 303 250 308 L 250 313 239.500 313 L 229 313 229 318.500 L 229 324 245 324 L 261 324 261 319 L 261 314 266 314 L 271 314 271 319 L 271 324 281.500 324 L 292 324 292 319 L 292 314 297 314 L 302 314 302 308.500 L 302 303 307 303 L 312 303 312 308.500 L 312 314 317.500 314 L 323 314 323 303 L 323 292 318 292 L 313 292 313 287 L 313 282 307.500 282 L 302 282 302 287 M 271 308 L 271 313 276 313 L 281 313 281 308 L 281 303 276 303 L 271 303 271 308 M 105 318.500 L 105 324 110.500 324 L 116 324 116 318.500 L 116 313 110.500 313 L 105 313 105 318.500 M 126 318.500 L 126 324 131.500 324 L 137 324 137 318.500 L 137 313 131.500 313 L 126 313 126 318.500" stroke="none" fill="#4bcb5b" fill-rule="evenodd"/></svg>